<?xml version="1.0" encoding="UTF-8" standalone="no"?>
<!-- Generator: Adobe Illustrator 27.5.0, SVG Export Plug-In . SVG Version: 6.00 Build 0)  -->

<svg
   version="1.1"
   x="0px"
   y="0px"
   viewBox="0 0 106.46 106.46"
   xml:space="preserve"
   id="svg17"
   sodipodi:docname="april.svg"
   width="106.46"
   height="106.46"
   inkscape:version="1.3.2 (091e20e, 2023-11-25, custom)"
   xmlns:inkscape="http://www.inkscape.org/namespaces/inkscape"
   xmlns:sodipodi="http://sodipodi.sourceforge.net/DTD/sodipodi-0.dtd"
   xmlns="http://www.w3.org/2000/svg"
   xmlns:svg="http://www.w3.org/2000/svg"><defs
   id="defs17" /><sodipodi:namedview
   id="namedview17"
   pagecolor="#ffffff"
   bordercolor="#000000"
   borderopacity="0.25"
   inkscape:showpageshadow="2"
   inkscape:pageopacity="0.0"
   inkscape:pagecheckerboard="0"
   inkscape:deskcolor="#d1d1d1"
   inkscape:zoom="1.554"
   inkscape:cx="-120.01287"
   inkscape:cy="229.40798"
   inkscape:window-width="1920"
   inkscape:window-height="991"
   inkscape:window-x="2391"
   inkscape:window-y="435"
   inkscape:window-maximized="1"
   inkscape:current-layer="svg17" />

<g
   id="OBJECTS"
   transform="translate(-370.278,-20.86)">
	
	<g
   id="g17">
		<path
   style="fill:#39b8ff"
   d="m 476.738,74.09 c 0,0.77 -0.02,1.53 -0.05,2.29 -0.11,2.73 -0.44,5.41 -0.95,8.02 -0.09,0.45 -0.18,0.89 -0.28,1.33 -3.1,13.9 -11.63,25.75 -23.26,33.2 -7.61,4.88 -16.55,7.88 -26.15,8.33 -0.84,0.04 -1.69,0.06 -2.54,0.06 -5.79,0 -11.37,-0.93 -16.59,-2.64 -11.64,-3.81 -21.51,-11.53 -28.06,-21.61 -1.68,-2.57 -3.14,-5.3 -4.36,-8.16 -2.71,-6.39 -4.22,-13.43 -4.22,-20.82 0,-29.4 23.83,-53.23 53.23,-53.23 29.4,0 53.23,23.83 53.23,53.23 z"
   id="path1" />
		<path
   style="fill:#d4f9ff"
   d="m 476.738,74.09 c 0,0.77 -0.02,1.53 -0.05,2.29 -0.11,2.73 -0.44,5.41 -0.95,8.02 -0.09,0.45 -0.18,0.89 -0.28,1.33 -3.1,13.9 -11.63,25.75 -23.26,33.2 -7.61,4.88 -16.55,7.88 -26.15,8.33 -0.84,0.04 -1.69,0.06 -2.54,0.06 -5.79,0 -11.37,-0.93 -16.59,-2.64 -11.64,-3.81 -21.51,-11.53 -28.06,-21.61 -1.68,-2.57 -3.14,-5.3 -4.36,-8.16 -2.71,-6.39 -4.22,-13.43 -4.22,-20.82 0,-29.4 23.83,-53.23 53.23,-53.23 29.4,0 53.23,23.83 53.23,53.23 z"
   id="path2" />
		<path
   style="fill:#91d194"
   d="m 452.198,118.93 c -7.61,4.88 -16.55,7.88 -26.15,8.33 -0.84,0.04 -1.69,0.06 -2.54,0.06 -5.79,0 -11.37,-0.93 -16.59,-2.64 -11.64,-3.81 -21.51,-11.53 -28.06,-21.61 -1.68,-2.57 -3.14,-5.3 -4.36,-8.16 14.18,-3.88 29.51,-3.57 43.5,1 3.29,1.08 6.51,2.39 9.62,3.92 0.51,0.24 1.02,0.5 1.52,0.76 0.51,0.26 1.02,0.54 1.53,0.82 8.16,4.46 15.51,10.43 21.53,17.52 z"
   id="path3" />
		<g
   id="g5">
			<path
   style="fill:#9ccc92"
   d="m 461.175,89.381 c -2.339,-6.341 -5.999,-12.191 -10.68,-17.067 -1.344,-1.4 -2.941,-2.798 -4.878,-2.916 -2.406,-0.146 -4.445,1.721 -5.894,3.648 -3.203,4.26 -5.064,9.368 -6.582,14.478 -1.518,5.109 -2.747,10.33 -4.886,15.212 5.452,-3.027 10.871,-5.836 16.648,-8.184 5.232,-2.128 10.703,-4.232 16.272,-5.171 z"
   id="path4" />
			<path
   style="fill:#9ccc92"
   d="m 476.688,76.38 c -0.11,2.73 -0.44,5.41 -0.95,8.02 -0.09,0.45 -0.18,0.89 -0.28,1.33 -7.21,1.91 -14.4,3.92 -21.61,5.78 0.16,-0.04 0.3,-0.19 0.41,-0.42 0.52,-1.03 0.58,-3.63 0.67,-4.47 0.01,-0.06 0.01,-0.11 0.02,-0.15 0.32,-2.09 0.84,-4.31 1.58,-6.47 0.41,-1.24 0.9,-2.46 1.46,-3.62 0.8,-1.68 1.74,-3.23 2.81,-4.56 2.42,-2.98 5.77,-3.54 9.01,-1.81 2.65,1.42 4.96,3.72 6.88,6.37 z"
   id="path5" />
		</g>
		<path
   style="fill:#69b838"
   d="m 475.738,84.4 c -0.09,0.45 -0.18,0.89 -0.28,1.33 -3.1,13.9 -11.63,25.75 -23.26,33.2 -7.61,4.88 -16.55,7.88 -26.15,8.33 -0.84,0.04 -1.69,0.06 -2.54,0.06 -5.79,0 -11.37,-0.93 -16.59,-2.64 1.91,-3.71 4.15,-7.27 6.67,-10.61 4.02,-5.34 8.75,-10.14 14.03,-14.24 0.8,-0.61 1.61,-1.21 2.43,-1.79 1.49,-1.06 3.01,-2.07 4.58,-3.01 6.3,-3.79 13.17,-6.62 20.3,-8.41 1.54,-0.39 3.1,-0.73 4.67,-1.01 h 0.01 c 5.31,-0.99 10.72,-1.4 16.13,-1.21 z"
   id="path6" />
		<path
   style="fill:#77383d"
   d="m 408.121,85.22 c 0.025,-3.942 2.093,-7.649 4.854,-10.462 2.761,-2.813 6.186,-4.866 9.57,-6.887 -5.736,0.966 -10.953,3.954 -14.343,8.681 -1.14,-6.846 1.302,-14.189 6.315,-18.989 -3.712,0.738 -6.799,3.54 -7.706,7.214 -2.354,-4.594 -6.655,-8.151 -11.609,-9.601 2.197,1.684 4.409,3.382 6.245,5.453 1.837,2.071 3.295,4.564 3.713,7.3 0.334,2.187 -0.006,4.413 -0.346,6.599 -0.592,3.808 -1.075,7.449 -1.667,11.257 -2.503,-3.492 -5.327,-6.754 -8.424,-9.732 -1.267,-1.218 -2.804,-2.469 -4.554,-2.302 2.265,1.086 4.109,2.915 5.56,4.966 1.411,1.995 2.48,4.206 3.526,6.415 -3.445,-0.334 -6.891,-0.668 -10.336,-1.002 1.792,0.835 3.663,1.484 5.581,1.962 2.689,0.67 5.287,0.656 6.839,3.283 1.842,3.119 1.859,7.099 1.526,10.597 -0.163,1.708 -0.479,3.412 -0.71,5.101 -0.145,1.063 -0.673,5.189 -1.923,5.602 -1.032,0.34 -1.573,2.322 -0.813,3.098 0.653,0.667 1.711,0.643 2.644,0.616 4.181,-0.118 8.385,0.654 12.251,2.249 -4.357,-6.774 -6.425,-14.992 -5.794,-23.021 0.188,-2.387 0.685,-4.915 2.36,-6.626 1.414,-1.443 3.439,-2.072 5.375,-2.649 1.889,-0.563 3.777,-1.125 5.666,-1.688 -4.797,-1.473 -9.763,-0.417 -13.8,2.566 z"
   id="path7" />
		<path
   style="fill:#66aa39"
   d="m 426.048,127.26 c -0.84,0.04 -1.69,0.06 -2.54,0.06 -5.79,0 -11.37,-0.93 -16.59,-2.64 -11.64,-3.81 -21.51,-11.53 -28.06,-21.61 9.45,-0.31 18.99,1.86 27.35,6.28 2.58,1.36 5.05,2.94 7.38,4.72 4.85,3.66 9.08,8.14 12.46,13.19 z"
   id="path8" />
		<circle
   style="fill:#fdff84"
   cx="440.923"
   cy="48.931"
   r="6.2449999"
   id="circle8" />
		<path
   style="fill:#579c41"
   d="m 397.607,86.319 c 0.212,2.159 -1.161,4.377 -3.188,5.151 -2.027,0.774 -4.528,0.035 -5.81,-1.715 -0.961,0.377 -2.001,0.642 -3.022,0.49 -1.021,-0.151 -2.018,-0.792 -2.357,-1.767 -0.339,-0.975 0.185,-2.233 1.186,-2.485 -1.274,-0.036 -2.611,-0.186 -3.653,-0.919 -1.043,-0.733 -1.653,-2.22 -1.03,-3.331 0.486,-0.867 1.573,-1.255 2.564,-1.184 0.991,0.071 1.913,0.517 2.793,0.977 -1.168,-1.183 -1.364,-3.203 -0.445,-4.588 0.918,-1.386 2.854,-1.992 4.399,-1.378 1.545,0.614 2.536,2.384 2.252,4.022 1.003,-2.083 4.213,-2.628 5.847,-0.992 1.634,1.635 1.087,4.845 -0.997,5.846"
   id="path9" />
		<path
   style="fill:#579c41"
   d="m 391.902,66.415 c -1.394,-1.062 -3.658,-0.679 -4.625,0.783 0.309,-1.569 -0.292,-3.314 -1.579,-4.264 -1.287,-0.949 -3.215,-0.979 -4.46,0.025 -1.245,1.004 -1.601,2.993 -0.689,4.306 -1.318,-1.128 -3.7,-0.482 -4.267,1.158 -0.568,1.639 0.904,3.62 2.638,3.549 -1.599,0.218 -2.78,1.943 -2.527,3.537 0.253,1.594 1.79,2.841 3.404,2.893 1.614,0.052 3.169,-1.006 3.846,-2.471 -0.5,2.121 1.596,4.408 3.753,4.094 2.157,-0.313 3.515,-3.102 2.432,-4.993 1.007,0.483 2.351,0.077 2.922,-0.883 0.411,-0.69 0.251,-1.295 0.122,-2.02 -0.173,-0.967 -0.207,-0.821 -0.031,-1.787 0.263,-1.461 0.425,-2.888 -0.939,-3.927 z"
   id="path10" />
		<path
   style="fill:#579c41"
   d="m 393.785,43.661 c -2.619,-0.343 -5.349,1.478 -6.039,4.028 -0.69,2.549 0.749,5.499 3.183,6.524 -1.567,0.228 -2.637,2.129 -2.021,3.587 0.616,1.458 2.725,2.015 3.981,1.05 -1.95,1.163 -2.165,4.373 -0.389,5.786 1.776,1.413 4.856,0.481 5.55,-1.68 -0.706,1.354 0.236,3.268 1.74,3.534 1.504,0.266 3.045,-1.21 2.845,-2.724 1.457,0.876 3.481,0.67 4.731,-0.482 1.25,-1.152 1.621,-3.152 0.868,-4.676 -0.754,-1.524 -2.569,-2.442 -4.243,-2.147 0.943,-0.353 1.484,-1.528 1.138,-2.474 -0.346,-0.946 -1.516,-1.496 -2.465,-1.157 1.353,-0.99 1.532,-3.228 0.353,-4.42 -0.693,-0.701 -1.732,-0.921 -2.68,-0.747 -1.34,0.246 -1.226,0.878 -2.029,-0.174 -1.346,-1.767 -1.964,-3.493 -4.523,-3.828 z"
   id="path11" />
		<path
   style="fill:#579c41"
   d="m 407.245,50.246 c -1.21,-1.235 -1.704,-3.128 -1.25,-4.797 0.453,-1.669 1.836,-3.052 3.505,-3.505 1.669,-0.453 3.562,0.04 4.797,1.25 0.617,-1.466 2.383,-2.526 3.944,-2.219 1.561,0.308 2.801,1.803 2.815,3.393 0.014,1.591 -1.199,3.107 -2.754,3.442 1.295,-0.157 2.389,1.358 2.381,2.663 -0.008,1.305 -1.319,2.444 -2.613,2.27 0.892,1.008 1.426,2.074 1.312,3.415 -0.114,1.341 -0.954,2.639 -2.203,3.141 -1.249,0.502 -2.851,0.075 -3.56,-1.07 0.193,1.249 -0.094,2.348 -0.905,3.318 -0.485,0.58 -1.141,1.042 -1.884,1.182 -0.743,0.14 -1.572,-0.08 -2.066,-0.653 -0.493,-0.573 -0.565,-1.504 -0.081,-2.085 -0.923,0.824 -2.556,0.651 -3.581,-0.042 -1.025,-0.692 -1.489,-2.113 -1.069,-3.277 0.419,-1.164 1.682,-1.962 2.914,-1.842 -1.029,0.466 -2.305,-0.799 -2.493,-1.912 -0.19,-1.112 1.667,-2.775 2.791,-2.672 z"
   id="path12" />
		<path
   style="fill:#579c41"
   d="m 413.367,66.226 c -1.079,-0.419 -2.403,-0.104 -3.178,0.757 -0.775,0.861 -0.949,2.21 -0.419,3.24 0.53,1.03 1.73,1.671 2.881,1.54 -1.247,0.632 -1.607,2.528 -1.061,3.815 0.546,1.287 2.083,2.04 3.45,1.749 1.367,-0.291 2.447,-1.552 2.594,-2.942 0.268,0.786 0.559,1.655 1.058,2.319 0.499,0.664 1.267,1.182 2.098,1.167 0.849,-0.015 1.597,-0.572 2.155,-1.211 1.014,-1.16 1.595,-2.627 2.156,-4.062 0.764,1.289 2.585,1.599 3.761,0.67 1.175,-0.929 1.275,-2.923 0.198,-3.965 1.901,0.354 4.011,-0.256 5.259,-1.734 1.248,-1.478 1.453,-3.816 0.299,-5.369 -1.154,-1.552 -3.645,-1.977 -5.13,-0.738 0.787,-1.097 0.06,-2.817 -1.203,-3.292 -1.264,-0.475 -2.746,0.103 -3.643,1.111 -0.897,1.008 -1.304,2.362 -1.513,3.696 -1.107,-1.754 -3.491,-2.579 -5.446,-1.885 -1.955,0.697 -4.564,3.074 -4.316,5.134 z"
   id="path13" />
		<path
   style="fill:#579c41"
   d="m 413.92,89.965 c 1.479,-0.207 2.713,-1.451 3.057,-2.905 0.009,1.994 2.203,3.658 4.126,3.13 1.923,-0.528 2.958,-3.079 1.947,-4.798 1.533,1.114 3.87,0.921 5.199,-0.43 1.329,-1.35 1.484,-3.691 0.346,-5.205 -1.138,-1.514 -3.43,-2.015 -5.097,-1.114 0.432,-2.251 -1.617,-4.628 -3.907,-4.532 -2.29,0.096 -4.133,2.636 -3.514,4.843 -0.377,-1.344 -3.37,-1.133 -4.251,-0.76 -1.879,0.794 -2.299,2.733 -2.271,4.602 0.04,2.64 0.742,7.677 4.365,7.169 z"
   id="path14" />
		<path
   style="fill:#ffffff"
   d="m 464.346,63.878 h -12.819 c -0.064,-1.002 0.302,-1.812 1.066,-2.463 0.764,-0.651 1.842,-0.916 2.821,-0.693 -0.271,-1.078 0.295,-2.271 1.224,-2.882 0.929,-0.611 2.243,-0.565 3.126,0.111 0.883,0.676 1.272,1.932 0.925,2.988 0.788,-0.527 1.891,-0.534 2.686,-0.018 0.796,0.514 1.13,2.022 0.971,2.957 z"
   id="path15" />
		<path
   style="fill:#ffffff"
   d="m 430.243,34.477 h -18.974 c -0.091,-1.282 0.438,-2.774 1.575,-3.373 1.137,-0.6 2.623,-0.462 3.63,0.337 -0.219,-1.34 -0.316,-2.835 0.585,-3.851 0.901,-1.016 2.383,-1.526 3.685,-1.144 1.303,0.382 2.303,1.709 2.182,3.061 0.521,-0.69 1.631,-0.933 2.429,-0.599 0.797,0.334 1.311,1.242 1.185,2.097 0.792,-1.123 2.381,-1.455 3.544,-0.724 1.163,0.731 0.827,2.996 0.159,4.196 z"
   id="path16" />
		<path
   style="fill:#ffffff"
   d="m 387.573,60.931 h -11.415 c -0.158,-1.24 0.089,-2.542 1.179,-3.155 1.089,-0.613 2.546,-0.497 3.524,0.281 -0.321,-1.635 0.493,-3.295 2.037,-3.922 1.543,-0.627 3.491,-0.017 4.4,1.379 0.909,1.396 1.472,4.258 0.275,5.417 z"
   id="path17" />
	</g>
	
</g>
</svg>
