<?xml version="1.0" encoding="UTF-8" standalone="no"?>
<!-- Generator: Adobe Illustrator 27.5.0, SVG Export Plug-In . SVG Version: 6.00 Build 0)  -->

<svg
   version="1.1"
   x="0px"
   y="0px"
   viewBox="0 0 106.46 106.46"
   xml:space="preserve"
   id="svg32"
   sodipodi:docname="august.svg"
   width="106.46"
   height="106.46"
   inkscape:version="1.3.2 (091e20e, 2023-11-25, custom)"
   xmlns:inkscape="http://www.inkscape.org/namespaces/inkscape"
   xmlns:sodipodi="http://sodipodi.sourceforge.net/DTD/sodipodi-0.dtd"
   xmlns="http://www.w3.org/2000/svg"
   xmlns:svg="http://www.w3.org/2000/svg"><defs
   id="defs32" /><sodipodi:namedview
   id="namedview32"
   pagecolor="#ffffff"
   bordercolor="#000000"
   borderopacity="0.25"
   inkscape:showpageshadow="2"
   inkscape:pageopacity="0.0"
   inkscape:pagecheckerboard="0"
   inkscape:deskcolor="#d1d1d1"
   inkscape:zoom="1.554"
   inkscape:cx="-120.01287"
   inkscape:cy="70.46332"
   inkscape:window-width="1920"
   inkscape:window-height="991"
   inkscape:window-x="2391"
   inkscape:window-y="435"
   inkscape:window-maximized="1"
   inkscape:current-layer="svg32" />

<g
   id="OBJECTS"
   transform="translate(-370.278,-179.304)">

	<g
   id="g32">
		<path
   style="fill:#39b8ff"
   d="m 476.738,232.534 c 0,0.77 -0.02,1.53 -0.05,2.29 -0.11,2.73 -0.44,5.41 -0.95,8.02 -0.09,0.45 -0.18,0.89 -0.28,1.33 -3.1,13.9 -11.63,25.75 -23.26,33.2 -7.61,4.88 -16.55,7.88 -26.15,8.33 -0.84,0.04 -1.69,0.06 -2.54,0.06 -5.79,0 -11.37,-0.93 -16.59,-2.64 -11.64,-3.81 -21.51,-11.53 -28.06,-21.61 -1.68,-2.57 -3.14,-5.3 -4.36,-8.16 -2.71,-6.39 -4.22,-13.43 -4.22,-20.82 0,-29.4 23.83,-53.23 53.23,-53.23 29.4,0 53.23,23.83 53.23,53.23 z"
   id="path1" />
		<path
   style="fill:#c6f2f3"
   d="m 476.738,232.534 c 0,0.77 -0.02,1.53 -0.05,2.29 -0.11,2.73 -0.44,5.41 -0.95,8.02 -0.09,0.45 -0.18,0.89 -0.28,1.33 -3.1,13.9 -11.63,25.75 -23.26,33.2 -7.61,4.88 -16.55,7.88 -26.15,8.33 -0.84,0.04 -1.69,0.06 -2.54,0.06 -5.79,0 -11.37,-0.93 -16.59,-2.64 -11.64,-3.81 -21.51,-11.53 -28.06,-21.61 -1.68,-2.57 -3.14,-5.3 -4.36,-8.16 -2.71,-6.39 -4.22,-13.43 -4.22,-20.82 0,-29.4 23.83,-53.23 53.23,-53.23 29.4,0 53.23,23.83 53.23,53.23 z"
   id="path2" />
		<path
   style="fill:#91c53f"
   d="m 452.198,277.374 c -7.61,4.88 -16.55,7.88 -26.15,8.33 -0.84,0.04 -1.69,0.06 -2.54,0.06 -5.79,0 -11.37,-0.93 -16.59,-2.64 -11.64,-3.81 -21.51,-11.53 -28.06,-21.61 -1.68,-2.57 -3.14,-5.3 -4.36,-8.16 14.18,-3.88 29.51,-3.57 43.5,1 3.29,1.08 6.51,2.39 9.62,3.92 0.51,0.24 1.02,0.5 1.52,0.76 0.51,0.26 1.02,0.54 1.53,0.82 8.16,4.46 15.51,10.43 21.53,17.52 z"
   id="path3" />
		<g
   id="g6">
			<g
   id="g5">
				<path
   style="fill:#828e5e"
   d="m 461.175,247.824 c -2.339,-6.341 -5.999,-12.191 -10.68,-17.067 -1.344,-1.4 -2.941,-2.798 -4.878,-2.916 -2.406,-0.146 -4.445,1.721 -5.894,3.648 -3.203,4.26 -5.064,9.368 -6.582,14.478 -1.518,5.11 -2.747,10.33 -4.886,15.212 5.452,-3.027 10.871,-5.836 16.648,-8.184 5.232,-2.127 10.703,-4.231 16.272,-5.171 z"
   id="path4" />
				<path
   style="fill:#828e5e"
   d="m 476.688,234.824 c -0.11,2.73 -0.44,5.41 -0.95,8.02 -0.09,0.45 -0.18,0.89 -0.28,1.33 -7.21,1.91 -14.4,3.92 -21.61,5.78 0.16,-0.04 0.3,-0.19 0.41,-0.42 0.52,-1.03 0.58,-3.63 0.67,-4.47 0.01,-0.06 0.01,-0.11 0.02,-0.15 0.32,-2.09 0.84,-4.31 1.58,-6.47 0.41,-1.24 0.9,-2.46 1.46,-3.62 0.8,-1.68 1.74,-3.23 2.81,-4.56 2.42,-2.98 5.77,-3.54 9.01,-1.81 2.65,1.42 4.96,3.72 6.88,6.37 z"
   id="path5" />
			</g>
		</g>
		<path
   style="fill:#aecd4b"
   d="m 475.738,242.844 c -0.09,0.45 -0.18,0.89 -0.28,1.33 -3.1,13.9 -11.63,25.75 -23.26,33.2 -7.61,4.88 -16.55,7.88 -26.15,8.33 -0.84,0.04 -1.69,0.06 -2.54,0.06 -5.79,0 -11.37,-0.93 -16.59,-2.64 1.91,-3.71 4.15,-7.27 6.67,-10.61 4.02,-5.34 8.75,-10.14 14.03,-14.24 0.8,-0.61 1.61,-1.21 2.43,-1.79 1.49,-1.06 3.01,-2.07 4.58,-3.01 6.3,-3.79 13.17,-6.62 20.3,-8.41 1.54,-0.39 3.1,-0.73 4.67,-1.01 h 0.01 c 5.31,-0.99 10.72,-1.4 16.13,-1.21 z"
   id="path6" />
		<path
   style="fill:#587342"
   d="m 420.968,280.405 c 0.79,-0.761 1.123,-1.964 0.837,-3.023 -0.286,-1.059 -1.178,-1.932 -2.244,-2.193 0.968,-0.519 1.427,-1.819 1.001,-2.831 -0.427,-1.012 -1.679,-1.59 -2.726,-1.259 1.641,-0.23 2.761,-2.134 2.317,-3.73 -0.443,-1.596 -2.21,-2.643 -3.854,-2.439 -1.644,0.204 -3.044,1.518 -3.539,3.099 0.962,-1.635 0.285,-4.012 -1.395,-4.894 -1.679,-0.882 -4.021,-0.091 -4.821,1.63 0.965,-0.904 0.873,-2.681 -0.18,-3.481 -1.053,-0.8 -2.789,-0.414 -3.403,0.758 1.263,-1.026 1.606,-3.018 0.759,-4.408 -0.847,-1.389 -2.775,-1.998 -4.265,-1.346 -1.491,0.652 -2.353,2.48 -1.908,4.045 -0.589,-1.99 -3.388,-2.902 -5.037,-1.642 -1.649,1.26 -1.503,4.201 0.262,5.291 9.112,5.628 18.967,10.991 28.196,16.423 z"
   id="path7" />
		<path
   style="fill:#77383d"
   d="m 408.121,243.664 c 0.025,-3.942 2.093,-7.649 4.854,-10.462 2.761,-2.813 6.186,-4.866 9.57,-6.887 -5.736,0.966 -10.953,3.954 -14.343,8.68 -1.14,-6.846 1.302,-14.189 6.315,-18.989 -3.712,0.738 -6.799,3.54 -7.706,7.214 -2.354,-4.594 -6.655,-8.151 -11.609,-9.601 2.197,1.684 4.409,3.382 6.245,5.453 1.837,2.071 3.295,4.564 3.713,7.3 0.334,2.187 -0.006,4.413 -0.346,6.599 -0.592,3.808 -1.075,7.449 -1.667,11.257 -2.503,-3.492 -5.327,-6.754 -8.424,-9.732 -1.267,-1.218 -2.804,-2.469 -4.554,-2.302 2.265,1.086 4.109,2.915 5.56,4.966 1.411,1.994 2.48,4.206 3.526,6.415 -3.445,-0.334 -6.891,-0.668 -10.336,-1.003 1.792,0.835 3.663,1.484 5.581,1.962 2.689,0.67 5.287,0.656 6.839,3.283 1.842,3.119 1.859,7.099 1.526,10.597 -0.163,1.708 -0.479,3.412 -0.71,5.101 -0.145,1.063 -0.673,5.189 -1.923,5.602 -1.032,0.34 -1.573,2.322 -0.813,3.098 0.653,0.666 1.711,0.642 2.644,0.616 4.181,-0.118 8.385,0.654 12.251,2.249 -4.357,-6.774 -6.425,-14.992 -5.794,-23.021 0.188,-2.387 0.685,-4.915 2.36,-6.626 1.414,-1.443 3.439,-2.072 5.375,-2.649 1.889,-0.563 3.777,-1.125 5.666,-1.688 -4.797,-1.471 -9.763,-0.415 -13.8,2.568 z"
   id="path8" />
		<path
   style="fill:#65a83f"
   d="m 426.048,285.704 c -0.84,0.04 -1.69,0.06 -2.54,0.06 -5.79,0 -11.37,-0.93 -16.59,-2.64 -11.64,-3.81 -21.51,-11.53 -28.06,-21.61 9.45,-0.31 18.99,1.86 27.35,6.28 2.58,1.36 5.05,2.94 7.38,4.72 4.85,3.66 9.08,8.14 12.46,13.19 z"
   id="path9" />
		<circle
   style="fill:#ffffff"
   cx="440.923"
   cy="207.375"
   r="6.2449999"
   id="circle9" />
		<g
   id="g18">
			<path
   style="fill:#587342"
   d="m 410.288,222.528 c -0.086,-1.911 1.366,-3.775 3.24,-4.159 1.874,-0.384 3.942,0.76 4.614,2.551 0.672,1.791 -0.135,4.013 -1.799,4.956 1.424,-0.898 3.569,-0.493 4.481,0.923 0.912,1.416 0.558,3.479 -0.724,4.571 -1.282,1.092 -3.312,1.14 -4.693,0.177 1.316,1.068 1.743,2.806 1.08,4.367 -0.662,1.561 -2.421,2.577 -4.104,2.373 -1.683,-0.205 -3.147,-1.613 -3.416,-3.287 -0.511,1.563 -2.554,3.001 -4.16,2.646 -1.606,-0.355 -2.8,-2.036 -2.605,-3.669 0.195,-1.633 1.75,-2.987 3.395,-2.954 -1.224,0.161 -2.506,-0.639 -2.9,-1.809 -0.393,-1.17 0.146,-2.583 1.219,-3.193 1.073,-0.611 2.562,-0.353 3.368,0.583 -1.392,-0.668 -2.449,-2.105 -2.437,-3.649 0.013,-1.544 1.253,-3.05 2.794,-3.149 1.541,-0.101 3,1.219 2.647,2.722 z"
   id="path10" />
			<path
   style="fill:#778b36"
   d="m 397.571,245.776 c 0.212,2.159 -1.161,4.377 -3.188,5.151 -2.027,0.774 -4.528,0.035 -5.81,-1.715 -0.961,0.377 -2.001,0.642 -3.022,0.49 -1.021,-0.151 -2.018,-0.792 -2.356,-1.767 -0.339,-0.975 0.185,-2.233 1.186,-2.485 -1.274,-0.036 -2.611,-0.186 -3.653,-0.919 -1.042,-0.733 -1.653,-2.22 -1.03,-3.331 0.486,-0.867 1.572,-1.255 2.564,-1.184 0.991,0.071 1.913,0.517 2.793,0.977 -1.168,-1.184 -1.364,-3.203 -0.445,-4.589 0.918,-1.386 2.854,-1.992 4.399,-1.378 1.545,0.614 2.536,2.384 2.252,4.022 1.003,-2.083 4.213,-2.628 5.847,-0.992 1.634,1.635 1.087,4.845 -0.997,5.846"
   id="path11" />
			<path
   style="fill:#9a973d"
   d="m 391.867,225.872 c -1.394,-1.062 -3.658,-0.679 -4.625,0.783 0.309,-1.569 -0.292,-3.314 -1.579,-4.264 -1.287,-0.95 -3.215,-0.979 -4.46,0.025 -1.245,1.004 -1.601,2.993 -0.689,4.306 -1.318,-1.128 -3.7,-0.482 -4.268,1.158 -0.568,1.639 0.904,3.62 2.638,3.549 -1.599,0.219 -2.78,1.943 -2.527,3.537 0.253,1.594 1.79,2.841 3.404,2.893 1.614,0.051 3.169,-1.006 3.846,-2.471 -0.5,2.121 1.596,4.408 3.753,4.094 2.157,-0.314 3.515,-3.102 2.432,-4.993 1.007,0.483 2.351,0.077 2.922,-0.883 0.411,-0.69 0.251,-1.295 0.122,-2.02 -0.173,-0.967 -0.207,-0.821 -0.032,-1.787 0.264,-1.461 0.426,-2.888 -0.937,-3.927 z"
   id="path12" />
			<path
   style="fill:#778b36"
   d="m 393.75,203.118 c -2.619,-0.343 -5.349,1.478 -6.039,4.027 -0.69,2.549 0.749,5.499 3.183,6.524 -1.567,0.228 -2.637,2.129 -2.021,3.587 0.616,1.459 2.725,2.015 3.981,1.05 -1.95,1.163 -2.165,4.373 -0.389,5.786 1.776,1.413 4.856,0.481 5.55,-1.68 -0.706,1.354 0.236,3.268 1.74,3.534 1.504,0.266 3.045,-1.21 2.845,-2.724 1.457,0.876 3.481,0.67 4.731,-0.482 1.25,-1.152 1.622,-3.152 0.868,-4.676 -0.754,-1.524 -2.569,-2.442 -4.243,-2.147 0.943,-0.353 1.484,-1.528 1.138,-2.474 -0.346,-0.946 -1.517,-1.496 -2.465,-1.157 1.353,-0.991 1.532,-3.228 0.353,-4.421 -0.693,-0.701 -1.732,-0.921 -2.68,-0.747 -1.34,0.246 -1.226,0.878 -2.029,-0.174 -1.346,-1.765 -1.964,-3.491 -4.523,-3.826 z"
   id="path13" />
			<path
   style="fill:#778b36"
   d="m 407.21,209.703 c -1.21,-1.235 -1.704,-3.128 -1.25,-4.797 0.453,-1.669 1.836,-3.052 3.505,-3.505 1.669,-0.453 3.562,0.04 4.797,1.25 0.617,-1.466 2.383,-2.526 3.944,-2.219 1.56,0.308 2.8,1.803 2.815,3.393 0.014,1.59 -1.199,3.107 -2.754,3.442 1.295,-0.157 2.389,1.358 2.381,2.663 -0.008,1.305 -1.319,2.444 -2.613,2.27 0.892,1.008 1.426,2.073 1.312,3.415 -0.114,1.341 -0.954,2.639 -2.203,3.141 -1.249,0.502 -2.851,0.075 -3.56,-1.07 0.193,1.249 -0.094,2.348 -0.905,3.318 -0.485,0.58 -1.141,1.042 -1.884,1.182 -0.743,0.14 -1.572,-0.08 -2.065,-0.653 -0.493,-0.573 -0.565,-1.504 -0.081,-2.085 -0.923,0.824 -2.556,0.65 -3.581,-0.042 -1.025,-0.692 -1.489,-2.113 -1.069,-3.277 0.419,-1.164 1.682,-1.962 2.914,-1.842 -1.029,0.466 -2.305,-0.798 -2.493,-1.912 -0.192,-1.112 1.665,-2.775 2.79,-2.672 z"
   id="path14" />
			<path
   style="fill:#9bb84e"
   d="m 413.331,225.683 c -1.079,-0.419 -2.403,-0.104 -3.178,0.757 -0.775,0.861 -0.949,2.21 -0.419,3.24 0.53,1.029 1.73,1.671 2.881,1.54 -1.247,0.632 -1.607,2.528 -1.061,3.815 0.546,1.286 2.083,2.04 3.45,1.749 1.367,-0.291 2.447,-1.552 2.594,-2.942 0.268,0.786 0.559,1.655 1.058,2.319 0.499,0.665 1.267,1.182 2.097,1.167 0.849,-0.015 1.597,-0.571 2.155,-1.21 1.014,-1.16 1.595,-2.627 2.156,-4.062 0.764,1.289 2.585,1.599 3.761,0.67 1.175,-0.929 1.275,-2.923 0.198,-3.964 1.901,0.354 4.011,-0.256 5.259,-1.734 1.248,-1.478 1.452,-3.816 0.299,-5.369 -1.154,-1.552 -3.645,-1.978 -5.129,-0.738 0.787,-1.097 0.06,-2.817 -1.203,-3.292 -1.264,-0.475 -2.746,0.103 -3.643,1.111 -0.898,1.008 -1.304,2.362 -1.513,3.696 -1.108,-1.755 -3.491,-2.579 -5.446,-1.885 -1.955,0.695 -4.564,3.072 -4.316,5.132 z"
   id="path15" />
			<path
   style="fill:#778b36"
   d="m 413.884,249.422 c 1.479,-0.207 2.713,-1.451 3.057,-2.905 0.009,1.994 2.203,3.658 4.126,3.13 1.923,-0.528 2.958,-3.079 1.948,-4.798 1.533,1.114 3.87,0.921 5.199,-0.43 1.329,-1.35 1.484,-3.691 0.346,-5.205 -1.138,-1.514 -3.43,-2.015 -5.097,-1.114 0.432,-2.251 -1.617,-4.628 -3.907,-4.532 -2.29,0.096 -4.133,2.636 -3.514,4.843 -0.377,-1.344 -3.37,-1.133 -4.251,-0.76 -1.879,0.794 -2.299,2.733 -2.271,4.602 0.039,2.64 0.741,7.677 4.364,7.169 z"
   id="path16" />
			<path
   style="fill:#9bb84e"
   d="m 388.469,214.539 c -1.13,1.869 -0.741,4.516 0.878,5.982 -2.019,-1.543 -5.44,-0.458 -6.201,1.966 -0.761,2.424 1.427,5.269 3.965,5.157 -1.672,1.46 -1.889,4.295 -0.458,5.992 1.431,1.697 4.262,1.962 5.983,0.56 -0.592,0.786 -0.49,1.96 0.093,2.753 0.583,0.793 1.557,1.231 2.535,1.347 1.755,0.207 3.594,-0.597 4.634,-2.025 1.04,-1.429 1.241,-3.425 0.505,-5.032 1.639,0.793 3.856,-0.005 4.614,-1.66 0.758,-1.656 -0.087,-3.855 -1.759,-4.577 2.315,-0.805 3.388,-4.006 2.024,-6.043 -1.364,-2.037 -4.733,-2.265 -6.358,-0.43 1.668,-1.882 -1.868,-5.742 -3.486,-6.229 -2.28,-0.687 -5.689,0.123 -6.969,2.239 z"
   id="path17" />
			<path
   style="fill:#9a973d"
   d="m 405.927,236.199 c 0.469,-1.521 -0.213,-3.318 -1.573,-4.145 -1.36,-0.827 -3.269,-0.606 -4.404,0.509 -1.135,1.115 -1.389,3.021 -0.586,4.395 -1.601,-0.388 -3.419,0.013 -4.576,1.186 -1.157,1.173 -1.51,3.127 -0.676,4.547 0.835,1.421 2.873,2.042 4.279,1.183 -1.539,0.871 -2.006,3.15 -1.008,4.61 0.997,1.46 3.195,1.883 4.715,0.979 1.52,-0.904 2.208,-2.947 1.642,-4.621 0.037,1.554 1.619,2.557 3.171,2.625 1.553,0.068 3.045,-1.21 3.217,-2.754 0.172,-1.545 -1.002,-3.12 -2.532,-3.395 1.58,-0.263 2.673,-2.131 2.127,-3.637 -0.546,-1.508 -2.414,-2.293 -3.796,-1.482 z"
   id="path18" />
		</g>
		<g
   id="g21">
			<path
   style="fill:#587342"
   d="m 406.632,273.235 c 1.039,0.057 2.764,0.541 3.73,1.018 0.965,0.476 1.17,1.031 1.354,2.289 -2.125,0.831 -4.051,-0.92 -5.084,-3.307 z"
   id="path19" />
			<g
   id="g20">
				<path
   style="fill:#97b776"
   d="m 412.214,276.834 c -0.033,0.036 0.012,0.169 -0.199,0.037 -0.218,-0.124 -0.661,-0.549 -1.84,-1.436 -1.091,-0.809 -2.077,-1.32 -2.031,-1.411 0.039,-0.086 1.093,0.327 2.233,1.118 0.917,0.64 1.373,1.074 1.614,1.323 0.239,0.254 0.256,0.334 0.223,0.369 z"
   id="path20" />
			</g>
		</g>
		<g
   id="g23">
			<path
   style="fill:#587342"
   d="m 426.419,269.77 c 0.216,-0.847 1.063,-1.433 1.931,-1.535 0.868,-0.102 1.74,0.204 2.494,0.646 -0.472,0.628 -1.22,1.142 -1.984,1.324 -0.763,0.183 -1.736,-0.088 -2.441,-0.435 z"
   id="path21" />
			<g
   id="g22">
				<path
   style="fill:#97b776"
   d="m 425.724,270.089 c -0.014,-0.032 -0.14,-0.029 0.058,-0.15 0.2,-0.111 0.715,-0.396 2.055,-0.747 1.235,-0.314 2.266,-0.391 2.272,-0.326 0.009,0.073 -1,0.231 -2.205,0.568 -0.973,0.275 -1.499,0.488 -1.799,0.586 -0.298,0.101 -0.366,0.101 -0.381,0.069 z"
   id="path22" />
			</g>
		</g>
		<g
   id="g25">
			<path
   style="fill:#587342"
   d="m 436.576,278.124 c 0.879,-1.555 2.775,-2.464 4.538,-2.177 -0.359,0.835 -1.013,1.673 -1.839,2.051 -0.827,0.378 -1.832,0.4 -2.699,0.126 z"
   id="path23" />
			<g
   id="g24">
				<path
   style="fill:#97b776"
   d="m 441.824,275.758 c 0.04,0.09 0.545,0.054 -2.089,1.13 -1.211,0.495 -2.194,0.895 -2.234,0.805 -0.04,-0.09 0.895,-0.596 2.089,-1.13 1.928,-0.863 2.194,-0.895 2.234,-0.805 z"
   id="path24" />
			</g>
		</g>
		<g
   id="g27">
			<path
   style="fill:#587342"
   d="m 443.472,264.533 c 0.314,-1.029 1.043,-1.925 1.988,-2.44 0.944,-0.515 2.092,-0.644 3.127,-0.351 -0.368,1.054 -0.949,1.964 -1.912,2.529 -0.963,0.566 -2.104,0.455 -3.203,0.262 z"
   id="path25" />
			<g
   id="g26">
				<path
   style="fill:#97b776"
   d="m 442.676,265.154 c -0.026,-0.042 -0.184,-0.021 0.032,-0.212 0.22,-0.184 0.801,-0.611 2.336,-1.382 1.414,-0.703 2.612,-1.152 2.649,-1.064 0.039,0.094 -1.104,0.647 -2.482,1.379 -2.211,1.211 -2.471,1.38 -2.535,1.279 z"
   id="path26" />
			</g>
		</g>
		<g
   id="g29">
			<path
   style="fill:#587342"
   d="m 458.056,254.374 c 0.829,-0.508 1.846,-0.7 2.803,-0.531 0.957,0.169 1.846,0.699 2.45,1.461 -0.872,0.481 -1.91,0.728 -2.891,0.559 -0.981,-0.169 -1.701,-0.745 -2.362,-1.489 z"
   id="path27" />
			<g
   id="g28">
				<path
   style="fill:#97b776"
   d="m 464.078,255.55 c -0.02,0.045 0.059,0.153 -0.171,0.101 -0.235,-0.04 -0.753,-0.299 -2.093,-0.675 -1.238,-0.335 -2.29,-0.376 -2.286,-0.479 -0.003,-0.093 1.078,-0.17 2.367,0.132 1.035,0.247 1.581,0.502 1.874,0.652 0.291,0.156 0.329,0.226 0.309,0.269 z"
   id="path28" />
			</g>
		</g>
		<g
   id="g31">
			<path
   style="fill:#587342"
   d="m 391.816,269.375 c 0.216,-0.847 1.063,-1.433 1.931,-1.535 0.868,-0.102 1.74,0.204 2.494,0.646 -0.472,0.628 -1.22,1.142 -1.984,1.324 -0.764,0.183 -1.737,-0.088 -2.441,-0.435 z"
   id="path29" />
			<g
   id="g30">
				<path
   style="fill:#97b776"
   d="m 391.12,269.694 c -0.014,-0.032 -0.14,-0.029 0.058,-0.15 0.2,-0.111 0.715,-0.396 2.055,-0.747 1.235,-0.314 2.266,-0.391 2.272,-0.326 0.009,0.073 -1,0.231 -2.205,0.568 -0.973,0.275 -1.499,0.488 -1.799,0.586 -0.298,0.102 -0.366,0.102 -0.381,0.069 z"
   id="path30" />
			</g>
		</g>
	</g>

</g>
</svg>
