<?xml version="1.0" standalone="no"?>
<!DOCTYPE svg PUBLIC "-//W3C//DTD SVG 20010904//EN"
 "http://www.w3.org/TR/2001/REC-SVG-20010904/DTD/svg10.dtd">
<svg version="1.0" xmlns="http://www.w3.org/2000/svg"
 width="273.000000pt" height="284.000000pt" viewBox="0 0 273.000000 284.000000"
 preserveAspectRatio="xMidYMid meet">

<g transform="translate(0.000000,284.000000) scale(0.100000,-0.100000)"
fill="#000000" stroke="none">
<path d="M40 1420 l0 -1380 1320 0 1320 0 0 1380 0 1380 -1320 0 -1320 0 0
-1380z m2470 0 l0 -1210 -1147 2 -1148 3 -3 1195 c-1 657 0 1201 3 1208 3 9
243 12 1150 12 l1145 0 0 -1210z"/>
<path d="M454 2484 c-89 -32 -154 -126 -154 -224 0 -170 178 -288 330 -219 96
43 144 117 144 219 0 168 -160 280 -320 224z"/>
<path d="M1007 2486 c-60 -22 -104 -62 -132 -121 -55 -111 -16 -244 89 -310
43 -26 59 -30 120 -30 60 0 79 4 119 28 204 120 135 426 -101 443 -34 3 -72
-1 -95 -10z m128 -110 c68 -29 95 -118 55 -184 -49 -80 -172 -75 -216 9 -37
72 3 162 81 182 34 8 45 7 80 -7z"/>
<path d="M1558 2486 c-56 -20 -85 -42 -117 -87 -84 -115 -46 -279 79 -349 36
-20 59 -25 116 -25 61 0 77 4 120 30 30 19 60 49 79 79 27 44 30 58 30 126 0
68 -3 82 -30 126 -57 92 -181 137 -277 100z m149 -123 c69 -45 69 -160 1 -205
-116 -76 -250 52 -178 170 36 60 116 75 177 35z"/>
<path d="M2090 2479 c-96 -43 -144 -117 -144 -219 0 -102 48 -176 144 -219
152 -69 330 49 330 219 0 170 -178 288 -330 219z m166 -115 c26 -17 54 -72 54
-104 0 -78 -87 -143 -161 -121 -113 34 -122 189 -15 237 35 16 87 10 122 -12z"/>
<path d="M454 1924 c-89 -32 -154 -126 -154 -224 0 -170 178 -288 330 -219 96
43 144 117 144 219 0 168 -160 280 -320 224z m130 -108 c50 -21 76 -60 76
-117 0 -58 -33 -103 -89 -120 -74 -22 -161 43 -161 121 0 52 45 110 95 123 34
8 45 7 79 -7z"/>
<path d="M1007 1926 c-60 -22 -104 -62 -132 -121 -55 -111 -16 -244 89 -310
43 -26 59 -30 120 -30 60 0 79 4 119 28 204 120 135 426 -101 443 -34 3 -72
-1 -95 -10z"/>
<path d="M1558 1926 c-56 -20 -85 -42 -117 -87 -84 -115 -46 -279 79 -349 36
-20 59 -25 116 -25 61 0 77 4 120 30 30 19 60 49 79 79 27 44 30 58 30 126 0
68 -3 82 -30 126 -57 92 -181 137 -277 100z m149 -123 c69 -45 69 -160 1 -205
-116 -76 -250 52 -178 170 36 60 116 75 177 35z"/>
<path d="M2090 1919 c-96 -43 -144 -117 -144 -219 0 -102 48 -176 144 -219
152 -69 330 49 330 219 0 170 -178 288 -330 219z m166 -115 c26 -17 54 -72 54
-104 0 -78 -87 -143 -161 -121 -113 34 -122 189 -15 237 35 16 87 10 122 -12z"/>
<path d="M454 1364 c-89 -32 -154 -126 -154 -224 0 -170 178 -288 330 -219 96
43 144 117 144 219 0 168 -160 280 -320 224z m130 -108 c50 -21 76 -60 76
-117 0 -58 -33 -103 -89 -120 -74 -22 -161 43 -161 121 0 52 45 110 95 123 34
8 45 7 79 -7z"/>
<path d="M1007 1366 c-60 -22 -104 -62 -132 -121 -55 -111 -16 -244 89 -310
43 -26 59 -30 120 -30 60 0 79 4 119 28 204 120 135 426 -101 443 -34 3 -72
-1 -95 -10z m128 -110 c68 -29 95 -118 55 -184 -49 -80 -172 -75 -216 9 -37
72 3 162 81 182 34 8 45 7 80 -7z"/>
<path d="M1558 1366 c-56 -20 -85 -42 -117 -87 -84 -115 -46 -279 79 -349 36
-20 59 -25 116 -25 61 0 77 4 120 30 30 19 60 49 79 79 27 44 30 58 30 126 0
68 -3 82 -30 126 -57 92 -181 137 -277 100z"/>
<path d="M2090 1359 c-96 -43 -144 -117 -144 -219 0 -102 48 -176 144 -219
152 -69 330 49 330 219 0 170 -178 288 -330 219z m166 -115 c26 -17 54 -72 54
-104 0 -78 -87 -143 -161 -121 -113 34 -122 189 -15 237 35 16 87 10 122 -12z"/>
<path d="M454 804 c-89 -32 -154 -126 -154 -224 0 -170 178 -288 330 -219 96
43 144 117 144 219 0 168 -160 280 -320 224z m130 -108 c50 -21 76 -60 76
-117 0 -58 -33 -103 -89 -120 -74 -22 -161 43 -161 121 0 52 45 110 95 123 34
8 45 7 79 -7z"/>
<path d="M1007 806 c-60 -22 -104 -62 -132 -121 -55 -111 -16 -244 89 -310 43
-26 59 -30 120 -30 60 0 79 4 119 28 204 120 135 426 -101 443 -34 3 -72 -1
-95 -10z m128 -110 c68 -29 95 -118 55 -184 -49 -80 -172 -75 -216 9 -37 72 3
162 81 182 34 8 45 7 80 -7z"/>
<path d="M1558 806 c-56 -20 -85 -42 -117 -87 -84 -115 -46 -279 79 -349 36
-20 59 -25 116 -25 61 0 77 4 120 30 30 19 60 49 79 79 27 44 30 58 30 126 0
68 -3 82 -30 126 -57 92 -181 137 -277 100z m149 -123 c69 -45 69 -160 1 -205
-116 -76 -250 52 -178 170 36 60 116 75 177 35z"/>
<path d="M2090 799 c-96 -43 -144 -117 -144 -219 0 -102 48 -176 144 -219 152
-69 330 49 330 219 0 170 -178 288 -330 219z"/>
</g>
</svg>
