<?xml version="1.0" encoding="UTF-8" standalone="no"?>
<!-- Generator: Adobe Illustrator 27.5.0, SVG Export Plug-In . SVG Version: 6.00 Build 0)  -->

<svg
   version="1.1"
   x="0px"
   y="0px"
   viewBox="0 0 106.46 106.46"
   xml:space="preserve"
   id="svg29"
   sodipodi:docname="december.svg"
   width="106.46"
   height="106.46"
   inkscape:version="1.3.2 (091e20e, 2023-11-25, custom)"
   xmlns:inkscape="http://www.inkscape.org/namespaces/inkscape"
   xmlns:sodipodi="http://sodipodi.sourceforge.net/DTD/sodipodi-0.dtd"
   xmlns="http://www.w3.org/2000/svg"
   xmlns:svg="http://www.w3.org/2000/svg"><defs
   id="defs29" /><sodipodi:namedview
   id="namedview29"
   pagecolor="#ffffff"
   bordercolor="#000000"
   borderopacity="0.25"
   inkscape:showpageshadow="2"
   inkscape:pageopacity="0.0"
   inkscape:pagecheckerboard="0"
   inkscape:deskcolor="#d1d1d1"
   inkscape:zoom="1.554"
   inkscape:cx="-120.01287"
   inkscape:cy="-87.837838"
   inkscape:window-width="1920"
   inkscape:window-height="991"
   inkscape:window-x="2391"
   inkscape:window-y="435"
   inkscape:window-maximized="1"
   inkscape:current-layer="svg29" />

<g
   id="OBJECTS"
   transform="translate(-370.278,-337.748)">
	<g
   id="g29">
		<path
   style="fill:#1c88d1"
   d="m 476.738,390.978 c 0,0.77 -0.02,1.53 -0.05,2.29 -0.11,2.73 -0.44,5.41 -0.95,8.02 -0.09,0.45 -0.18,0.89 -0.28,1.33 -3.1,13.9 -11.63,25.75 -23.26,33.2 -7.61,4.88 -16.55,7.88 -26.15,8.33 -0.84,0.04 -1.69,0.06 -2.54,0.06 -5.79,0 -11.37,-0.93 -16.59,-2.64 -11.64,-3.81 -21.51,-11.53 -28.06,-21.61 -1.68,-2.57 -3.14,-5.3 -4.36,-8.16 -2.71,-6.39 -4.22,-13.43 -4.22,-20.82 0,-29.4 23.83,-53.23 53.23,-53.23 29.4,0 53.23,23.83 53.23,53.23 z"
   id="path1" />
		<path
   style="fill:#8aa7bc"
   d="m 452.198,435.818 c -7.61,4.88 -16.55,7.88 -26.15,8.33 -0.84,0.04 -1.69,0.06 -2.54,0.06 -5.79,0 -11.37,-0.93 -16.59,-2.64 -11.64,-3.81 -21.51,-11.53 -28.06,-21.61 -1.68,-2.57 -3.14,-5.3 -4.36,-8.16 14.18,-3.88 29.51,-3.57 43.5,1 3.29,1.08 6.51,2.39 9.62,3.92 0.51,0.24 1.02,0.5 1.52,0.76 0.51,0.26 1.02,0.54 1.53,0.82 8.16,4.46 15.51,10.43 21.53,17.52 z"
   id="path2" />
		<g
   id="g7">
			<g
   id="g6">
				<path
   style="fill:#437b9b"
   d="m 461.17,406.27 c -2.32,0.39 -4.63,0.99 -6.91,1.71 -3.18,0.99 -6.31,2.22 -9.36,3.46 -5.77,2.35 -11.19,5.16 -16.65,8.18 2.14,-4.88 3.37,-10.1 4.89,-15.21 1.02,-3.44 2.2,-6.88 3.84,-10.06 0.79,-1.55 1.69,-3.03 2.74,-4.42 1.45,-1.92 3.49,-3.79 5.9,-3.64 1.93,0.11 3.53,1.51 4.88,2.91 0.92,0.96 1.79,1.95 2.62,2.97 1.23,1.51 2.37,3.08 3.41,4.72 1.87,2.95 3.43,6.1 4.64,9.38 z"
   id="path3" />
				<path
   style="fill:#437b9b"
   d="m 476.69,393.27 c -0.11,2.73 -0.44,5.41 -0.95,8.02 -0.09,0.45 -0.18,0.89 -0.28,1.33 -7.21,1.91 -14.4,3.92 -21.61,5.78 0.16,-0.04 0.3,-0.19 0.41,-0.42 0.52,-1.03 0.58,-3.63 0.67,-4.47 0.01,-0.06 0.01,-0.11 0.02,-0.15 0.32,-2.09 0.84,-4.31 1.58,-6.47 0.34,-1.02 0.73,-2.02 1.17,-2.99 0.09,-0.21 0.19,-0.42 0.29,-0.63 0.8,-1.68 1.74,-3.23 2.81,-4.56 2.42,-2.98 5.77,-3.54 9.01,-1.81 1.48,0.8 2.86,1.87 4.12,3.12 0.99,0.99 1.92,2.08 2.76,3.25 z"
   id="path4" />
				<path
   style="opacity:0.32;fill:#ffffff"
   d="m 453.12,392.17 c -0.03,0.25 -0.1,0.5 -0.22,0.73 -0.24,0.45 -0.73,0.8 -1.24,0.75 -1.43,-0.16 -1.34,-2.81 -2.76,-3.05 -0.79,-0.14 -1.46,0.67 -1.62,1.46 -0.17,0.79 -0.03,1.62 -0.21,2.41 -0.19,0.78 -0.9,1.57 -1.68,1.38 -0.79,-0.2 -1.05,-1.16 -1.12,-1.96 -0.07,-0.8 -0.17,-1.75 -0.87,-2.14 -0.61,-0.36 -1.43,-0.06 -1.93,0.44 -0.51,0.5 -0.81,1.17 -1.19,1.77 -0.38,0.59 -0.92,1.17 -1.63,1.27 -0.79,0.12 -1.35,-0.28 -1.67,-0.88 0.79,-1.55 1.69,-3.03 2.74,-4.42 1.45,-1.92 3.49,-3.79 5.9,-3.64 1.93,0.11 3.53,1.51 4.88,2.91 0.92,0.96 1.79,1.95 2.62,2.97 z"
   id="path5" />
				<path
   style="opacity:0.32;fill:#ffffff"
   d="m 473.93,390.02 c -0.24,0.96 -1.23,1.76 -2.21,1.54 -0.59,-0.13 -1.06,-0.58 -1.58,-0.89 -0.52,-0.32 -1.24,-0.49 -1.7,-0.1 -0.4,0.34 -0.42,0.94 -0.31,1.45 0.12,0.5 0.34,0.99 0.34,1.51 0,0.76 -0.55,1.49 -1.28,1.7 -0.73,0.22 -1.58,-0.1 -1.99,-0.74 -0.3,-0.48 -0.39,-1.11 -0.85,-1.43 -0.68,-0.47 -1.61,0.07 -2.1,0.73 -0.49,0.66 -0.84,1.49 -1.57,1.86 -1.19,0.61 -2.68,-0.45 -2.98,-1.75 0.09,-0.21 0.19,-0.42 0.29,-0.63 0.8,-1.68 1.74,-3.23 2.81,-4.56 2.42,-2.98 5.77,-3.54 9.01,-1.81 1.48,0.8 2.86,1.87 4.12,3.12 z"
   id="path6" />
			</g>
		</g>
		<path
   style="fill:#e0f0fc"
   d="m 475.738,401.288 c -0.09,0.45 -0.18,0.89 -0.28,1.33 -3.1,13.9 -11.63,25.75 -23.26,33.2 -7.61,4.88 -16.55,7.88 -26.15,8.33 -0.84,0.04 -1.69,0.06 -2.54,0.06 -5.79,0 -11.37,-0.93 -16.59,-2.64 1.91,-3.71 4.15,-7.27 6.67,-10.61 4.02,-5.34 8.75,-10.14 14.03,-14.24 0.8,-0.61 1.61,-1.21 2.43,-1.79 1.49,-1.06 3.01,-2.07 4.58,-3.01 6.3,-3.79 13.17,-6.62 20.3,-8.41 1.54,-0.39 3.1,-0.73 4.67,-1.01 h 0.01 c 5.31,-0.99 10.72,-1.4 16.13,-1.21 z"
   id="path7" />
		<path
   style="fill:#77383d"
   d="m 408.121,402.108 c 0.025,-3.942 2.093,-7.649 4.854,-10.462 2.761,-2.813 6.186,-4.866 9.57,-6.887 -5.736,0.966 -10.953,3.954 -14.343,8.681 -1.14,-6.846 1.302,-14.189 6.315,-18.989 -3.712,0.738 -6.799,3.54 -7.706,7.215 -2.354,-4.594 -6.655,-8.151 -11.609,-9.601 2.197,1.684 4.409,3.382 6.245,5.453 1.837,2.071 3.295,4.564 3.713,7.3 0.334,2.187 -0.006,4.413 -0.346,6.599 -0.592,3.808 -1.075,7.449 -1.667,11.257 -2.503,-3.492 -5.327,-6.754 -8.424,-9.732 -1.267,-1.218 -2.804,-2.469 -4.554,-2.302 2.265,1.086 4.109,2.915 5.56,4.966 1.411,1.995 2.48,4.206 3.526,6.415 -3.445,-0.334 -6.891,-0.668 -10.336,-1.002 1.792,0.835 3.663,1.484 5.581,1.962 2.689,0.67 5.287,0.656 6.839,3.283 1.842,3.119 1.859,7.099 1.526,10.597 -0.163,1.708 -0.479,3.412 -0.71,5.101 -0.145,1.063 -0.673,5.189 -1.923,5.602 -1.032,0.34 -1.573,2.322 -0.813,3.098 0.653,0.667 1.711,0.643 2.644,0.616 4.181,-0.118 8.385,0.654 12.251,2.249 -4.357,-6.774 -6.425,-14.992 -5.794,-23.021 0.188,-2.387 0.685,-4.915 2.36,-6.626 1.414,-1.444 3.439,-2.073 5.375,-2.649 1.889,-0.563 3.777,-1.125 5.666,-1.688 -4.797,-1.474 -9.763,-0.418 -13.8,2.565 z"
   id="path8" />
		<path
   style="fill:#a1c0e2"
   d="m 426.048,444.148 c -0.84,0.04 -1.69,0.06 -2.54,0.06 -5.79,0 -11.37,-0.93 -16.59,-2.64 -11.64,-3.81 -21.51,-11.53 -28.06,-21.61 9.45,-0.31 18.99,1.86 27.35,6.28 2.58,1.36 5.05,2.94 7.38,4.72 4.85,3.66 9.08,8.14 12.46,13.19 z"
   id="path9" />
		<path
   style="fill:#e0f0fc"
   d="m 399.291,419.113 c -1.441,0.803 -3.186,-0.78 -4.809,-0.479 -1.543,0.286 -2.443,2.172 -4.003,2.342 -0.816,0.089 -1.596,-0.327 -2.409,-0.445 -0.812,-0.118 -1.858,0.299 -1.851,1.12 0.007,0.791 0.938,1.19 1.703,1.391 1.228,0.321 2.456,0.642 3.684,0.963 1.564,0.409 3.134,0.819 4.74,0.999 1.435,0.161 2.884,0.138 4.328,0.114 0.851,-0.014 1.767,-0.05 2.44,-0.57 1.012,-0.783 1.038,-2.273 0.971,-3.551 -0.072,-1.376 0.315,-5.276 -1.564,-5.817 -1.904,-0.55 -1.901,3.194 -3.23,3.933 z"
   id="path10" />
		<path
   style="fill:#ffffff"
   d="m 445.6,369.94 c -1.14,1.3 -2.81,2.12 -4.68,2.12 -3.45,0 -6.24,-2.79 -6.24,-6.24 0,-3.45 2.79,-6.25 6.24,-6.25 0.84,0 1.65,0.17 2.38,0.47 -2.39,0.42 -4.21,2.5 -4.21,5.02 0,2.81 2.28,5.09 5.09,5.09 0.49,0 0.97,-0.07 1.42,-0.21 z"
   id="path11" />
		<path
   style="fill:#e0f0fc"
   d="m 387.598,399.336 c -0.401,0.582 -0.221,1.482 0.374,1.864 0.972,0.624 2.413,-0.167 3.362,0.493 0.394,0.274 0.6,0.738 0.861,1.141 0.261,0.403 0.664,0.793 1.143,0.757 0.64,-0.048 1.089,-0.834 1.727,-0.76 0.621,0.072 0.825,0.846 1.171,1.366 0.47,0.707 1.447,1.029 2.246,0.739 0.798,-0.29 1.341,-1.163 1.248,-2.008 -0.087,-0.792 -0.669,-1.461 -1.359,-1.859 -0.69,-0.398 -1.483,-0.571 -2.263,-0.738 -1.678,-0.36 -3.356,-0.719 -5.034,-1.079 -0.966,-0.209 -2.759,-0.955 -3.476,0.084 z"
   id="path12" />
		<path
   style="fill:#e0f0fc"
   d="m 389.325,388.715 c -1.04,0.581 -1.596,2.101 -0.833,3.016 0.683,0.82 1.926,0.753 2.972,0.962 1.388,0.278 2.6,1.152 3.531,2.218 0.931,1.066 1.612,2.323 2.273,3.575 0.368,0.698 0.751,1.421 1.375,1.904 0.624,0.483 1.563,0.657 2.196,0.184 0.949,-0.709 0.605,-2.198 0.086,-3.263 -1.683,-3.452 -6.742,-11.308 -11.6,-8.596 z"
   id="path13" />
		<path
   style="fill:#e0f0fc"
   d="m 406.761,396.047 c 0.761,0.282 1.636,0.061 2.318,-0.381 0.681,-0.442 1.206,-1.082 1.72,-1.711 0.683,-0.836 1.365,-1.672 2.048,-2.508 0.764,-0.936 1.528,-1.872 2.292,-2.808 0.544,-0.667 1.115,-1.355 1.894,-1.723 0.779,-0.367 1.828,-0.313 2.367,0.358 0.435,0.542 0.466,1.37 1.012,1.801 0.472,0.372 1.188,0.289 1.68,-0.055 0.492,-0.344 0.797,-0.895 1.027,-1.45 0.298,-0.719 0.499,-1.5 0.409,-2.273 -0.09,-0.773 -0.508,-1.537 -1.199,-1.894 -1.035,-0.536 -2.285,-0.049 -3.333,0.463 -3.254,1.591 -6.389,3.425 -9.37,5.482 -2.413,1.665 -3.3,3.645 -2.865,6.699 z"
   id="path14" />
		<path
   style="fill:#e0f0fc"
   d="m 407.125,405.913 c 0.561,0.093 0.988,-0.491 1.194,-1.02 0.205,-0.53 0.401,-1.157 0.93,-1.364 0.645,-0.253 1.359,0.294 2.042,0.173 0.714,-0.127 1.088,-0.894 1.406,-1.545 0.318,-0.651 0.867,-1.37 1.584,-1.265 0.754,0.111 1.049,1.022 1.197,1.77 0.148,0.748 0.477,1.657 1.236,1.727 0.514,0.047 0.965,-0.346 1.258,-0.771 0.293,-0.425 0.507,-0.917 0.899,-1.253 1.013,-0.867 2.855,-0.419 3.6,-1.525 0.536,-0.795 0.065,-1.953 -0.742,-2.472 -0.807,-0.518 -1.821,-0.561 -2.78,-0.553 -2.041,0.019 -4.081,0.199 -6.093,0.539 -1.556,0.263 -3.882,0.44 -5.168,1.442 -0.957,0.747 -2.062,5.869 -0.563,6.117 z"
   id="path15" />
		<path
   style="fill:#e0f0fc"
   d="m 405.008,381.721 c 0.415,0.631 1.032,1.348 1.766,1.168 0.503,-0.123 0.811,-0.642 0.93,-1.147 0.119,-0.504 0.109,-1.036 0.267,-1.529 0.514,-1.605 2.529,-2.212 3.407,-3.651 0.255,-0.418 0.407,-0.92 0.321,-1.402 -0.086,-0.482 -0.445,-0.931 -0.925,-1.031 -0.641,-0.133 -1.242,0.351 -1.652,0.861 -0.41,0.51 -0.779,1.109 -1.384,1.359 -1.784,0.735 -4.219,-2.623 -5.857,-0.91 -1.166,1.218 2.398,5.174 3.127,6.282 z"
   id="path16" />
		<path
   style="fill:#e0f0fc"
   d="m 406.717,417.667 c -0.219,1.116 -0.417,2.358 0.189,3.32 0.496,0.788 1.486,1.297 1.635,2.216 0.155,0.954 -0.696,1.959 -0.276,2.83 0.339,0.704 1.354,0.905 1.636,1.634 0.192,0.498 -0.033,1.052 -0.022,1.586 0.02,0.956 0.784,1.72 1.548,2.296 1.48,1.116 3.171,1.964 4.498,3.258 1.964,1.917 3.047,4.731 5.386,6.165 1.065,0.653 2.708,0.826 3.355,-0.243 0.43,-0.71 0.195,-1.635 -0.186,-2.373 -1.02,-1.975 -3.012,-3.529 -3.263,-5.738 -0.168,-1.478 0.502,-3.007 0.09,-4.437 -0.292,-1.013 -1.147,-1.843 -2.168,-2.104 -0.718,-0.184 -1.512,-0.109 -2.162,-0.464 -1.236,-0.676 -1.26,-2.404 -1.195,-3.812 0.016,-0.34 0.024,-0.696 -0.124,-1.003 -0.131,-0.27 -0.369,-0.472 -0.611,-0.649 -0.903,-0.659 -1.974,-1.111 -2.798,-1.876 -0.855,-0.794 -0.812,-1.796 -1.462,-2.66 -1.679,-2.227 -3.724,0.291 -4.07,2.054 z"
   id="path17" />
		<g
   id="g28">
			<g
   id="g27">
				<path
   style="fill:#77383d"
   d="m 440.491,412.108 c -1.057,-1.228 -2.156,-2.49 -3.615,-3.195 -1.011,-0.489 -2.164,-0.682 -3.279,-0.55 0.471,-0.248 0.943,-0.496 1.414,-0.744 -2.025,-0.357 -4.051,-0.714 -6.076,-1.071 1.216,-0.184 2.432,-0.368 3.648,-0.552 -0.214,-1.279 -0.427,-2.558 -0.641,-3.837 0.44,0.977 0.881,1.955 1.321,2.932 0.118,0.263 0.243,0.534 0.458,0.726 0.164,0.146 0.371,0.236 0.572,0.325 2.673,1.183 5.177,2.746 7.415,4.626 -0.515,0.48 -0.703,0.862 -1.217,1.34 z"
   id="path18" />
				<path
   style="fill:#eef9ff"
   d="m 451.34,417.24 c -0.03,0.42 -0.01,1.94 -0.37,2.22 -2.2,1.76 -4.51,1.65 -7.32,1.76 -2.82,0.12 -5.45,-0.59 -7.78,-2.17 -0.04,-0.15 -0.07,-0.29 -0.1,-0.44 -0.77,-3.65 0.59,-7.99 3.37,-10.44 -1.36,-1.88 -1.47,-4.58 -0.27,-6.57 1.19,-1.98 3.63,-3.14 5.93,-2.82 1.21,0.17 2.35,0.76 3.24,1.6 0.79,0.74 1.4,1.7 1.68,2.76 0.6,2.24 0.01,3.71 -1.82,5.14 2.03,1.13 3.14,4.35 3.41,6.5 0.1,0.82 0.08,1.64 0.03,2.46 z"
   id="path19" />
				<g
   id="g26">
					<path
   style="fill:#353b3d"
   d="m 439.823,403.178 c -0.085,0.177 -0.092,0.397 0.01,0.565 0.102,0.168 0.323,0.264 0.507,0.196 0.177,-0.066 0.278,-0.252 0.329,-0.433 0.051,-0.182 0.065,-0.388 -0.027,-0.553 -0.241,-0.435 -0.675,-0.079 -0.819,0.225 z"
   id="path20" />
					<path
   style="fill:#353b3d"
   d="m 443.611,404.045 c 0.42,-0.19 0.462,-1.067 -0.128,-0.861 -0.513,0.18 -0.45,1.122 0.128,0.861 z"
   id="path21" />
					<path
   style="fill:#77383d"
   d="m 441.807,405.34 c -0.198,-0.208 -0.508,-0.272 -0.793,-0.249 -0.286,0.023 -0.559,0.121 -0.837,0.193 -0.313,0.081 -0.634,0.128 -0.955,0.175 -0.713,0.105 -1.427,0.209 -2.14,0.314 0.369,-0.224 0.738,-0.447 1.108,-0.671 -0.881,-0.505 -1.762,-1.011 -2.642,-1.516 1.069,0.386 2.138,0.772 3.208,1.158 0.259,0.094 0.538,0.188 0.804,0.116 0.193,-0.053 0.35,-0.186 0.52,-0.292 0.507,-0.318 1.16,-0.39 1.724,-0.191 0.218,0.281 0.229,0.685 0.003,0.963 z"
   id="path22" />
					<g
   id="g25">
						<path
   style="fill:#353b3d"
   d="m 440.446,410.093 c 0.065,0.098 0.177,0.159 0.293,0.175 0.116,0.015 0.236,-0.012 0.34,-0.065 0.133,-0.067 0.243,-0.171 0.341,-0.283 0.143,-0.163 0.271,-0.383 0.2,-0.588 -0.238,-0.688 -1.554,0.185 -1.174,0.761 z"
   id="path23" />
						<path
   style="fill:#353b3d"
   d="m 440.035,412.712 c -0.1,0.187 -0.092,0.45 0.076,0.579 0.134,0.103 0.329,0.091 0.482,0.019 0.206,-0.097 0.365,-0.308 0.367,-0.536 0.002,-0.201 -0.168,-0.471 -0.389,-0.485 -0.209,-0.012 -0.446,0.256 -0.536,0.423 z"
   id="path24" />
						<path
   style="fill:#353b3d"
   d="m 439.504,416.1 c -0.005,0.214 0.18,0.427 0.394,0.415 0.134,-0.008 0.252,-0.094 0.339,-0.197 0.082,-0.096 0.145,-0.212 0.159,-0.337 0.081,-0.669 -0.88,-0.448 -0.892,0.119 z"
   id="path25" />
					</g>
				</g>
				<path
   style="opacity:0.26;fill:#437b9b"
   d="m 451.34,417.24 c -0.03,0.42 -0.01,1.94 -0.37,2.22 -2.2,1.76 -4.51,1.65 -7.32,1.76 -2.82,0.12 -5.45,-0.59 -7.78,-2.17 -0.04,-0.15 -0.07,-0.29 -0.1,-0.44 1.99,0.72 4.08,1.21 6.18,1.47 1.4,0.17 2.83,0.24 4.19,-0.11 1.36,-0.35 3.19,-1.15 3.46,-2.53 0.38,-1.95 0,-4.05 -1.06,-5.75 -1.05,-1.69 -2.55,-2.89 -4.48,-3.41 1.76,-0.65 3.21,-2.1 3.86,-3.86 0.47,-1.29 0.5,-2.73 0.12,-4.04 0.79,0.74 1.4,1.7 1.68,2.76 0.6,2.24 0.01,3.71 -1.82,5.14 2.03,1.13 3.14,4.35 3.41,6.5 0.1,0.82 0.08,1.64 0.03,2.46 z"
   id="path26" />
				<path
   style="fill:#77383d"
   d="m 447.479,411.26 c 1.341,-0.316 2.416,-1.439 3.783,-1.609 0.804,-0.1 1.605,0.145 2.408,0.249 0.803,0.104 1.716,0.028 2.267,-0.565 -1.253,-0.102 -2.507,-0.204 -3.76,-0.306 0.996,-0.913 1.993,-1.826 2.989,-2.74 -1.163,0.6 -2.327,1.2 -3.49,1.8 -1.314,0.677 -2.628,1.355 -3.942,2.033 -0.409,0.211 -0.499,0.733 -0.516,1.192 -0.024,-0.028 0.286,-0.026 0.261,-0.054 z"
   id="path27" />
			</g>
		</g>
	</g>
	
</g>
</svg>
