<?xml version="1.0" encoding="UTF-8" standalone="no"?>
<!-- Generator: Adobe Illustrator 27.5.0, SVG Export Plug-In . SVG Version: 6.00 Build 0)  -->

<svg
   version="1.1"
   x="0px"
   y="0px"
   viewBox="0 0 106.46 106.46"
   xml:space="preserve"
   id="svg20"
   sodipodi:docname="february.svg"
   width="106.46"
   height="106.46"
   inkscape:version="1.3.2 (091e20e, 2023-11-25, custom)"
   xmlns:inkscape="http://www.inkscape.org/namespaces/inkscape"
   xmlns:sodipodi="http://sodipodi.sourceforge.net/DTD/sodipodi-0.dtd"
   xmlns="http://www.w3.org/2000/svg"
   xmlns:svg="http://www.w3.org/2000/svg"><defs
   id="defs20" /><sodipodi:namedview
   id="namedview20"
   pagecolor="#ffffff"
   bordercolor="#000000"
   borderopacity="0.25"
   inkscape:showpageshadow="2"
   inkscape:pageopacity="0.0"
   inkscape:pagecheckerboard="0"
   inkscape:deskcolor="#d1d1d1"
   inkscape:zoom="1.554"
   inkscape:cx="111.00386"
   inkscape:cy="229.40798"
   inkscape:window-width="1920"
   inkscape:window-height="991"
   inkscape:window-x="2391"
   inkscape:window-y="435"
   inkscape:window-maximized="1"
   inkscape:current-layer="svg20" />

<g
   id="OBJECTS"
   transform="translate(-138.934,-20.86)">
	
	<g
   id="g20">
		<path
   style="fill:#39b8ff"
   d="m 245.394,74.09 c 0,0.77 -0.02,1.53 -0.05,2.29 -0.11,2.73 -0.44,5.41 -0.95,8.02 -0.09,0.45 -0.18,0.89 -0.28,1.33 -3.1,13.9 -11.63,25.75 -23.26,33.2 -7.61,4.88 -16.55,7.88 -26.15,8.33 -0.84,0.04 -1.69,0.06 -2.54,0.06 -5.79,0 -11.37,-0.93 -16.59,-2.64 -11.64,-3.81 -21.51,-11.53 -28.06,-21.61 -1.68,-2.57 -3.14,-5.3 -4.36,-8.16 -2.71,-6.39 -4.22,-13.43 -4.22,-20.82 0,-29.4 23.83,-53.23 53.23,-53.23 29.4,0 53.23,23.83 53.23,53.23 z"
   id="path1" />
		<path
   style="fill:#d4f9ff"
   d="m 245.394,74.09 c 0,0.77 -0.02,1.53 -0.05,2.29 -0.11,2.73 -0.44,5.41 -0.95,8.02 -0.09,0.45 -0.18,0.89 -0.28,1.33 -3.1,13.9 -11.63,25.75 -23.26,33.2 -7.61,4.88 -16.55,7.88 -26.15,8.33 -0.84,0.04 -1.69,0.06 -2.54,0.06 -5.79,0 -11.37,-0.93 -16.59,-2.64 -11.64,-3.81 -21.51,-11.53 -28.06,-21.61 -1.68,-2.57 -3.14,-5.3 -4.36,-8.16 -2.71,-6.39 -4.22,-13.43 -4.22,-20.82 0,-29.4 23.83,-53.23 53.23,-53.23 29.4,0 53.23,23.83 53.23,53.23 z"
   id="path2" />
		<path
   style="fill:#a0de9d"
   d="m 220.854,118.93 c -7.61,4.88 -16.55,7.88 -26.15,8.33 -0.84,0.04 -1.69,0.06 -2.54,0.06 -5.79,0 -11.37,-0.93 -16.59,-2.64 -11.64,-3.81 -21.51,-11.53 -28.06,-21.61 -1.68,-2.57 -3.14,-5.3 -4.36,-8.16 14.18,-3.88 29.51,-3.57 43.5,1 3.29,1.08 6.51,2.39 9.62,3.92 0.51,0.24 1.02,0.5 1.52,0.76 0.51,0.26 1.02,0.54 1.53,0.82 8.16,4.46 15.51,10.43 21.53,17.52 z"
   id="path3" />
		<g
   id="g6">
			<g
   id="g5">
				<path
   style="fill:#98b799"
   d="m 229.83,89.38 c -5.57,0.94 -11.04,3.04 -16.27,5.17 -5.78,2.35 -11.2,5.16 -16.65,8.19 2.14,-4.89 3.37,-10.11 4.89,-15.22 1.12,-3.75 2.41,-7.49 4.3,-10.9 0.67,-1.24 1.43,-2.44 2.28,-3.57 1.45,-1.93 3.49,-3.8 5.89,-3.65 1.94,0.12 3.54,1.51 4.88,2.91 0.08,0.08 0.16,0.16 0.24,0.25 4.56,4.83 8.14,10.59 10.44,16.82 z"
   id="path4" />
				<path
   style="fill:#98b799"
   d="m 245.34,76.38 c -0.11,2.73 -0.44,5.41 -0.95,8.02 -0.09,0.45 -0.18,0.89 -0.28,1.33 -7.21,1.91 -14.4,3.92 -21.61,5.78 0.16,-0.04 0.3,-0.19 0.41,-0.42 0.52,-1.03 0.58,-3.63 0.67,-4.47 0.01,-0.06 0.01,-0.11 0.02,-0.15 0.32,-2.09 0.84,-4.31 1.58,-6.47 0.41,-1.24 0.9,-2.46 1.46,-3.62 0.24,-0.51 0.5,-1.02 0.78,-1.5 0.61,-1.11 1.29,-2.14 2.03,-3.06 2.42,-2.98 5.77,-3.54 9.01,-1.81 1.03,0.55 2.01,1.24 2.93,2.03 1.46,1.23 2.78,2.72 3.95,4.34 z"
   id="path5" />
			</g>
		</g>
		<path
   style="fill:#82c67d"
   d="m 244.394,84.4 c -0.09,0.45 -0.18,0.89 -0.28,1.33 -3.1,13.9 -11.63,25.75 -23.26,33.2 -7.61,4.88 -16.55,7.88 -26.15,8.33 -0.84,0.04 -1.69,0.06 -2.54,0.06 -5.79,0 -11.37,-0.93 -16.59,-2.64 1.91,-3.71 4.15,-7.27 6.67,-10.61 4.02,-5.34 8.75,-10.14 14.03,-14.24 0.8,-0.61 1.61,-1.21 2.43,-1.79 1.49,-1.06 3.01,-2.07 4.58,-3.01 6.3,-3.79 13.17,-6.62 20.3,-8.41 1.54,-0.39 3.1,-0.73 4.67,-1.01 h 0.01 c 5.31,-0.99 10.72,-1.4 16.13,-1.21 z"
   id="path6" />
		<path
   style="fill:#ffffff"
   d="m 209.23,124.52 c -4.59,1.56 -9.47,2.5 -14.53,2.74 -0.84,0.04 -1.69,0.06 -2.54,0.06 -5.79,0 -11.37,-0.93 -16.59,-2.64 1.91,-3.71 4.15,-7.27 6.67,-10.61 3.83,-5.09 8.31,-9.69 13.29,-13.65 0.63,-0.1 1.25,-0.04 1.76,0.32 0.61,0.42 0.92,1.24 0.74,1.96 -0.16,0.66 -0.67,1.17 -1.13,1.68 -1.45,1.61 -2.61,3.5 -3.37,5.54 -0.27,0.72 -0.48,1.57 -0.06,2.21 0.45,0.67 1.4,0.78 2.2,0.7 1.4,-0.16 2.73,-0.69 4.11,-1 1.37,-0.32 2.89,-0.39 4.11,0.32 0.57,0.33 1.05,0.85 1.21,1.49 0.26,1.01 -0.36,2.05 -1.11,2.77 -0.75,0.73 -1.66,1.3 -2.28,2.14 -0.62,0.84 -0.86,2.11 -0.15,2.88 0.4,0.43 0.99,0.61 1.56,0.75 1.85,0.46 3.78,0.77 5.39,1.79 0.25,0.16 0.5,0.34 0.72,0.55 z"
   id="path7" />
		<path
   style="fill:#ffffff"
   d="m 212.307,96.057 c -0.317,0.291 -0.648,0.634 -0.668,1.064 -0.041,0.868 1.087,1.223 1.953,1.299 0.971,0.085 1.943,0.171 2.914,0.256 0.324,0.029 0.668,0.065 0.922,0.266 0.563,0.446 0.344,1.333 0.074,1.999 -0.798,1.969 -1.597,3.938 -2.395,5.906 -0.55,1.356 -1.047,3.065 -0.064,4.149 1.052,1.161 2.941,0.688 4.404,0.127 2.424,-0.93 4.847,-1.86 7.271,-2.791 2.195,-0.842 4.408,-1.694 6.374,-2.984 1.965,-1.29 3.689,-3.07 4.49,-5.28 0.122,-0.336 0.216,-0.73 0.028,-1.034 -0.105,-0.169 -0.281,-0.28 -0.46,-0.366 -0.889,-0.429 -1.922,-0.382 -2.897,-0.538 -0.975,-0.155 -2.035,-0.649 -2.293,-1.601 -0.268,-0.99 0.452,-1.965 1.205,-2.662 0.753,-0.697 1.639,-1.387 1.849,-2.391 0.271,-1.297 -0.78,-2.575 -2.024,-3.031 -1.835,-0.672 -3.714,-0.054 -5.543,0.247 -1.883,0.31 -3.735,0.807 -5.523,1.476 -3.543,1.326 -6.834,3.328 -9.617,5.889 z"
   id="path8" />
		<path
   style="fill:#ffffff"
   d="m 206.913,107.02 c -0.093,0.497 -0.036,1.069 0.332,1.416 0.482,0.455 1.255,0.337 1.886,0.133 1.237,-0.4 7.139,-3.626 3.822,-4.971 -2.206,-0.895 -5.626,1.217 -6.04,3.422 z"
   id="path9" />
		<path
   style="fill:#5b3f18"
   d="m 176.777,85.22 c 0.025,-3.942 2.093,-7.649 4.854,-10.462 2.761,-2.813 6.186,-4.866 9.57,-6.887 -5.736,0.966 -10.952,3.954 -14.343,8.681 -1.14,-6.846 1.302,-14.189 6.316,-18.989 -3.712,0.738 -6.799,3.54 -7.706,7.214 -2.354,-4.594 -6.655,-8.151 -11.609,-9.601 2.197,1.684 4.409,3.382 6.245,5.453 1.837,2.071 3.295,4.564 3.713,7.3 0.334,2.187 -0.006,4.413 -0.345,6.599 -0.592,3.808 -1.075,7.449 -1.667,11.257 -2.503,-3.492 -5.327,-6.754 -8.424,-9.732 -1.267,-1.218 -2.804,-2.469 -4.554,-2.302 2.265,1.086 4.109,2.915 5.561,4.966 1.411,1.995 2.48,4.206 3.526,6.415 -3.445,-0.334 -6.891,-0.668 -10.336,-1.002 1.792,0.835 3.663,1.484 5.581,1.962 2.689,0.67 5.287,0.656 6.839,3.283 1.842,3.119 1.859,7.099 1.526,10.597 -0.163,1.708 -0.479,3.412 -0.71,5.101 -0.145,1.063 -0.673,5.189 -1.923,5.602 -1.032,0.34 -1.573,2.322 -0.813,3.098 0.653,0.667 1.711,0.643 2.644,0.616 4.181,-0.118 8.385,0.654 12.251,2.249 -4.357,-6.774 -6.425,-14.992 -5.794,-23.021 0.188,-2.387 0.685,-4.915 2.36,-6.626 1.414,-1.443 3.439,-2.072 5.375,-2.649 1.888,-0.563 3.777,-1.125 5.666,-1.688 -4.799,-1.473 -9.766,-0.417 -13.803,2.566 z"
   id="path10" />
		<path
   style="fill:#7cad6c"
   d="m 194.704,127.26 c -0.84,0.04 -1.69,0.06 -2.54,0.06 -5.79,0 -11.37,-0.93 -16.59,-2.64 -11.64,-3.81 -21.51,-11.53 -28.06,-21.61 9.45,-0.31 18.99,1.86 27.35,6.28 2.58,1.36 5.05,2.94 7.38,4.72 4.85,3.66 9.08,8.14 12.46,13.19 z"
   id="path11" />
		<circle
   style="fill:#ffffff"
   cx="209.57899"
   cy="48.931"
   r="6.2449999"
   id="circle11" />
		<path
   style="fill:#ffffff"
   d="m 169.696,110.712 c 0.258,0.287 0.516,0.613 0.542,0.998 0.051,0.758 -0.84,1.278 -1.597,1.213 -0.757,-0.065 -1.425,-0.498 -2.135,-0.768 -0.632,-0.241 -1.313,-0.354 -1.989,-0.332 -0.134,0.004 -0.274,0.016 -0.389,0.084 -0.561,0.334 0.146,1.214 -0.043,1.839 -0.111,0.367 -0.536,0.563 -0.918,0.538 -0.382,-0.025 -0.731,-0.217 -1.065,-0.405 -0.817,-0.46 -1.633,-0.923 -2.447,-1.388 -2.303,-1.315 -4.813,-2.933 -5.38,-5.524 -0.063,-0.29 -0.098,-0.604 0.021,-0.876 0.25,-0.574 1.009,-0.683 1.635,-0.66 1.418,0.052 2.621,0.518 3.978,0.81 1.126,0.242 2.287,0.227 3.422,0.545 2.431,0.68 4.674,2.047 6.365,3.926 z"
   id="path12" />
		<path
   style="fill:#ffffff"
   d="m 180.058,108.18 c 0.251,0.527 0.341,1.159 0.768,1.556 0.273,0.254 0.645,0.37 0.956,0.576 1.059,0.701 1.16,2.185 1.72,3.325 0.338,0.688 0.861,1.267 1.25,1.929 0.388,0.661 0.638,1.477 0.362,2.192 -0.053,0.138 -0.137,0.28 -0.275,0.33 -0.124,0.045 -0.261,0.008 -0.385,-0.035 -1.601,-0.558 -2.707,-2.003 -4.128,-2.928 -1.136,-0.74 -2.457,-1.135 -3.694,-1.69 -1.9,-0.853 -3.603,-2.084 -5.29,-3.305 -0.372,-0.269 -0.786,-0.626 -0.743,-1.083 0.061,-0.641 0.931,-0.827 1.558,-0.679 1.799,0.424 2.321,-0.098 3.716,-1.027 1.414,-0.943 3.376,-0.86 4.185,0.839 z"
   id="path13" />
		<path
   style="fill:#ffffff"
   d="m 159.459,82.91 c 0.658,0.387 1.376,0.671 2.12,0.838 0.346,0.078 0.784,0.224 0.795,0.578 0.005,0.153 -0.082,0.298 -0.081,0.452 0.003,0.364 0.446,0.532 0.804,0.603 0.759,0.15 1.517,0.3 2.276,0.45 1.169,0.231 2.354,0.463 3.544,0.391 0.245,-0.015 0.5,-0.046 0.707,-0.178 0.494,-0.314 0.497,-1.081 0.163,-1.562 -0.77,-1.106 -3.244,-2.082 -4.54,-2.538 -1.95,-0.687 -4.206,-0.453 -5.788,0.966 z"
   id="path14" />
		<path
   style="fill:#ffffff"
   d="m 169.289,82.677 c 0.673,1.621 1.67,3.33 3.355,3.823 0.266,-0.608 0.369,-1.273 0.469,-1.929 0.171,-1.122 0.342,-2.244 0.514,-3.366 0.052,-0.342 0.104,-0.693 0.028,-1.03 -0.076,-0.337 -0.31,-0.662 -0.646,-0.741 -0.206,-0.048 -0.423,0 -0.618,0.08 -0.499,0.205 -0.904,0.629 -1.086,1.137 -0.078,0.219 -0.141,0.481 -0.354,0.574 -0.099,0.043 -0.213,0.038 -0.318,0.014 -0.577,-0.131 -0.881,-0.741 -1.193,-1.246 -0.382,-0.617 -1.928,-2.257 -1.83,-0.649 0.024,0.396 0.649,0.959 0.836,1.3 0.35,0.646 0.561,1.355 0.843,2.033 z"
   id="path15" />
		<path
   style="fill:#ffffff"
   d="m 181.807,69.773 c 0.548,-0.221 1.272,-0.403 1.649,0.051 0.105,0.126 0.179,0.299 0.336,0.349 0.15,0.047 0.306,-0.044 0.438,-0.13 0.667,-0.438 1.371,-0.879 2.164,-0.966 0.143,-0.016 0.294,-0.018 0.424,0.042 0.337,0.156 0.363,0.663 0.143,0.962 -0.22,0.299 -0.59,0.44 -0.939,0.567 -1.553,0.565 -3.139,1.177 -4.356,2.293 -0.632,0.579 -1.168,1.297 -1.942,1.666 -0.774,0.369 -1.909,0.194 -2.192,-0.615 -0.209,-0.599 0.136,-1.252 0.566,-1.718 1.21,-1.314 2.026,-1.822 3.709,-2.501 z"
   id="path16" />
		<path
   style="fill:#ffffff"
   d="m 177.796,83.083 c 0.753,-0.604 1.714,-0.945 2.679,-0.951 0.121,-0.001 0.247,0.005 0.355,0.06 0.232,0.12 0.298,0.44 0.212,0.687 -0.087,0.247 -0.285,0.435 -0.48,0.609 -1.152,1.023 -2.438,1.895 -3.816,2.584 -0.382,0.191 -0.825,0.372 -1.225,0.22 -0.082,-0.031 -0.162,-0.078 -0.214,-0.149 -0.068,-0.091 -0.084,-0.21 -0.089,-0.324 -0.031,-0.697 0.278,-1.402 0.814,-1.851 0.526,-0.441 1.295,-0.706 1.482,-1.366"
   id="path17" />
		<path
   style="fill:#ffffff"
   d="m 169.244,55.783 c -0.591,-0.393 -1.208,-0.789 -1.907,-0.915 -0.699,-0.126 -1.507,0.083 -1.888,0.683 0.982,1.157 2.567,1.593 3.749,2.543 0.916,0.735 1.556,1.75 2.18,2.745 0.961,1.535 1.923,3.069 2.884,4.604 0.339,0.541 0.903,1.164 1.494,0.921 0.427,-0.175 0.562,-0.703 0.64,-1.158 0.282,-1.629 0.641,-3.393 1.897,-4.468 0.561,-0.48 1.292,-0.814 1.626,-1.472 0.243,-0.479 0.227,-1.042 0.206,-1.579 -0.009,-0.228 -0.039,-0.492 -0.232,-0.612 -0.134,-0.083 -0.306,-0.066 -0.46,-0.032 -1.836,0.409 -3.1,3.484 -5.158,2.979 -0.822,-0.202 -1.273,-1.135 -1.806,-1.71 -0.929,-1.003 -2.09,-1.775 -3.225,-2.529 z"
   id="path18" />
		<path
   style="fill:#ffffff"
   d="m 216.48,73.47 c -1.01,1.13 0.18,3.34 -1.02,4.26 -0.81,0.61 -2.08,-0.08 -2.34,-1.05 -0.15,-0.59 -0.06,-1.25 -0.4,-1.75 -0.45,-0.66 -1.47,-0.68 -2.18,-0.32 -0.72,0.37 -1.24,1.01 -1.86,1.52 -0.68,0.57 -1.95,1.01 -2.58,0.49 0.67,-1.24 1.43,-2.44 2.28,-3.57 1.45,-1.93 3.49,-3.8 5.89,-3.65 1.94,0.12 3.54,1.51 4.88,2.91 0.08,0.08 0.16,0.16 0.24,0.25 -0.95,0.37 -2.23,0.14 -2.91,0.91 z"
   id="path19" />
		<path
   style="fill:#ffffff"
   d="m 241.39,72.04 c -0.11,0.02 -0.23,0.02 -0.35,0.02 -0.73,0.01 -1.46,0.03 -2.19,0.04 -0.28,0.01 -0.6,0.02 -0.8,0.22 -0.47,0.44 0.01,1.31 -0.35,1.83 -0.21,0.3 -0.64,0.38 -0.99,0.28 -0.35,-0.09 -0.65,-0.32 -0.94,-0.54 -0.8,-0.59 -1.78,-1.16 -2.73,-0.89 -1.69,0.48 -2.17,3.21 -3.92,3.27 -0.8,0.02 -1.43,-0.62 -1.7,-1.39 0.61,-1.11 1.29,-2.14 2.03,-3.06 2.42,-2.98 5.77,-3.54 9.01,-1.81 1.03,0.55 2.01,1.24 2.93,2.03 z"
   id="path20" />
	</g>
	
</g>
</svg>
