<?xml version="1.0" encoding="UTF-8" standalone="no"?>
<svg
   version="1.1"
   x="0px"
   y="0px"
   viewBox="0 0 106.46 106.46"
   xml:space="preserve"
   id="svg30"
   sodipodi:docname="january.svg"
   width="106.46"
   height="106.46"
   inkscape:version="1.3.2 (091e20e, 2023-11-25, custom)"
   xmlns:inkscape="http://www.inkscape.org/namespaces/inkscape"
   xmlns:sodipodi="http://sodipodi.sourceforge.net/DTD/sodipodi-0.dtd"
   xmlns="http://www.w3.org/2000/svg"
   xmlns:svg="http://www.w3.org/2000/svg"><defs
   id="defs30" /><sodipodi:namedview
   id="namedview30"
   pagecolor="#ffffff"
   bordercolor="#000000"
   borderopacity="0.25"
   inkscape:showpageshadow="2"
   inkscape:pageopacity="0.0"
   inkscape:pagecheckerboard="0"
   inkscape:deskcolor="#d1d1d1"
   inkscape:zoom="1.554"
   inkscape:cx="129.66538"
   inkscape:cy="156.69241"
   inkscape:window-width="1920"
   inkscape:window-height="991"
   inkscape:window-x="2391"
   inkscape:window-y="435"
   inkscape:window-maximized="1"
   inkscape:current-layer="svg30" />

	
	<g
   id="g30"
   transform="translate(-23.262,-20.86)">
		<path
   style="fill:#39b8ff"
   d="m 129.722,74.09 c 0,0.77 -0.02,1.53 -0.05,2.29 -0.11,2.73 -0.44,5.41 -0.95,8.02 -0.09,0.45 -0.18,0.89 -0.28,1.33 -3.1,13.9 -11.63,25.75 -23.26,33.2 -7.61,4.88 -16.55,7.88 -26.15,8.33 -0.84,0.04 -1.69,0.06 -2.54,0.06 -5.79,0 -11.37,-0.93 -16.59,-2.64 -11.64,-3.81 -21.51,-11.53 -28.06,-21.61 -1.68,-2.57 -3.14,-5.3 -4.36,-8.16 -2.71,-6.39 -4.22,-13.43 -4.22,-20.82 0,-29.4 23.83,-53.23 53.23,-53.23 29.4,0 53.23,23.83 53.23,53.23 z"
   id="path1" />
		<path
   style="fill:#b2f5fe"
   d="m 129.722,74.09 c 0,0.77 -0.02,1.53 -0.05,2.29 -0.11,2.73 -0.44,5.41 -0.95,8.02 -0.09,0.45 -0.18,0.89 -0.28,1.33 -3.1,13.9 -11.63,25.75 -23.26,33.2 -7.61,4.88 -16.55,7.88 -26.15,8.33 -0.84,0.04 -1.69,0.06 -2.54,0.06 -5.79,0 -11.37,-0.93 -16.59,-2.64 -11.64,-3.81 -21.51,-11.53 -28.06,-21.61 -1.68,-2.57 -3.14,-5.3 -4.36,-8.16 -2.71,-6.39 -4.22,-13.43 -4.22,-20.82 0,-29.4 23.83,-53.23 53.23,-53.23 29.4,0 53.23,23.83 53.23,53.23 z"
   id="path2" />
		<path
   style="fill:#e0f0fc"
   d="m 105.182,118.93 c -7.61,4.88 -16.55,7.88 -26.15,8.33 -0.84,0.04 -1.69,0.06 -2.54,0.06 -5.79,0 -11.37,-0.93 -16.59,-2.64 -11.64,-3.81 -21.51,-11.53 -28.06,-21.61 -1.68,-2.57 -3.14,-5.3 -4.36,-8.16 14.18,-3.88 29.51,-3.57 43.5,1 3.29,1.08 6.51,2.39 9.62,3.92 0.51,0.24 1.02,0.5 1.52,0.76 0.51,0.26 1.02,0.54 1.53,0.82 8.16,4.46 15.51,10.43 21.53,17.52 z"
   id="path3" />
		<g
   id="g6">
			<g
   id="g5">
				<path
   style="fill:#6daaab"
   d="m 129.672,76.38 c -0.11,2.73 -0.44,5.41 -0.95,8.02 -0.09,0.45 -0.18,0.89 -0.28,1.33 -7.21,1.91 -14.4,3.92 -21.61,5.78 0.16,-0.04 0.3,-0.19 0.41,-0.42 0.52,-1.03 0.58,-3.63 0.67,-4.47 0.01,-0.06 0.01,-0.11 0.02,-0.15 0.32,-2.09 0.84,-4.31 1.58,-6.47 0.41,-1.24 0.9,-2.46 1.46,-3.62 0.8,-1.68 1.74,-3.23 2.81,-4.56 2.42,-2.98 5.77,-3.54 9.01,-1.81 2.65,1.42 4.96,3.72 6.88,6.37 z"
   id="path4" />
				<path
   style="fill:#88c2c4"
   d="M 114.159,89.381 C 111.82,83.04 108.16,77.19 103.479,72.314 c -1.344,-1.4 -2.941,-2.798 -4.878,-2.916 -2.406,-0.146 -4.446,1.721 -5.894,3.648 -3.204,4.26 -5.064,9.368 -6.582,14.478 -1.518,5.109 -2.748,10.33 -4.886,15.212 5.452,-3.027 10.871,-5.836 16.648,-8.184 5.232,-2.128 10.703,-4.232 16.272,-5.171 z"
   id="path5" />
			</g>
		</g>
		<path
   style="fill:#edf9f9"
   d="m 108.43,78.37 c 0,0.01 0,0.01 0,0.01 -0.01,0.29 -0.06,0.57 -0.14,0.85 -0.31,1.07 -1.41,2 -2.48,1.69 -1.18,-0.34 -1.86,-2 -3.08,-1.82 -0.8,0.12 -1.23,1.02 -1.38,1.82 -0.14,0.8 -0.16,1.69 -0.68,2.31 -0.56,0.66 -1.59,0.82 -2.38,0.47 -0.8,-0.35 -1.35,-1.12 -1.59,-1.96 -0.26,-0.87 -0.29,-1.96 -1.08,-2.41 -1.04,-0.58 -2.2,0.53 -2.76,1.57 -0.55,1.04 -1.22,2.34 -2.4,2.35 -0.73,0.01 -1.38,-0.53 -1.69,-1.19 -0.19,-0.4 -0.28,-0.83 -0.32,-1.27 1.11,-2.75 2.48,-5.37 4.26,-7.74 1.45,-1.93 3.49,-3.8 5.89,-3.65 1.94,0.12 3.54,1.51 4.88,2.91 1.81,1.89 3.46,3.91 4.95,6.06 z"
   id="path6" />
		<path
   style="fill:#edf9f9"
   d="m 127.95,74.24 c -0.07,0.14 -0.15,0.27 -0.25,0.39 -0.62,0.78 -1.8,1.14 -2.66,0.65 -0.51,-0.29 -0.85,-0.82 -1.38,-1.05 -0.77,-0.32 -1.76,0.19 -1.94,0.99 -0.17,0.72 0.23,1.5 -0.01,2.19 -0.23,0.65 -0.99,1 -1.67,0.91 -0.68,-0.1 -1.26,-0.55 -1.68,-1.09 -0.57,-0.74 -1.03,-1.76 -1.95,-1.9 -0.87,-0.14 -1.62,0.61 -2.06,1.37 -0.45,0.75 -0.82,1.63 -1.58,2.07 -0.85,0.48 -2.03,0.13 -2.57,-0.66 0.24,-0.59 0.5,-1.17 0.77,-1.73 0.8,-1.68 1.74,-3.23 2.81,-4.56 2.42,-2.98 5.77,-3.54 9.01,-1.81 1.9,1.02 3.63,2.49 5.16,4.23 z"
   id="path7" />
		<path
   style="fill:#ffffff"
   d="m 128.722,84.4 c -0.09,0.45 -0.18,0.89 -0.28,1.33 -3.1,13.9 -11.63,25.75 -23.26,33.2 -7.61,4.88 -16.55,7.88 -26.15,8.33 -0.84,0.04 -1.69,0.06 -2.54,0.06 -5.79,0 -11.37,-0.93 -16.59,-2.64 1.91,-3.71 4.15,-7.27 6.67,-10.61 4.02,-5.34 8.75,-10.14 14.03,-14.24 0.8,-0.61 1.61,-1.21 2.43,-1.79 1.49,-1.06 3.01,-2.07 4.58,-3.01 6.3,-3.79 13.17,-6.62 20.3,-8.41 1.54,-0.39 3.1,-0.73 4.67,-1.01 h 0.01 c 5.31,-0.99 10.72,-1.4 16.13,-1.21 z"
   id="path8" />
		<path
   style="fill:#e0f0fc"
   d="m 109.49,115.85 c -1.23,0.98 -2.51,1.9 -3.83,2.76 -0.22,-0.03 -0.45,-0.05 -0.67,-0.06 -0.99,-0.07 -1.99,0.01 -2.95,-0.24 -0.96,-0.25 -1.9,-0.93 -2.07,-1.91 -0.17,-0.99 0.47,-2.02 0.18,-2.98 -0.29,-0.98 -1.46,-1.46 -2.48,-1.35 -1.02,0.11 -1.92,0.66 -2.83,1.15 -1.81,0.96 -3.75,1.69 -5.75,2.16 -1.73,0.4 -3.82,0.5 -4.98,-0.85 -0.44,-0.52 -0.67,-1.19 -0.78,-1.86 -0.26,-1.53 0.08,-3.14 0.91,-4.44 0.44,-0.69 1.04,-1.36 1.01,-2.17 -0.04,-1.19 -1.43,-1.9 -2.62,-1.86 -1.19,0.03 -2.33,0.52 -3.52,0.56 -0.64,0.02 -1.34,-0.12 -1.77,-0.6 -0.32,-0.35 -0.43,-0.81 -0.41,-1.28 0.48,-0.43 0.96,-0.85 1.45,-1.25 0,0.12 0.03,0.23 0.07,0.35 0.11,0.28 0.37,0.47 0.63,0.61 1.32,0.72 2.94,0.57 4.37,0.11 1.42,-0.46 2.75,-1.19 4.18,-1.63 0.61,-0.18 1.25,-0.3 1.87,-0.18 0.63,0.13 1.22,0.57 1.37,1.18 0.12,0.49 -0.04,1 -0.28,1.44 -0.66,1.23 -1.86,2.05 -2.88,3 -1.03,0.94 -1.98,2.19 -1.85,3.58 0.14,1.56 1.67,2.73 3.22,2.89 1.56,0.17 3.1,-0.46 4.44,-1.27 1.34,-0.8 2.56,-1.8 3.96,-2.51 0.92,-0.46 1.94,-0.79 2.97,-0.71 1.02,0.09 2.05,0.65 2.48,1.58 0.81,1.77 -0.64,4.19 0.65,5.64 0.59,0.65 1.56,0.82 2.43,0.73 0.88,-0.09 1.72,-0.4 2.58,-0.52 0.3,-0.04 0.6,-0.07 0.9,-0.07 z"
   id="path9" />
		<path
   style="fill:#e0f0fc"
   d="m 123.84,98.43 c -0.32,0.62 -0.65,1.22 -0.99,1.82 -0.31,0.02 -0.62,0.08 -0.91,0.16 -0.92,0.26 -1.76,0.76 -2.62,1.18 -1.33,0.65 -2.73,1.13 -4.17,1.44 -0.5,0.1 -1.04,0.18 -1.51,-0.02 -0.87,-0.38 -1.09,-1.57 -0.78,-2.48 0.3,-0.9 0.97,-1.63 1.44,-2.45 0.48,-0.83 0.76,-1.91 0.25,-2.71 -0.45,-0.7 -1.37,-0.97 -2.2,-0.86 -0.82,0.1 -1.57,0.51 -2.3,0.92 -1.14,0.63 -2.27,1.26 -3.41,1.89 -0.83,0.46 -1.91,0.9 -2.64,0.3 -0.7,-0.57 -0.53,-1.68 -0.22,-2.53 0.3,-0.85 0.67,-1.84 0.19,-2.61 -0.43,-0.7 -1.38,-0.88 -2.2,-0.79 -0.82,0.09 -1.63,0.37 -2.45,0.31 -0.82,-0.06 -1.7,-0.64 -1.7,-1.47 0,-0.19 0.05,-0.39 0.13,-0.57 0.43,-0.18 0.86,-0.35 1.3,-0.52 0.11,0.17 0.25,0.32 0.42,0.44 0.81,0.56 1.91,0.42 2.84,0.1 0.93,-0.33 1.82,-0.82 2.8,-0.92 0.98,-0.09 2.12,0.38 2.35,1.34 0.2,0.82 -0.32,1.61 -0.6,2.41 -0.27,0.79 -0.1,1.95 0.73,2.08 0.44,0.07 0.86,-0.19 1.23,-0.43 1.08,-0.7 2.24,-1.26 3.44,-1.7 1.29,-0.46 2.97,-0.66 3.81,0.43 0.67,0.86 0.42,2.11 -0.01,3.11 -0.43,1 -1.03,1.99 -1,3.08 0,0.15 0.02,0.31 0.11,0.42 0.09,0.11 0.22,0.17 0.35,0.22 1.6,0.52 3.07,-0.96 4.63,-1.61 1.17,-0.49 2.51,-0.44 3.69,0.02 z"
   id="path10" />
		<path
   style="fill:#5b3f18"
   d="m 61.105,85.22 c 0.025,-3.942 2.093,-7.649 4.854,-10.462 2.761,-2.813 6.186,-4.866 9.57,-6.887 -5.736,0.966 -10.952,3.954 -14.343,8.681 -1.14,-6.846 1.302,-14.189 6.316,-18.989 -3.712,0.738 -6.799,3.54 -7.706,7.214 -2.354,-4.594 -6.655,-8.151 -11.609,-9.601 2.197,1.684 4.409,3.382 6.245,5.453 1.837,2.071 3.295,4.564 3.713,7.3 0.334,2.187 -0.006,4.413 -0.346,6.599 -0.592,3.808 -1.075,7.449 -1.667,11.257 -2.503,-3.492 -5.327,-6.754 -8.424,-9.732 -1.267,-1.218 -2.804,-2.469 -4.554,-2.302 2.265,1.086 4.109,2.915 5.561,4.966 1.411,1.995 2.48,4.206 3.526,6.415 -3.445,-0.334 -6.891,-0.668 -10.336,-1.002 1.792,0.835 3.663,1.484 5.581,1.962 2.689,0.67 5.287,0.656 6.839,3.283 1.841,3.119 1.86,7.099 1.526,10.597 -0.163,1.708 -0.479,3.412 -0.71,5.101 -0.145,1.063 -0.673,5.189 -1.923,5.602 -1.032,0.34 -1.573,2.322 -0.813,3.098 0.653,0.667 1.711,0.643 2.644,0.616 4.181,-0.118 8.385,0.654 12.251,2.249 -4.357,-6.774 -6.425,-14.992 -5.793,-23.021 0.188,-2.387 0.685,-4.915 2.36,-6.626 1.414,-1.443 3.439,-2.072 5.375,-2.649 1.888,-0.563 3.777,-1.125 5.665,-1.688 -4.798,-1.473 -9.764,-0.417 -13.802,2.566 z"
   id="path11" />
		<path
   style="fill:#ffffff"
   d="m 79.032,127.26 c -0.84,0.04 -1.69,0.06 -2.54,0.06 -5.79,0 -11.37,-0.93 -16.59,-2.64 -11.64,-3.81 -21.51,-11.53 -28.06,-21.61 9.45,-0.31 18.99,1.86 27.35,6.28 2.58,1.36 5.05,2.94 7.38,4.72 4.85,3.66 9.08,8.14 12.46,13.19 z"
   id="path12" />
		<path
   style="fill:#ffffff"
   d="m 75.888,28.076 c 0,0.632 -0.512,1.144 -1.144,1.144 -0.632,0 -1.144,-0.512 -1.144,-1.144 0,-0.632 0.512,-1.144 1.144,-1.144 0.632,0 1.144,0.512 1.144,1.144 z"
   id="path13" />
		<path
   style="fill:#ffffff"
   d="m 87.675,38.458 c 0,0.632 -0.512,1.144 -1.144,1.144 -0.632,0 -1.144,-0.512 -1.144,-1.144 0,-0.632 0.512,-1.144 1.144,-1.144 0.632,0 1.144,0.512 1.144,1.144 z"
   id="path14" />
		<path
   style="fill:#ffffff"
   d="m 64.879,42.295 c 0,0.632 -0.512,1.144 -1.144,1.144 -0.632,0 -1.144,-0.512 -1.144,-1.144 0,-0.632 0.512,-1.144 1.144,-1.144 0.632,0 1.144,0.513 1.144,1.144 z"
   id="path15" />
		<circle
   style="fill:#ffffff"
   cx="102.444"
   cy="36.169998"
   r="1.1440001"
   id="circle15" />
		<circle
   style="fill:#ffffff"
   cx="76.315002"
   cy="50.727001"
   r="1.1440001"
   id="circle16" />
		<circle
   style="fill:#ffffff"
   cx="98.154999"
   cy="54.033001"
   r="1.1440001"
   id="circle17" />
		<circle
   style="fill:#ffffff"
   cx="81.129997"
   cy="66.483002"
   r="1.1440001"
   id="circle18" />
		<circle
   style="fill:#ffffff"
   cx="107.976"
   cy="64.580002"
   r="1.1440001"
   id="circle19" />
		<path
   style="fill:#ffffff"
   d="m 115.303,52.889 c 0,0.632 -0.512,1.144 -1.144,1.144 -0.632,0 -1.144,-0.512 -1.144,-1.144 0,-0.632 0.512,-1.144 1.144,-1.144 0.632,-10e-4 1.144,0.512 1.144,1.144 z"
   id="path19" />
		<path
   style="fill:#ffffff"
   d="m 47.048,45.23 c 0,0.632 -0.512,1.144 -1.144,1.144 -0.632,0 -1.144,-0.512 -1.144,-1.144 0,-0.632 0.512,-1.144 1.144,-1.144 0.632,0 1.144,0.512 1.144,1.144 z"
   id="path20" />
		<path
   style="fill:#ffffff"
   d="m 55.437,30.364 c 0,0.632 -0.512,1.144 -1.144,1.144 -0.632,0 -1.144,-0.512 -1.144,-1.144 0,-0.632 0.512,-1.144 1.144,-1.144 0.632,0 1.144,0.512 1.144,1.144 z"
   id="path21" />
		<circle
   style="fill:#ffffff"
   cx="82.274002"
   cy="82.242996"
   r="1.1440001"
   id="circle21" />
		<circle
   style="fill:#ffffff"
   cx="46.467999"
   cy="64.195"
   r="1.1440001"
   id="circle22" />
		<circle
   style="fill:#ffffff"
   cx="34.367001"
   cy="53.014999"
   r="1.1440001"
   id="circle23" />
		<circle
   style="fill:#ffffff"
   cx="34.367001"
   cy="70.533997"
   r="1.1440001"
   id="circle24" />
		<path
   style="fill:#ffffff"
   d="m 31.842,85.499 c 0,0.632 -0.512,1.144 -1.144,1.144 -0.632,0 -1.144,-0.512 -1.144,-1.144 0,-0.632 0.512,-1.144 1.144,-1.144 0.632,0 1.144,0.512 1.144,1.144 z"
   id="path24" />
		<path
   style="fill:#ffffff"
   d="m 36.008,79.683 c -0.928,0.181 -1.886,0.549 -2.433,1.32 -0.547,0.771 -0.475,2.025 0.346,2.495 0.782,0.448 1.746,0.025 2.616,-0.213 0.87,-0.238 2.096,-0.056 2.238,0.834 0.136,0.852 -0.905,1.604 -0.672,2.435 0.214,0.767 1.363,0.834 1.991,0.345 0.628,-0.489 0.923,-1.28 1.371,-1.938 0.448,-0.658 1.249,-1.238 1.993,-0.956 0.744,0.282 1.065,1.301 1.847,1.453 0.682,0.132 1.275,-0.474 1.954,-0.624 1.561,-0.344 2.979,1.76 4.487,1.229 1.107,-0.39 1.267,-2.026 0.576,-2.975 -0.691,-0.948 -1.877,-1.369 -2.991,-1.739 -2.356,-0.782 -4.441,-1.117 -6.908,-1.131 -2.216,-0.013 -4.13,-0.981 -6.415,-0.535 z"
   id="path25" />
		<path
   style="fill:#ffffff"
   d="M 43.198,69.386 C 42.012,68.55 40.439,67.856 39.16,68.541 38.7,68.787 38.315,69.2 37.804,69.304 37.402,69.386 36.99,69.262 36.58,69.23 c -0.871,-0.066 -1.806,0.364 -2.176,1.156 -0.37,0.791 -0.003,1.892 0.825,2.17 0.63,0.212 1.307,-0.054 1.942,-0.249 0.635,-0.195 1.41,-0.289 1.89,0.169 0.695,0.663 0.219,1.84 0.462,2.769 0.293,1.119 1.862,1.655 2.778,0.948 0.194,-0.149 0.358,-0.34 0.577,-0.449 0.254,-0.125 0.556,-0.123 0.829,-0.048 0.703,0.194 1.229,0.9 1.215,1.63 -0.006,0.293 -0.089,0.586 -0.038,0.874 0.103,0.591 0.704,0.939 1.241,1.206 0.847,0.421 1.694,0.841 2.54,1.262 0.188,0.093 0.385,0.189 0.595,0.188 0.638,-10e-4 1.022,-0.848 1.659,-0.868 0.482,-0.015 0.822,0.44 1.161,0.784 0.339,0.343 0.962,0.586 1.257,0.205 0.106,-0.136 0.131,-0.319 0.127,-0.491 -0.043,-1.539 -2.008,-2.254 -2.663,-3.648 -0.524,-1.115 -0.15,-2.561 -0.887,-3.548 -0.586,-0.784 -2.155,-1.581 -3.042,-1.98 -1.337,-0.6 -2.439,-1.053 -3.674,-1.924 z"
   id="path26" />
		<path
   style="fill:#ffffff"
   d="m 55.424,86.605 c 0.263,0.368 0.681,0.67 1.131,0.631 0.117,-0.01 0.235,-0.045 0.325,-0.12 0.169,-0.142 0.2,-0.395 0.157,-0.612 -0.043,-0.217 -0.144,-0.419 -0.195,-0.634 -0.129,-0.553 0.092,-1.128 0.368,-1.624 0.277,-0.496 0.618,-0.968 0.762,-1.518 0.201,-0.766 -0.13,-2.343 -1.085,-2.542 -0.632,-0.131 -1.876,0.999 -2.467,1.359 -0.699,0.427 -1.086,0.72 -0.906,1.596 0.212,1.034 1.295,2.604 1.91,3.464 z"
   id="path27" />
		<path
   style="fill:#ffffff"
   d="m 43.863,53.86 c -0.352,0.67 -0.55,1.552 -0.071,2.138 0.576,0.705 1.668,0.51 2.579,0.49 1.839,-0.041 3.787,1.187 4.056,3.007 0.138,0.935 -0.121,2.027 0.51,2.731 0.262,0.292 0.635,0.455 1.002,0.596 0.487,0.187 1.172,0.282 1.41,-0.183 0.14,-0.274 0.036,-0.62 0.159,-0.901 0.168,-0.383 0.703,-0.478 1.084,-0.306 0.381,0.172 0.642,0.527 0.885,0.867 0.843,1.179 1.685,2.357 2.528,3.536 0.129,0.181 0.262,0.365 0.446,0.491 0.693,0.473 1.674,-0.188 1.926,-0.989 0.148,-0.471 0.142,-0.99 -0.017,-1.458 -0.091,-0.268 -0.232,-0.527 -0.243,-0.809 -0.018,-0.493 0.354,-0.903 0.702,-1.253 0.137,-0.138 0.278,-0.278 0.455,-0.356 0.634,-0.28 1.269,0.327 1.853,0.7 1.305,0.834 3.166,0.482 4.247,-0.627 1.081,-1.109 1.416,-2.815 1.073,-4.326 -0.14,-0.616 -0.394,-1.225 -0.847,-1.666 -0.807,-0.786 -2.119,-0.875 -3.159,-0.443 -1.04,0.432 -1.843,1.296 -2.479,2.226 -0.413,0.604 -0.787,1.265 -1.386,1.686 -0.599,0.42 -1.517,0.506 -2.007,-0.037 -0.266,-0.295 -0.353,-0.707 -0.549,-1.052 -0.648,-1.139 -2.308,-1.324 -3.049,-2.405 -0.372,-0.543 -0.474,-1.268 -0.96,-1.712 -1.096,-1.003 -2.971,0.231 -4.313,-0.407 -0.45,-0.214 -0.778,-0.614 -1.162,-0.931 -1.613,-1.331 -3.815,-0.238 -4.673,1.393 z"
   id="path28" />
		<path
   style="fill:#ffffff"
   d="m 59.228,75.5 c -0.267,0.984 0.106,2.191 1.033,2.615 0.626,0.286 1.354,0.176 2.033,0.061 0.846,-0.144 1.691,-0.288 2.537,-0.432 0.457,-0.078 0.947,-0.173 1.268,-0.507 0.387,-0.403 0.409,-1.036 0.296,-1.584 -0.112,-0.548 -0.334,-1.078 -0.351,-1.637 -0.033,-1.082 0.74,-2.071 1.707,-2.557 0.54,-0.272 1.141,-0.416 1.662,-0.723 0.761,-0.449 1.301,-1.217 2.08,-1.635 0.575,-0.309 1.237,-0.404 1.866,-0.578 0.63,-0.174 1.275,-0.462 1.62,-1.017 0.345,-0.555 0.226,-1.425 -0.373,-1.686 -0.228,-0.099 -0.485,-0.099 -0.733,-0.094 -1.221,0.02 -2.499,0.104 -3.539,0.744 -0.649,0.399 -1.156,0.986 -1.701,1.52 -1.079,1.056 -2.339,1.926 -3.709,2.559 -2.108,0.974 -5.021,2.464 -5.696,4.951 z"
   id="path29" />
		<path
   style="fill:#ffffff"
   d="m 60.042,86.289 c -0.002,0.219 0.012,0.45 0.128,0.635 0.174,0.277 0.533,0.383 0.86,0.371 1.503,-0.055 2.243,-1.887 3.568,-2.598 0.699,-0.376 1.524,-0.414 2.317,-0.445 1.009,-0.039 2.018,-0.078 3.028,-0.117 0.566,-0.022 1.153,-0.04 1.674,0.182 0.344,0.147 0.645,0.394 1.007,0.489 0.923,0.243 1.819,-0.628 2.044,-1.556 0.195,-0.802 0.022,-1.722 -0.572,-2.294 -0.846,-0.814 -2.188,-0.705 -3.351,-0.543 -2.536,0.354 -5.513,0.355 -7.945,1.157 -1.785,0.591 -2.742,2.972 -2.758,4.719 z"
   id="path30" />
	</g>
</svg>
