<?xml version="1.0" encoding="UTF-8" standalone="no"?>
<!-- Generator: Adobe Illustrator 27.5.0, SVG Export Plug-In . SVG Version: 6.00 Build 0)  -->

<svg
   version="1.1"
   x="0px"
   y="0px"
   viewBox="0 0 106.46 106.46"
   xml:space="preserve"
   id="svg20"
   sodipodi:docname="march.svg"
   width="106.46"
   height="106.46"
   inkscape:version="1.3.2 (091e20e, 2023-11-25, custom)"
   xmlns:inkscape="http://www.inkscape.org/namespaces/inkscape"
   xmlns:sodipodi="http://sodipodi.sourceforge.net/DTD/sodipodi-0.dtd"
   xmlns="http://www.w3.org/2000/svg"
   xmlns:svg="http://www.w3.org/2000/svg"><defs
   id="defs20" /><sodipodi:namedview
   id="namedview20"
   pagecolor="#ffffff"
   bordercolor="#000000"
   borderopacity="0.25"
   inkscape:showpageshadow="2"
   inkscape:pageopacity="0.0"
   inkscape:pagecheckerboard="0"
   inkscape:deskcolor="#d1d1d1"
   inkscape:zoom="1.554"
   inkscape:cx="-4.8262548"
   inkscape:cy="229.40798"
   inkscape:window-width="1920"
   inkscape:window-height="991"
   inkscape:window-x="2391"
   inkscape:window-y="435"
   inkscape:window-maximized="1"
   inkscape:current-layer="svg20" />

<g
   id="OBJECTS"
   transform="translate(-254.606,-20.86)">
	
	<g
   id="g20">
		<path
   style="fill:#39b8ff"
   d="m 361.066,74.09 c 0,0.77 -0.02,1.53 -0.05,2.29 -0.11,2.73 -0.44,5.41 -0.95,8.02 -0.09,0.45 -0.18,0.89 -0.28,1.33 -3.1,13.9 -11.63,25.75 -23.26,33.2 -7.61,4.88 -16.55,7.88 -26.15,8.33 -0.84,0.04 -1.69,0.06 -2.54,0.06 -5.79,0 -11.37,-0.93 -16.59,-2.64 -11.64,-3.81 -21.51,-11.53 -28.06,-21.61 -1.68,-2.57 -3.14,-5.3 -4.36,-8.16 -2.71,-6.39 -4.22,-13.43 -4.22,-20.82 0,-29.4 23.83,-53.23 53.23,-53.23 29.4,0 53.23,23.83 53.23,53.23 z"
   id="path1" />
		<path
   style="fill:#ffdbf7"
   d="m 361.066,74.09 c 0,0.77 -0.02,1.53 -0.05,2.29 -0.11,2.73 -0.44,5.41 -0.95,8.02 -0.09,0.45 -0.18,0.89 -0.28,1.33 -3.1,13.9 -11.63,25.75 -23.26,33.2 -7.61,4.88 -16.55,7.88 -26.15,8.33 -0.84,0.04 -1.69,0.06 -2.54,0.06 -5.79,0 -11.37,-0.93 -16.59,-2.64 -11.64,-3.81 -21.51,-11.53 -28.06,-21.61 -1.68,-2.57 -3.14,-5.3 -4.36,-8.16 -2.71,-6.39 -4.22,-13.43 -4.22,-20.82 0,-29.4 23.83,-53.23 53.23,-53.23 29.4,0 53.23,23.83 53.23,53.23 z"
   id="path2" />
		<path
   style="fill:#99b94a"
   d="m 336.526,118.93 c -7.61,4.88 -16.55,7.88 -26.15,8.33 -0.84,0.04 -1.69,0.06 -2.54,0.06 -5.79,0 -11.37,-0.93 -16.59,-2.64 -11.64,-3.81 -21.51,-11.53 -28.06,-21.61 -1.68,-2.57 -3.14,-5.3 -4.36,-8.16 14.18,-3.88 29.51,-3.57 43.5,1 3.29,1.08 6.51,2.39 9.62,3.92 0.51,0.24 1.02,0.5 1.52,0.76 0.51,0.26 1.02,0.54 1.53,0.82 8.16,4.46 15.51,10.43 21.53,17.52 z"
   id="path3" />
		<g
   id="g5">
			<path
   style="fill:#98b799"
   d="m 345.503,89.381 c -2.339,-6.341 -5.999,-12.191 -10.68,-17.067 -1.344,-1.4 -2.941,-2.798 -4.878,-2.916 -2.406,-0.146 -4.446,1.721 -5.894,3.648 -3.203,4.26 -5.064,9.368 -6.581,14.478 -1.518,5.109 -2.747,10.33 -4.886,15.212 5.452,-3.027 10.871,-5.836 16.648,-8.184 5.231,-2.128 10.702,-4.232 16.271,-5.171 z"
   id="path4" />
			<path
   style="fill:#98b799"
   d="m 361.016,76.38 c -0.11,2.73 -0.44,5.41 -0.95,8.02 -0.09,0.45 -0.18,0.89 -0.28,1.33 -7.21,1.91 -14.4,3.92 -21.61,5.78 0.16,-0.04 0.3,-0.19 0.41,-0.42 0.52,-1.03 0.58,-3.63 0.67,-4.47 0.01,-0.06 0.01,-0.11 0.02,-0.15 0.32,-2.09 0.84,-4.31 1.58,-6.47 0.41,-1.24 0.9,-2.46 1.46,-3.62 0.8,-1.68 1.74,-3.23 2.81,-4.56 2.42,-2.98 5.77,-3.54 9.01,-1.81 2.65,1.42 4.96,3.72 6.88,6.37 z"
   id="path5" />
		</g>
		<path
   style="fill:#b6dc62"
   d="m 360.066,84.4 c -0.09,0.45 -0.18,0.89 -0.28,1.33 -3.1,13.9 -11.63,25.75 -23.26,33.2 -7.61,4.88 -16.55,7.88 -26.15,8.33 -0.84,0.04 -1.69,0.06 -2.54,0.06 -5.79,0 -11.37,-0.93 -16.59,-2.64 1.91,-3.71 4.15,-7.27 6.67,-10.61 4.02,-5.34 8.75,-10.14 14.03,-14.24 0.8,-0.61 1.61,-1.21 2.43,-1.79 1.49,-1.06 3.01,-2.07 4.58,-3.01 6.3,-3.79 13.17,-6.62 20.3,-8.41 1.54,-0.39 3.1,-0.73 4.67,-1.01 h 0.01 c 5.31,-0.99 10.72,-1.4 16.13,-1.21 z"
   id="path6" />
		<path
   style="fill:#77383d"
   d="m 292.449,85.22 c 0.025,-3.942 2.093,-7.649 4.854,-10.462 2.761,-2.813 6.186,-4.866 9.57,-6.887 -5.736,0.966 -10.953,3.954 -14.343,8.681 -1.14,-6.846 1.302,-14.189 6.315,-18.989 -3.712,0.738 -6.799,3.54 -7.706,7.214 -2.354,-4.594 -6.655,-8.151 -11.609,-9.601 2.197,1.684 4.409,3.382 6.245,5.453 1.837,2.071 3.295,4.564 3.713,7.3 0.334,2.187 -0.006,4.413 -0.346,6.599 -0.592,3.808 -1.075,7.449 -1.667,11.257 -2.503,-3.492 -5.327,-6.754 -8.424,-9.732 -1.267,-1.218 -2.804,-2.469 -4.554,-2.302 2.265,1.086 4.109,2.915 5.56,4.966 1.411,1.995 2.48,4.206 3.526,6.415 -3.445,-0.334 -6.891,-0.668 -10.336,-1.002 1.792,0.835 3.663,1.484 5.581,1.962 2.689,0.67 5.287,0.656 6.839,3.283 1.841,3.119 1.859,7.099 1.526,10.597 -0.163,1.708 -0.479,3.412 -0.71,5.101 -0.145,1.063 -0.673,5.189 -1.923,5.602 -1.032,0.34 -1.573,2.322 -0.813,3.098 0.653,0.667 1.711,0.643 2.644,0.616 4.181,-0.118 8.385,0.654 12.251,2.249 -4.357,-6.774 -6.425,-14.992 -5.794,-23.021 0.188,-2.387 0.685,-4.915 2.36,-6.626 1.414,-1.443 3.439,-2.072 5.375,-2.649 1.889,-0.563 3.777,-1.125 5.666,-1.688 -4.796,-1.473 -9.763,-0.417 -13.8,2.566 z"
   id="path7" />
		<path
   style="fill:#7ca642"
   d="m 310.376,127.26 c -0.84,0.04 -1.69,0.06 -2.54,0.06 -5.79,0 -11.37,-0.93 -16.59,-2.64 -11.64,-3.81 -21.51,-11.53 -28.06,-21.61 9.45,-0.31 18.99,1.86 27.35,6.28 2.58,1.36 5.05,2.94 7.38,4.72 4.85,3.66 9.08,8.14 12.46,13.19 z"
   id="path8" />
		<circle
   style="fill:#ffffff"
   cx="325.25101"
   cy="48.931"
   r="6.2449999"
   id="circle8" />
		<path
   style="fill:#fbfbfb"
   d="m 337.76,88.06 c -2.452,0.997 -4.848,2.294 -6.617,4.263 -0.219,0.244 -0.439,0.526 -0.438,0.854 0.002,0.739 0.988,0.975 1.726,0.982 1.656,0.014 3.313,0.028 4.969,0.043 0.561,0.005 1.194,0.041 1.565,0.461 0.628,0.712 -10e-4,1.821 -0.706,2.457 -0.705,0.636 -1.584,1.374 -1.431,2.311 0.146,0.893 1.151,1.338 2.03,1.55 3.116,0.751 6.439,0.523 9.475,-0.505 1.38,-0.467 2.787,-1.168 3.518,-2.429 0.731,-1.261 0.439,-3.186 -0.9,-3.76 -1.09,-0.468 -2.586,0.007 -3.366,-0.887 -0.823,-0.943 0.021,-2.433 1.048,-3.149 1.027,-0.716 2.335,-1.25 2.786,-2.418 0.086,-0.223 0.134,-0.475 0.053,-0.7 -0.071,-0.195 -0.229,-0.344 -0.391,-0.475 -3.396,-2.74 -9.85,-0.01 -13.321,1.402 z"
   id="path9" />
		<path
   style="fill:#fbfbfb"
   d="m 313.467,103.18 c -1.868,0.482 -3.654,1.546 -4.649,3.199 -0.263,0.436 -0.471,0.963 -0.308,1.445 0.103,0.304 0.341,0.543 0.598,0.735 1.289,0.962 3.047,0.917 4.65,0.777 1.991,-0.174 3.992,-0.433 5.878,-1.092 0.885,-0.309 1.77,-0.729 2.363,-1.455 1.447,-1.771 -0.126,-3.784 -2.049,-4.121 -1.879,-0.329 -4.681,0.047 -6.483,0.512 z"
   id="path10" />
		<path
   style="fill:#fbfbfb"
   d="m 285.056,116.136 c 1.026,-0.093 2.037,0.305 3.053,0.518 1.016,0.214 2.233,0.18 2.856,-0.552 0.17,-0.2 0.284,-0.441 0.48,-0.621 0.657,-0.602 1.856,-0.215 2.515,0.427 0.659,0.642 1.063,1.491 1.809,2.049 0.727,0.545 1.676,0.738 2.562,1.011 0.864,0.267 1.697,0.624 2.478,1.062 0.646,0.363 1.321,0.892 1.319,1.571 -0.002,0.645 -0.657,1.143 -1.349,1.258 -0.692,0.116 -1.409,-0.058 -2.098,-0.23 -1.029,-0.258 -2.058,-0.515 -3.087,-0.772 -0.375,-0.094 -0.792,-0.185 -1.13,-0.026 -0.271,0.127 -0.427,0.387 -0.65,0.575 -0.65,0.55 -1.697,0.397 -2.576,0.18 -1.453,-0.359 -2.884,-0.804 -4.28,-1.331 -1.379,-0.521 -3.113,-1.253 -3.909,-2.488 -0.85,-1.321 0.537,-2.497 2.007,-2.631 z"
   id="path11" />
		<path
   style="fill:#478b34"
   d="m 276.054,74.134 c -1.432,-0.748 -2.419,-2.285 -2.501,-3.898 -0.083,-1.614 0.742,-3.244 2.09,-4.134 1.008,0.82 1.606,1.997 1.66,3.294 0.053,1.298 -0.312,3.838 -1.249,4.738 z"
   id="path12" />
		<path
   style="fill:#478b34"
   d="m 282.79,57.217 c -1.097,-0.615 -2.446,-0.764 -3.651,-0.402 -0.982,0.295 -1.836,0.899 -2.671,1.493 -0.32,0.228 -0.639,0.455 -0.959,0.683 1.308,0.719 2.75,1.161 4.235,1.01 1.486,-0.151 2.69,-1.335 3.046,-2.784 z"
   id="path13" />
		<path
   style="fill:#478b34"
   d="m 272.922,90.895 c -0.02,-0.848 -0.037,-1.716 0.23,-2.521 0.541,-1.635 2.157,-2.699 3.81,-3.183 0.145,-0.04 0.347,1.754 0.364,1.908 0.118,1.056 -0.061,2.052 -0.812,2.861 -0.514,0.554 -1.181,0.868 -1.912,1.013 -0.254,0.049 -1.67,0.338 -1.68,-0.078 z"
   id="path14" />
		<path
   style="fill:#478b34"
   d="m 300.111,82.633 c -1.335,-0.283 -2.437,-1.369 -2.858,-2.668 -0.421,-1.298 -0.196,-2.764 0.485,-3.946 1.221,0.573 2.269,1.717 2.695,2.996 0.427,1.279 0.311,2.427 -0.322,3.618 z"
   id="path15" />
		<path
   style="fill:#478b34"
   d="m 310.353,87.364 c -0.646,-1.457 -1.605,-2.832 -2.977,-3.644 -0.674,-0.399 -1.451,-0.638 -2.235,-0.673 -0.423,-0.019 -1.885,0.011 -2.117,0.476 -0.431,0.864 2.252,2.698 2.9,3.036 1.405,0.734 3.053,0.994 4.616,0.728"
   id="path16" />
		<path
   style="fill:#478b34"
   d="m 308.142,71.375 c -0.762,0.777 -1.614,1.485 -2.6,1.946 -0.986,0.461 -2.119,0.662 -3.178,0.412 -1.059,-0.25 -2.025,-0.991 -2.407,-2.01 2.315,-1.749 5.672,-1.801 8.185,-0.348 z"
   id="path17" />
		<path
   style="fill:#478b34"
   d="m 302.474,68.987 c -0.441,-1.11 -0.223,-2.455 0.547,-3.368 0.749,-0.889 1.896,-1.319 2.99,-1.713 0.487,0.956 0.106,2.118 -0.516,2.993 -0.623,0.875 -2.017,1.709 -3.021,2.088 z"
   id="path18" />
		<path
   style="fill:#478b34"
   d="m 295.845,59.141 c -0.494,-0.838 -0.646,-1.872 -0.413,-2.817 0.233,-0.945 0.848,-1.79 1.675,-2.302 0.604,0.789 0.737,2.034 0.534,3.006 -0.203,0.973 -0.927,1.632 -1.796,2.113 z"
   id="path19" />
		<path
   style="fill:#478b34"
   d="m 295.276,61.145 c 0.811,-0.825 1.9,-1.372 3.046,-1.53 1.146,-0.158 2.342,0.075 3.345,0.651 -0.557,0.991 -1.709,1.684 -2.831,1.868 -1.121,0.184 -2.715,-0.228 -3.56,-0.989 z"
   id="path20" />
	</g>
	
</g>
</svg>
