<?xml version="1.0" encoding="UTF-8" standalone="no"?>
<!-- Generator: Adobe Illustrator 27.5.0, SVG Export Plug-In . SVG Version: 6.00 Build 0)  -->

<svg
   version="1.1"
   x="0px"
   y="0px"
   viewBox="0 0 106.46 106.46"
   xml:space="preserve"
   id="svg47"
   sodipodi:docname="may.svg"
   width="106.46"
   height="106.46"
   inkscape:version="1.3.2 (091e20e, 2023-11-25, custom)"
   xmlns:inkscape="http://www.inkscape.org/namespaces/inkscape"
   xmlns:sodipodi="http://sodipodi.sourceforge.net/DTD/sodipodi-0.dtd"
   xmlns="http://www.w3.org/2000/svg"
   xmlns:svg="http://www.w3.org/2000/svg"><defs
   id="defs47" /><sodipodi:namedview
   id="namedview47"
   pagecolor="#ffffff"
   bordercolor="#000000"
   borderopacity="0.25"
   inkscape:showpageshadow="2"
   inkscape:pageopacity="0.0"
   inkscape:pagecheckerboard="0"
   inkscape:deskcolor="#d1d1d1"
   inkscape:zoom="1.554"
   inkscape:cx="226.83398"
   inkscape:cy="70.46332"
   inkscape:window-width="1920"
   inkscape:window-height="991"
   inkscape:window-x="2391"
   inkscape:window-y="435"
   inkscape:window-maximized="1"
   inkscape:current-layer="svg47" />

<g
   id="OBJECTS"
   transform="translate(-23.262,-179.304)">
	
	<g
   id="g47">
		<path
   style="fill:#39b8ff"
   d="m 129.722,232.534 c 0,0.77 -0.02,1.53 -0.05,2.29 -0.11,2.73 -0.44,5.41 -0.95,8.02 -0.09,0.45 -0.18,0.89 -0.28,1.33 -3.1,13.9 -11.63,25.75 -23.26,33.2 -7.61,4.88 -16.55,7.88 -26.15,8.33 -0.84,0.04 -1.69,0.06 -2.54,0.06 -5.79,0 -11.37,-0.93 -16.59,-2.64 -11.64,-3.81 -21.51,-11.53 -28.06,-21.61 -1.68,-2.57 -3.14,-5.3 -4.36,-8.16 -2.71,-6.39 -4.22,-13.43 -4.22,-20.82 0,-29.4 23.83,-53.23 53.23,-53.23 29.4,0 53.23,23.83 53.23,53.23 z"
   id="path1" />
		<path
   style="fill:#d1d1dd"
   d="m 129.722,232.534 c 0,0.77 -0.02,1.53 -0.05,2.29 -0.11,2.73 -0.44,5.41 -0.95,8.02 -0.09,0.45 -0.18,0.89 -0.28,1.33 -3.1,13.9 -11.63,25.75 -23.26,33.2 -7.61,4.88 -16.55,7.88 -26.15,8.33 -0.84,0.04 -1.69,0.06 -2.54,0.06 -5.79,0 -11.37,-0.93 -16.59,-2.64 -11.64,-3.81 -21.51,-11.53 -28.06,-21.61 -1.68,-2.57 -3.14,-5.3 -4.36,-8.16 -2.71,-6.39 -4.22,-13.43 -4.22,-20.82 0,-29.4 23.83,-53.23 53.23,-53.23 29.4,0 53.23,23.83 53.23,53.23 z"
   id="path2" />
		<path
   style="fill:#54987f"
   d="m 105.182,277.374 c -7.61,4.88 -16.55,7.88 -26.15,8.33 -0.84,0.04 -1.69,0.06 -2.54,0.06 -5.79,0 -11.37,-0.93 -16.59,-2.64 -11.64,-3.81 -21.51,-11.53 -28.06,-21.61 -1.68,-2.57 -3.14,-5.3 -4.36,-8.16 14.18,-3.88 29.51,-3.57 43.5,1 3.29,1.08 6.51,2.39 9.62,3.92 0.51,0.24 1.02,0.5 1.52,0.76 0.51,0.26 1.02,0.54 1.53,0.82 8.16,4.46 15.51,10.43 21.53,17.52 z"
   id="path3" />
		<g
   id="g5">
			<path
   style="fill:#807f7d"
   d="m 114.159,247.824 c -2.339,-6.341 -5.999,-12.191 -10.68,-17.067 -1.344,-1.4 -2.941,-2.798 -4.878,-2.916 -2.406,-0.146 -4.446,1.721 -5.894,3.648 -3.204,4.26 -5.064,9.368 -6.582,14.478 -1.518,5.11 -2.748,10.33 -4.886,15.212 5.452,-3.027 10.871,-5.836 16.648,-8.184 5.232,-2.127 10.703,-4.231 16.272,-5.171 z"
   id="path4" />
			<path
   style="fill:#807f7d"
   d="m 129.672,234.824 c -0.11,2.73 -0.44,5.41 -0.95,8.02 -0.09,0.45 -0.18,0.89 -0.28,1.33 -7.21,1.91 -14.4,3.92 -21.61,5.78 0.16,-0.04 0.3,-0.19 0.41,-0.42 0.52,-1.03 0.58,-3.63 0.67,-4.47 0.01,-0.06 0.01,-0.11 0.02,-0.15 0.32,-2.09 0.84,-4.31 1.58,-6.47 0.41,-1.24 0.9,-2.46 1.46,-3.62 0.8,-1.68 1.74,-3.23 2.81,-4.56 2.42,-2.98 5.77,-3.54 9.01,-1.81 2.65,1.42 4.96,3.72 6.88,6.37 z"
   id="path5" />
		</g>
		<path
   style="fill:#65a55b"
   d="m 128.722,242.844 c -0.09,0.45 -0.18,0.89 -0.28,1.33 -3.1,13.9 -11.63,25.75 -23.26,33.2 -7.61,4.88 -16.55,7.88 -26.15,8.33 -0.84,0.04 -1.69,0.06 -2.54,0.06 -5.79,0 -11.37,-0.93 -16.59,-2.64 1.91,-3.71 4.15,-7.27 6.67,-10.61 4.02,-5.34 8.75,-10.14 14.03,-14.24 0.8,-0.61 1.61,-1.21 2.43,-1.79 1.49,-1.06 3.01,-2.07 4.58,-3.01 6.3,-3.79 13.17,-6.62 20.3,-8.41 1.54,-0.39 3.1,-0.73 4.67,-1.01 h 0.01 c 5.31,-0.99 10.72,-1.4 16.13,-1.21 z"
   id="path6" />
		<g
   id="g37">
			<g
   id="g10">
				<g
   id="g6">
					
						<rect
   x="110.152"
   y="267.909"
   transform="matrix(0.7709,-0.637,0.637,0.7709,-145.7814,132.0441)"
   style="fill:#ffffff"
   width="1"
   height="1.5"
   id="rect6" />
				</g>
				<g
   id="g7">
					<path
   style="fill:#ffffff"
   d="m 101.22,258.037 -2.856,-3.454 0.771,-0.637 2.856,3.454 z m -11.425,-13.815 -1.714,-2.073 0.771,-0.638 1.714,2.073 z"
   id="path7" />
				</g>
				<g
   id="g8">
					<path
   style="fill:#ffffff"
   d="m 79.512,231.787 -1.714,-2.072 0.771,-0.638 1.714,2.072 z m -10.282,-12.435 -2.857,-3.454 0.771,-0.638 2.857,3.454 z m -11.425,-13.816 -1.713,-2.072 0.771,-0.638 1.713,2.072 z"
   id="path8" />
				</g>
				<g
   id="g9">
					
						<rect
   x="46.93"
   y="191.455"
   transform="matrix(0.7707,-0.6372,0.6372,0.7707,-111.5968,74.2947)"
   style="fill:#ffffff"
   width="1"
   height="1.5"
   id="rect8" />
				</g>
			</g>
			<g
   id="g14">
				<g
   id="g11">
					
						<rect
   x="60.439999"
   y="279.38"
   transform="matrix(0.7708,-0.637,0.637,0.7708,-164.4879,103.018)"
   style="fill:#ffffff"
   width="1"
   height="1.5"
   id="rect10" />
				</g>
				<g
   id="g12">
					<path
   style="fill:#ffffff"
   d="m 50.697,268.523 -3.127,-3.782 0.771,-0.637 3.127,3.782 z m -12.508,-15.128 -1.876,-2.269 0.771,-0.637 1.876,2.27 z"
   id="path11" />
				</g>
				<g
   id="g13">
					
						<rect
   x="26.34"
   y="238.133"
   transform="matrix(0.7709,-0.637,0.637,0.7709,-146.0182,71.8336)"
   style="fill:#ffffff"
   width="1"
   height="1.5"
   id="rect12" />
				</g>
			</g>
			<g
   id="g18">
				<g
   id="g15">
					
						<rect
   x="119.66"
   y="242.474"
   transform="matrix(0.7707,-0.6372,0.6372,0.7707,-127.4294,132.3364)"
   style="fill:#ffffff"
   width="1"
   height="1.5"
   id="rect14" />
				</g>
				<g
   id="g16">
					<path
   style="fill:#ffffff"
   d="m 111.864,233.979 -2.478,-2.996 0.771,-0.638 2.478,2.996 z m -9.91,-11.983 -1.486,-1.797 0.771,-0.638 1.486,1.797 z"
   id="path15" />
				</g>
				<g
   id="g17">
					<path
   style="fill:#ffffff"
   d="m 93.035,211.211 -1.486,-1.797 0.771,-0.638 1.486,1.797 z m -8.919,-10.785 -2.478,-2.996 0.771,-0.638 2.478,2.996 z m -9.91,-11.983 -1.486,-1.797 0.771,-0.638 1.486,1.797 z"
   id="path16" />
				</g>
			</g>
			<g
   id="g22">
				<g
   id="g19">
					
						<rect
   x="125.67"
   y="225.668"
   transform="matrix(0.7705,-0.6374,0.6374,0.7705,-115.3668,132.376)"
   style="fill:#ffffff"
   width="1"
   height="1.5"
   id="rect18" />
				</g>
				<g
   id="g20">
					<path
   style="fill:#ffffff"
   d="m 115.854,214.729 -3.151,-3.81 0.771,-0.638 3.151,3.81 z m -12.604,-15.24 -1.891,-2.286 0.771,-0.638 1.891,2.286 z"
   id="path19" />
				</g>
				<g
   id="g21">
					
						<rect
   x="91.314003"
   y="184.127"
   transform="matrix(0.7705,-0.6374,0.6374,0.7705,-96.7717,100.9437)"
   style="fill:#ffffff"
   width="1"
   height="1.5"
   id="rect20" />
				</g>
			</g>
			<g
   id="g27">
				<g
   id="g23">
					
						<rect
   x="100.047"
   y="275.31299"
   transform="matrix(0.7704,-0.6376,0.6376,0.7704,-152.9218,127.4891)"
   style="fill:#ffffff"
   width="1"
   height="1.5"
   id="rect22" />
				</g>
				<g
   id="g24">
					<path
   style="fill:#ffffff"
   d="m 91.244,265.598 -2.813,-3.401 0.771,-0.637 2.813,3.401 z m -11.253,-13.608 -1.688,-2.04 0.771,-0.638 1.688,2.042 z"
   id="path23" />
				</g>
				<g
   id="g25">
					<path
   style="fill:#ffffff"
   d="m 69.863,239.744 -1.688,-2.041 0.771,-0.638 1.688,2.041 z m -10.127,-12.246 -2.813,-3.402 0.771,-0.638 2.813,3.402 z m -11.253,-13.608 -1.688,-2.042 0.771,-0.638 1.688,2.041 z"
   id="path24" />
				</g>
				<g
   id="g26">
					
						<rect
   x="37.763"
   y="199.996"
   transform="matrix(0.7705,-0.6374,0.6374,0.7705,-119.1756,70.4536)"
   style="fill:#ffffff"
   width="1"
   height="1.5"
   id="rect25" />
				</g>
			</g>
			<g
   id="g32">
				<g
   id="g28">
					
						<rect
   x="81.343002"
   y="281.34201"
   transform="matrix(0.7707,-0.6372,0.6372,0.7707,-160.9815,116.8332)"
   style="fill:#ffffff"
   width="1"
   height="1.5"
   id="rect27" />
				</g>
				<g
   id="g29">
					<path
   style="fill:#ffffff"
   d="m 73.814,273.167 -2.388,-2.889 0.771,-0.637 2.388,2.889 z m -9.553,-11.554 -1.433,-1.732 0.771,-0.637 1.433,1.732 z"
   id="path28" />
				</g>
				<g
   id="g30">
					<path
   style="fill:#ffffff"
   d="m 55.664,251.217 -1.433,-1.733 0.771,-0.638 1.433,1.733 z m -8.599,-10.398 -2.388,-2.888 0.771,-0.638 2.388,2.888 z m -9.553,-11.553 -1.433,-1.733 0.771,-0.638 1.433,1.733 z"
   id="path29" />
				</g>
				<g
   id="g31">
					
						<rect
   x="28.320999"
   y="217.22099"
   transform="matrix(0.7705,-0.6374,0.6374,0.7705,-132.3211,68.3878)"
   style="fill:#ffffff"
   width="1"
   height="1.5"
   id="rect30" />
				</g>
			</g>
			<g
   id="g36">
				<g
   id="g33">
					<path
   style="fill:#ffffff"
   d="m 110.727,255.964 -1.625,-1.966 0.771,-0.638 1.625,1.966 z"
   id="path32" />
				</g>
				<g
   id="g34">
					<path
   style="fill:#ffffff"
   d="m 100.974,244.169 -1.626,-1.966 0.771,-0.638 1.626,1.966 z m -9.754,-11.796 -2.709,-3.276 0.771,-0.638 2.709,3.276 z m -10.837,-13.107 -1.625,-1.966 0.771,-0.638 1.625,1.966 z"
   id="path33" />
				</g>
				<g
   id="g35">
					
						<rect
   x="70.038002"
   y="205.823"
   transform="matrix(0.7708,-0.637,0.637,0.7708,-115.4291,92.2734)"
   style="fill:#ffffff"
   width="1"
   height="1.5"
   id="rect34" />
				</g>
			</g>
		</g>
		<path
   style="fill:#77383d"
   d="m 61.105,243.664 c 0.025,-3.942 2.093,-7.649 4.854,-10.462 2.761,-2.813 6.186,-4.866 9.57,-6.887 -5.736,0.966 -10.952,3.954 -14.343,8.68 -1.14,-6.846 1.302,-14.189 6.316,-18.989 -3.712,0.738 -6.799,3.54 -7.706,7.214 -2.354,-4.594 -6.655,-8.151 -11.609,-9.601 2.197,1.684 4.409,3.382 6.245,5.453 1.836,2.071 3.295,4.564 3.713,7.3 0.334,2.187 -0.006,4.413 -0.346,6.599 -0.592,3.808 -1.075,7.449 -1.667,11.257 -2.503,-3.492 -5.327,-6.754 -8.424,-9.732 -1.267,-1.218 -2.804,-2.469 -4.554,-2.302 2.265,1.086 4.109,2.915 5.561,4.966 1.411,1.994 2.48,4.206 3.526,6.415 -3.445,-0.334 -6.891,-0.668 -10.336,-1.003 1.792,0.835 3.663,1.484 5.581,1.962 2.689,0.67 5.287,0.656 6.839,3.283 1.841,3.119 1.86,7.099 1.526,10.597 -0.163,1.708 -0.479,3.412 -0.71,5.101 -0.145,1.063 -0.673,5.189 -1.923,5.602 -1.032,0.34 -1.573,2.322 -0.813,3.098 0.653,0.666 1.711,0.642 2.644,0.616 4.181,-0.118 8.385,0.654 12.251,2.249 -4.357,-6.774 -6.425,-14.992 -5.793,-23.021 0.188,-2.387 0.685,-4.915 2.36,-6.626 1.414,-1.443 3.439,-2.072 5.375,-2.649 1.888,-0.563 3.777,-1.125 5.665,-1.688 -4.798,-1.471 -9.764,-0.415 -13.802,2.568 z"
   id="path37" />
		<path
   style="fill:#33593a"
   d="m 65.998,218.36 c -0.086,-1.911 1.366,-3.775 3.24,-4.159 1.874,-0.384 3.942,0.76 4.614,2.551 0.672,1.791 -0.135,4.013 -1.799,4.956 1.424,-0.898 3.569,-0.493 4.481,0.923 0.912,1.416 0.558,3.479 -0.724,4.571 -1.282,1.092 -3.312,1.14 -4.693,0.177 1.316,1.068 1.743,2.806 1.08,4.367 -0.662,1.561 -2.421,2.577 -4.104,2.373 -1.683,-0.205 -3.147,-1.613 -3.416,-3.287 -0.511,1.563 -2.554,3.001 -4.16,2.646 -1.606,-0.355 -2.8,-2.036 -2.605,-3.669 0.195,-1.633 1.75,-2.987 3.395,-2.954 -1.224,0.161 -2.506,-0.639 -2.9,-1.809 -0.393,-1.17 0.146,-2.583 1.219,-3.193 1.073,-0.611 2.562,-0.353 3.368,0.583 -1.392,-0.668 -2.449,-2.105 -2.437,-3.649 0.013,-1.544 1.253,-3.05 2.794,-3.149 1.542,-0.101 3,1.219 2.647,2.722 z"
   id="path38" />
		<path
   style="fill:#409e62"
   d="m 79.032,285.704 c -0.84,0.04 -1.69,0.06 -2.54,0.06 -5.79,0 -11.37,-0.93 -16.59,-2.64 -11.64,-3.81 -21.51,-11.53 -28.06,-21.61 9.45,-0.31 18.99,1.86 27.35,6.28 2.58,1.36 5.05,2.94 7.38,4.72 4.85,3.66 9.08,8.14 12.46,13.19 z"
   id="path39" />
		<path
   style="fill:#377735"
   d="m 53.282,241.608 c 0.212,2.159 -1.161,4.377 -3.188,5.151 -2.027,0.774 -4.528,0.035 -5.81,-1.715 -0.961,0.377 -2.001,0.642 -3.022,0.49 -1.021,-0.151 -2.018,-0.792 -2.357,-1.767 -0.339,-0.975 0.185,-2.233 1.186,-2.485 -1.274,-0.036 -2.611,-0.186 -3.653,-0.919 -1.042,-0.733 -1.653,-2.22 -1.03,-3.331 0.486,-0.867 1.573,-1.255 2.564,-1.184 0.991,0.071 1.912,0.517 2.793,0.977 -1.168,-1.183 -1.364,-3.203 -0.445,-4.589 0.918,-1.386 2.854,-1.992 4.399,-1.378 1.545,0.614 2.536,2.384 2.253,4.022 1.003,-2.083 4.213,-2.628 5.847,-0.992 1.634,1.635 1.087,4.845 -0.997,5.846"
   id="path40" />
		<path
   style="fill:#579c41"
   d="m 47.577,221.703 c -1.394,-1.062 -3.658,-0.679 -4.625,0.783 0.309,-1.569 -0.292,-3.314 -1.579,-4.264 -1.287,-0.949 -3.215,-0.979 -4.46,0.025 -1.245,1.004 -1.601,2.993 -0.689,4.306 -1.318,-1.128 -3.7,-0.482 -4.267,1.158 -0.568,1.639 0.904,3.62 2.638,3.549 -1.599,0.219 -2.78,1.943 -2.527,3.537 0.253,1.594 1.79,2.841 3.404,2.893 1.614,0.051 3.169,-1.006 3.846,-2.471 -0.5,2.121 1.596,4.408 3.753,4.094 2.157,-0.313 3.515,-3.102 2.432,-4.993 1.007,0.483 2.351,0.077 2.922,-0.883 0.411,-0.69 0.251,-1.295 0.121,-2.02 -0.173,-0.967 -0.207,-0.821 -0.031,-1.787 0.264,-1.46 0.426,-2.888 -0.938,-3.927 z"
   id="path41" />
		<path
   style="fill:#377735"
   d="m 49.46,198.95 c -2.619,-0.343 -5.349,1.478 -6.039,4.027 -0.69,2.549 0.749,5.499 3.183,6.524 -1.567,0.228 -2.637,2.129 -2.021,3.587 0.616,1.458 2.725,2.015 3.981,1.05 -1.95,1.163 -2.166,4.373 -0.389,5.786 1.777,1.413 4.856,0.481 5.55,-1.68 -0.706,1.354 0.236,3.268 1.74,3.534 1.504,0.266 3.045,-1.21 2.845,-2.724 1.457,0.876 3.481,0.67 4.731,-0.482 1.25,-1.152 1.621,-3.152 0.868,-4.676 -0.754,-1.524 -2.569,-2.442 -4.243,-2.147 0.943,-0.353 1.484,-1.528 1.138,-2.474 -0.346,-0.946 -1.516,-1.496 -2.465,-1.157 1.353,-0.99 1.532,-3.228 0.353,-4.421 -0.693,-0.701 -1.732,-0.921 -2.68,-0.747 -1.34,0.246 -1.226,0.878 -2.028,-0.174 -1.347,-1.765 -1.964,-3.491 -4.524,-3.826 z"
   id="path42" />
		<path
   style="fill:#377735"
   d="m 62.92,205.534 c -1.21,-1.235 -1.704,-3.128 -1.25,-4.797 0.453,-1.669 1.836,-3.052 3.505,-3.505 1.669,-0.453 3.562,0.04 4.797,1.25 0.617,-1.466 2.383,-2.526 3.944,-2.219 1.56,0.308 2.8,1.803 2.814,3.393 0.014,1.59 -1.199,3.107 -2.754,3.442 1.295,-0.157 2.389,1.358 2.381,2.663 -0.008,1.305 -1.319,2.444 -2.613,2.27 0.892,1.008 1.426,2.074 1.312,3.415 -0.114,1.341 -0.954,2.639 -2.203,3.141 -1.249,0.502 -2.851,0.075 -3.56,-1.07 0.193,1.249 -0.094,2.348 -0.905,3.318 -0.485,0.58 -1.141,1.042 -1.884,1.182 -0.743,0.14 -1.572,-0.08 -2.065,-0.653 -0.493,-0.573 -0.565,-1.504 -0.081,-2.085 -0.923,0.824 -2.556,0.65 -3.581,-0.042 -1.025,-0.692 -1.489,-2.113 -1.069,-3.277 0.419,-1.164 1.682,-1.962 2.914,-1.842 -1.029,0.466 -2.305,-0.799 -2.493,-1.912 -0.19,-1.112 1.667,-2.774 2.791,-2.672 z"
   id="path43" />
		<path
   style="fill:#579c41"
   d="m 69.042,221.515 c -1.08,-0.419 -2.403,-0.104 -3.178,0.757 -0.775,0.861 -0.949,2.21 -0.419,3.24 0.53,1.029 1.73,1.671 2.881,1.54 -1.247,0.632 -1.607,2.528 -1.061,3.815 0.546,1.286 2.083,2.04 3.45,1.749 1.367,-0.291 2.447,-1.552 2.595,-2.942 0.268,0.786 0.559,1.655 1.058,2.319 0.499,0.665 1.267,1.182 2.097,1.167 0.849,-0.015 1.597,-0.572 2.155,-1.211 1.014,-1.16 1.595,-2.627 2.156,-4.062 0.764,1.289 2.585,1.599 3.761,0.67 1.175,-0.929 1.275,-2.923 0.198,-3.965 1.901,0.354 4.011,-0.256 5.258,-1.734 1.248,-1.478 1.453,-3.816 0.299,-5.369 -1.154,-1.552 -3.645,-1.978 -5.13,-0.738 0.787,-1.097 0.06,-2.817 -1.203,-3.292 -1.264,-0.475 -2.746,0.103 -3.643,1.111 -0.897,1.008 -1.304,2.362 -1.513,3.696 -1.107,-1.755 -3.491,-2.579 -5.446,-1.885 -1.954,0.696 -4.563,3.074 -4.315,5.134 z"
   id="path44" />
		<path
   style="fill:#377735"
   d="m 69.595,245.254 c 1.479,-0.207 2.713,-1.451 3.057,-2.905 0.009,1.994 2.203,3.658 4.126,3.13 1.923,-0.528 2.958,-3.079 1.947,-4.798 1.533,1.114 3.87,0.921 5.199,-0.43 1.329,-1.35 1.484,-3.691 0.346,-5.205 -1.138,-1.514 -3.43,-2.015 -5.097,-1.114 0.432,-2.251 -1.617,-4.628 -3.907,-4.532 -2.29,0.096 -4.133,2.636 -3.514,4.843 -0.377,-1.344 -3.37,-1.133 -4.251,-0.76 -1.879,0.794 -2.299,2.733 -2.271,4.602 0.04,2.64 0.742,7.676 4.365,7.169 z"
   id="path45" />
		<path
   style="fill:#579c41"
   d="m 44.18,210.37 c -1.13,1.869 -0.742,4.516 0.878,5.982 -2.019,-1.542 -5.44,-0.458 -6.201,1.966 -0.761,2.424 1.427,5.269 3.965,5.157 -1.672,1.46 -1.889,4.295 -0.458,5.992 1.431,1.697 4.262,1.962 5.983,0.56 -0.592,0.786 -0.49,1.96 0.093,2.753 0.583,0.793 1.557,1.231 2.535,1.347 1.755,0.207 3.594,-0.597 4.634,-2.025 1.04,-1.428 1.24,-3.425 0.505,-5.032 1.639,0.793 3.856,-0.005 4.614,-1.66 0.758,-1.656 -0.087,-3.855 -1.758,-4.577 2.315,-0.805 3.388,-4.006 2.024,-6.043 -1.364,-2.037 -4.733,-2.265 -6.358,-0.43 1.668,-1.882 -1.868,-5.742 -3.486,-6.229 -2.282,-0.686 -5.691,0.124 -6.97,2.239 z"
   id="path46" />
		<path
   style="fill:#579c41"
   d="m 61.638,232.031 c 0.469,-1.521 -0.213,-3.318 -1.573,-4.145 -1.36,-0.827 -3.269,-0.606 -4.404,0.509 -1.135,1.115 -1.389,3.021 -0.586,4.395 -1.601,-0.389 -3.419,0.012 -4.576,1.186 -1.157,1.173 -1.51,3.127 -0.676,4.547 0.835,1.421 2.873,2.043 4.279,1.183 -1.539,0.871 -2.006,3.15 -1.008,4.61 0.997,1.46 3.195,1.883 4.715,0.979 1.52,-0.904 2.208,-2.947 1.642,-4.621 0.037,1.554 1.618,2.557 3.171,2.625 1.553,0.068 3.045,-1.21 3.217,-2.754 0.172,-1.544 -1.002,-3.12 -2.532,-3.395 1.58,-0.263 2.673,-2.131 2.127,-3.638 -0.546,-1.507 -2.415,-2.292 -3.796,-1.481 z"
   id="path47" />
	</g>

</g>
</svg>
