<?xml version="1.0" encoding="UTF-8" standalone="no"?>
<!-- Generator: Adobe Illustrator 27.5.0, SVG Export Plug-In . SVG Version: 6.00 Build 0)  -->

<svg
   version="1.1"
   x="0px"
   y="0px"
   viewBox="0 0 106.46 106.46"
   xml:space="preserve"
   id="svg13"
   sodipodi:docname="november.svg"
   width="106.46"
   height="106.46"
   inkscape:version="1.3.2 (091e20e, 2023-11-25, custom)"
   xmlns:inkscape="http://www.inkscape.org/namespaces/inkscape"
   xmlns:sodipodi="http://sodipodi.sourceforge.net/DTD/sodipodi-0.dtd"
   xmlns="http://www.w3.org/2000/svg"
   xmlns:svg="http://www.w3.org/2000/svg"><defs
   id="defs13" /><sodipodi:namedview
   id="namedview13"
   pagecolor="#ffffff"
   bordercolor="#000000"
   borderopacity="0.25"
   inkscape:showpageshadow="2"
   inkscape:pageopacity="0.0"
   inkscape:pagecheckerboard="0"
   inkscape:deskcolor="#d1d1d1"
   inkscape:zoom="1.554"
   inkscape:cx="-4.8262548"
   inkscape:cy="-87.837838"
   inkscape:window-width="1920"
   inkscape:window-height="991"
   inkscape:window-x="2391"
   inkscape:window-y="435"
   inkscape:window-maximized="1"
   inkscape:current-layer="svg13" />

<g
   id="OBJECTS"
   transform="translate(-254.606,-337.748)">

	<g
   id="g13">
		<path
   style="fill:#39b8ff"
   d="m 361.066,390.978 c 0,0.77 -0.02,1.53 -0.05,2.29 -0.11,2.73 -0.44,5.41 -0.95,8.02 -0.09,0.45 -0.18,0.89 -0.28,1.33 -3.1,13.9 -11.63,25.75 -23.26,33.2 -7.61,4.88 -16.55,7.88 -26.15,8.33 -0.84,0.04 -1.69,0.06 -2.54,0.06 -5.79,0 -11.37,-0.93 -16.59,-2.64 -11.64,-3.81 -21.51,-11.53 -28.06,-21.61 -1.68,-2.57 -3.14,-5.3 -4.36,-8.16 -2.71,-6.39 -4.22,-13.43 -4.22,-20.82 0,-29.4 23.83,-53.23 53.23,-53.23 29.4,0 53.23,23.83 53.23,53.23 z"
   id="path1" />
		<path
   style="fill:#e29e6f"
   d="m 361.066,390.978 c 0,0.77 -0.02,1.53 -0.05,2.29 -0.11,2.73 -0.44,5.41 -0.95,8.02 -0.09,0.45 -0.18,0.89 -0.28,1.33 -3.1,13.9 -11.63,25.75 -23.26,33.2 -7.61,4.88 -16.55,7.88 -26.15,8.33 -0.84,0.04 -1.69,0.06 -2.54,0.06 -5.79,0 -11.37,-0.93 -16.59,-2.64 -11.64,-3.81 -21.51,-11.53 -28.06,-21.61 -1.68,-2.57 -3.14,-5.3 -4.36,-8.16 -2.71,-6.39 -4.22,-13.43 -4.22,-20.82 0,-29.4 23.83,-53.23 53.23,-53.23 29.4,0 53.23,23.83 53.23,53.23 z"
   id="path2" />
		<path
   style="fill:#61696c"
   d="m 336.526,435.818 c -7.61,4.88 -16.55,7.88 -26.15,8.33 -0.84,0.04 -1.69,0.06 -2.54,0.06 -5.79,0 -11.37,-0.93 -16.59,-2.64 -11.64,-3.81 -21.51,-11.53 -28.06,-21.61 -1.68,-2.57 -3.14,-5.3 -4.36,-8.16 14.18,-3.88 29.51,-3.57 43.5,1 3.29,1.08 6.51,2.39 9.62,3.92 0.51,0.24 1.02,0.5 1.52,0.76 0.51,0.26 1.02,0.54 1.53,0.82 8.16,4.46 15.51,10.43 21.53,17.52 z"
   id="path3" />
		<g
   id="g5">
			<path
   style="fill:#453c41"
   d="m 345.503,406.268 c -2.339,-6.341 -5.999,-12.191 -10.68,-17.067 -1.344,-1.4 -2.941,-2.798 -4.878,-2.916 -2.406,-0.146 -4.446,1.721 -5.894,3.648 -3.203,4.26 -5.064,9.368 -6.581,14.478 -1.518,5.109 -2.747,10.33 -4.886,15.212 5.452,-3.027 10.871,-5.836 16.648,-8.184 5.231,-2.127 10.702,-4.231 16.271,-5.171 z"
   id="path4" />
			<path
   style="fill:#453c41"
   d="m 361.016,393.268 c -0.11,2.73 -0.44,5.41 -0.95,8.02 -0.09,0.45 -0.18,0.89 -0.28,1.33 -7.21,1.91 -14.4,3.92 -21.61,5.78 0.16,-0.04 0.3,-0.19 0.41,-0.42 0.52,-1.03 0.58,-3.63 0.67,-4.47 0.01,-0.06 0.01,-0.11 0.02,-0.15 0.32,-2.09 0.84,-4.31 1.58,-6.47 0.41,-1.24 0.9,-2.46 1.46,-3.62 0.8,-1.68 1.74,-3.23 2.81,-4.56 2.42,-2.98 5.77,-3.54 9.01,-1.81 2.65,1.42 4.96,3.72 6.88,6.37 z"
   id="path5" />
		</g>
		<path
   style="fill:#6d6441"
   d="m 360.066,401.288 c -0.09,0.45 -0.18,0.89 -0.28,1.33 -3.1,13.9 -11.63,25.75 -23.26,33.2 -7.61,4.88 -16.55,7.88 -26.15,8.33 -0.84,0.04 -1.69,0.06 -2.54,0.06 -5.79,0 -11.37,-0.93 -16.59,-2.64 1.91,-3.71 4.15,-7.27 6.67,-10.61 4.02,-5.34 8.75,-10.14 14.03,-14.24 0.8,-0.61 1.61,-1.21 2.43,-1.79 1.49,-1.06 3.01,-2.07 4.58,-3.01 6.3,-3.79 13.17,-6.62 20.3,-8.41 1.54,-0.39 3.1,-0.73 4.67,-1.01 h 0.01 c 5.31,-0.99 10.72,-1.4 16.13,-1.21 z"
   id="path6" />
		<path
   style="fill:#fdff84"
   d="m 331.496,365.819 c 0,3.449 -2.796,6.245 -6.245,6.245 -3.449,0 -6.245,-2.796 -6.245,-6.245 0,-3.449 2.796,-6.245 6.245,-6.245 3.449,-0.001 6.245,2.796 6.245,6.245 z"
   id="path7" />
		<path
   style="fill:#fce0ca"
   d="m 278.811,390.978 h -19.985 c -0.677,-1.391 -0.162,-3.358 1.137,-4.199 1.298,-0.841 3.205,-0.554 4.198,0.632 0.126,-1.552 0.271,-3.163 1.055,-4.508 0.784,-1.345 2.406,-2.338 3.896,-1.885 1.097,0.334 1.867,1.371 2.178,2.474 0.311,1.103 0.234,2.275 0.12,3.416 0.617,-1.162 2.174,-1.717 3.386,-1.208 1.213,0.509 1.906,2.01 1.509,3.263 0.552,-0.498 1.427,-0.598 2.078,-0.238 0.651,0.362 0.557,1.52 0.428,2.253 z"
   id="path8" />
		<path
   style="fill:#fce0ca"
   d="m 301.295,361.533 h -24.638 c 0.5,-2.053 3.083,-3.51 4.934,-2.491 -0.861,-2.509 1.034,-5.568 3.664,-5.915 2.63,-0.346 5.252,2.119 5.07,4.765 0.634,-1.28 2.254,-1.975 3.619,-1.553 1.365,0.422 2.309,1.911 2.11,3.325 1.677,-1.327 4.571,-0.161 5.241,1.869 z"
   id="path9" />
		<path
   style="fill:#fce0ca"
   d="m 355.14,380.209 h -20.773 c -0.118,-1.197 0.723,-2.446 1.751,-3.07 1.028,-0.624 2.414,-0.601 3.421,0.056 0.21,-1.461 0.818,-2.912 1.937,-3.874 1.119,-0.962 2.8,-1.335 4.122,-0.68 1.322,0.655 2.037,2.446 1.314,3.732 0.669,-0.758 1.858,-0.996 2.767,-0.556 0.909,0.441 1.458,1.523 1.277,2.517 0.596,-0.908 1.815,-1.353 2.856,-1.044 1.041,0.31 1.325,1.833 1.328,2.919 z"
   id="path10" />
		<path
   style="fill:#77383d"
   d="m 292.449,401.858 c 0.025,-3.942 2.093,-7.649 4.854,-10.462 2.761,-2.813 6.186,-4.866 9.57,-6.887 -5.736,0.966 -10.953,3.954 -14.343,8.681 -1.14,-6.846 1.302,-14.189 6.315,-18.989 -3.712,0.738 -6.799,3.54 -7.706,7.215 -2.354,-4.594 -6.655,-8.151 -11.609,-9.601 2.197,1.684 4.409,3.382 6.245,5.453 1.837,2.071 3.295,4.564 3.713,7.3 0.334,2.187 -0.006,4.413 -0.346,6.599 -0.592,3.808 -1.075,7.449 -1.667,11.257 -2.503,-3.492 -5.327,-6.754 -8.424,-9.732 -1.267,-1.218 -2.804,-2.469 -4.554,-2.302 2.265,1.086 4.109,2.915 5.56,4.966 1.411,1.995 2.48,4.206 3.526,6.415 -3.445,-0.334 -6.891,-0.668 -10.336,-1.002 1.792,0.835 3.663,1.484 5.581,1.962 2.689,0.67 5.287,0.656 6.839,3.283 1.841,3.119 1.859,7.099 1.526,10.597 -0.163,1.708 -0.479,3.412 -0.71,5.101 -0.145,1.063 -0.673,5.189 -1.923,5.602 -1.032,0.34 -1.573,2.322 -0.813,3.098 0.653,0.667 1.711,0.643 2.644,0.616 4.181,-0.118 8.385,0.654 12.251,2.249 -4.357,-6.774 -6.425,-14.992 -5.794,-23.021 0.188,-2.387 0.685,-4.915 2.36,-6.626 1.414,-1.444 3.439,-2.073 5.375,-2.649 1.889,-0.563 3.777,-1.125 5.666,-1.688 -4.796,-1.474 -9.763,-0.418 -13.8,2.565 z"
   id="path11" />
		<path
   style="fill:#817c80"
   d="m 310.376,443.898 c -0.84,0.04 -1.69,0.06 -2.54,0.06 -5.79,0 -11.37,-0.93 -16.59,-2.64 -11.64,-3.81 -21.51,-11.53 -28.06,-21.61 9.45,-0.31 18.99,1.86 27.35,6.28 2.58,1.36 5.05,2.94 7.38,4.72 4.85,3.66 9.08,8.14 12.46,13.19 z"
   id="path12" />
		<path
   style="fill:#fce0ca"
   d="m 311.866,380.907 h -11.834 c -0.28,-1.146 0.047,-2.282 1.054,-2.896 1.007,-0.614 2.406,-0.495 3.296,0.279 -0.626,-1.133 -0.292,-2.703 0.74,-3.484 1.032,-0.781 2.633,-0.675 3.553,0.234 0.92,0.91 1.044,2.51 0.275,3.551 0.598,-0.67 1.718,-0.789 2.444,-0.26 0.726,0.53 0.928,1.802 0.472,2.576 z"
   id="path13" />
	</g>
	
</g>
</svg>
