<?xml version="1.0" encoding="UTF-8" standalone="no"?>
<!-- Generator: Adobe Illustrator 27.5.0, SVG Export Plug-In . SVG Version: 6.00 Build 0)  -->

<svg
   version="1.1"
   x="0px"
   y="0px"
   viewBox="0 0 106.46 106.46"
   xml:space="preserve"
   id="svg30"
   sodipodi:docname="october.svg"
   width="106.46"
   height="106.46"
   inkscape:version="1.3.2 (091e20e, 2023-11-25, custom)"
   xmlns:inkscape="http://www.inkscape.org/namespaces/inkscape"
   xmlns:sodipodi="http://sodipodi.sourceforge.net/DTD/sodipodi-0.dtd"
   xmlns="http://www.w3.org/2000/svg"
   xmlns:svg="http://www.w3.org/2000/svg"><defs
   id="defs30" /><sodipodi:namedview
   id="namedview30"
   pagecolor="#ffffff"
   bordercolor="#000000"
   borderopacity="0.25"
   inkscape:showpageshadow="2"
   inkscape:pageopacity="0.0"
   inkscape:pagecheckerboard="0"
   inkscape:deskcolor="#d1d1d1"
   inkscape:zoom="1.554"
   inkscape:cx="111.00386"
   inkscape:cy="-87.837838"
   inkscape:window-width="1920"
   inkscape:window-height="991"
   inkscape:window-x="2391"
   inkscape:window-y="435"
   inkscape:window-maximized="1"
   inkscape:current-layer="svg30" />

<g
   id="OBJECTS"
   transform="translate(-138.934,-337.748)">
	
	<g
   id="g30">
		<path
   style="fill:#39b8ff"
   d="m 245.394,390.978 c 0,0.77 -0.02,1.53 -0.05,2.29 -0.11,2.73 -0.44,5.41 -0.95,8.02 -0.09,0.45 -0.18,0.89 -0.28,1.33 -3.1,13.9 -11.63,25.75 -23.26,33.2 -7.61,4.88 -16.55,7.88 -26.15,8.33 -0.84,0.04 -1.69,0.06 -2.54,0.06 -5.79,0 -11.37,-0.93 -16.59,-2.64 -11.64,-3.81 -21.51,-11.53 -28.06,-21.61 -1.68,-2.57 -3.14,-5.3 -4.36,-8.16 -2.71,-6.39 -4.22,-13.43 -4.22,-20.82 0,-29.4 23.83,-53.23 53.23,-53.23 29.4,0 53.23,23.83 53.23,53.23 z"
   id="path1" />
		<path
   style="fill:#ffe8b6"
   d="m 245.394,390.978 c 0,0.77 -0.02,1.53 -0.05,2.29 -0.11,2.73 -0.44,5.41 -0.95,8.02 -0.09,0.45 -0.18,0.89 -0.28,1.33 -3.1,13.9 -11.63,25.75 -23.26,33.2 -7.61,4.88 -16.55,7.88 -26.15,8.33 -0.84,0.04 -1.69,0.06 -2.54,0.06 -5.79,0 -11.37,-0.93 -16.59,-2.64 -11.64,-3.81 -21.51,-11.53 -28.06,-21.61 -1.68,-2.57 -3.14,-5.3 -4.36,-8.16 -2.71,-6.39 -4.22,-13.43 -4.22,-20.82 0,-29.4 23.83,-53.23 53.23,-53.23 29.4,0 53.23,23.83 53.23,53.23 z"
   id="path2" />
		<path
   style="fill:#d19176"
   d="m 220.854,435.818 c -7.61,4.88 -16.55,7.88 -26.15,8.33 -0.84,0.04 -1.69,0.06 -2.54,0.06 -5.79,0 -11.37,-0.93 -16.59,-2.64 -11.64,-3.81 -21.51,-11.53 -28.06,-21.61 -1.68,-2.57 -3.14,-5.3 -4.36,-8.16 14.18,-3.88 29.51,-3.57 43.5,1 3.29,1.08 6.51,2.39 9.62,3.92 0.51,0.24 1.02,0.5 1.52,0.76 0.51,0.26 1.02,0.54 1.53,0.82 8.16,4.46 15.51,10.43 21.53,17.52 z"
   id="path3" />
		<g
   id="g6">
			<g
   id="g5">
				<path
   style="fill:#9b6d5e"
   d="m 229.831,406.268 c -2.339,-6.341 -5.999,-12.191 -10.68,-17.067 -1.344,-1.4 -2.941,-2.798 -4.878,-2.916 -2.406,-0.146 -4.445,1.721 -5.894,3.648 -3.204,4.26 -5.064,9.368 -6.581,14.478 -1.518,5.109 -2.748,10.33 -4.886,15.212 5.452,-3.027 10.871,-5.836 16.648,-8.184 5.231,-2.127 10.702,-4.231 16.271,-5.171 z"
   id="path4" />
				<path
   style="fill:#9b6d5e"
   d="m 245.344,393.268 c -0.11,2.73 -0.44,5.41 -0.95,8.02 -0.09,0.45 -0.18,0.89 -0.28,1.33 -7.21,1.91 -14.4,3.92 -21.61,5.78 0.16,-0.04 0.3,-0.19 0.41,-0.42 0.52,-1.03 0.58,-3.63 0.67,-4.47 0.01,-0.06 0.01,-0.11 0.02,-0.15 0.32,-2.09 0.84,-4.31 1.58,-6.47 0.41,-1.24 0.9,-2.46 1.46,-3.62 0.8,-1.68 1.74,-3.23 2.81,-4.56 2.42,-2.98 5.77,-3.54 9.01,-1.81 2.65,1.42 4.96,3.72 6.88,6.37 z"
   id="path5" />
			</g>
		</g>
		<path
   style="fill:#f7b882"
   d="m 244.394,401.288 c -0.09,0.45 -0.18,0.89 -0.28,1.33 -3.1,13.9 -11.63,25.75 -23.26,33.2 -7.61,4.88 -16.55,7.88 -26.15,8.33 -0.84,0.04 -1.69,0.06 -2.54,0.06 -5.79,0 -11.37,-0.93 -16.59,-2.64 1.91,-3.71 4.15,-7.27 6.67,-10.61 4.02,-5.34 8.75,-10.14 14.03,-14.24 0.8,-0.61 1.61,-1.21 2.43,-1.79 1.49,-1.06 3.01,-2.07 4.58,-3.01 6.3,-3.79 13.17,-6.62 20.3,-8.41 1.54,-0.39 3.1,-0.73 4.67,-1.01 h 0.01 c 5.31,-0.99 10.72,-1.4 16.13,-1.21 z"
   id="path6" />
		<path
   style="fill:#77383d"
   d="m 176.777,402.108 c 0.025,-3.942 2.093,-7.649 4.854,-10.462 2.761,-2.813 6.186,-4.866 9.57,-6.887 -5.736,0.966 -10.952,3.954 -14.343,8.681 -1.14,-6.846 1.302,-14.189 6.316,-18.989 -3.712,0.738 -6.799,3.54 -7.706,7.215 -2.354,-4.594 -6.655,-8.151 -11.609,-9.601 2.197,1.684 4.409,3.382 6.245,5.453 1.837,2.071 3.295,4.564 3.713,7.3 0.334,2.187 -0.006,4.413 -0.345,6.599 -0.592,3.808 -1.075,7.449 -1.667,11.257 -2.503,-3.492 -5.327,-6.754 -8.424,-9.732 -1.267,-1.218 -2.804,-2.469 -4.554,-2.302 2.265,1.086 4.109,2.915 5.561,4.966 1.411,1.995 2.48,4.206 3.526,6.415 -3.445,-0.334 -6.891,-0.668 -10.336,-1.002 1.792,0.835 3.663,1.484 5.581,1.962 2.689,0.67 5.287,0.656 6.839,3.283 1.842,3.119 1.859,7.099 1.526,10.597 -0.163,1.708 -0.479,3.412 -0.71,5.101 -0.145,1.063 -0.673,5.189 -1.923,5.602 -1.032,0.34 -1.573,2.322 -0.813,3.098 0.653,0.667 1.711,0.643 2.644,0.616 4.181,-0.118 8.385,0.654 12.251,2.249 -4.357,-6.774 -6.425,-14.992 -5.794,-23.021 0.188,-2.387 0.685,-4.915 2.36,-6.626 1.414,-1.444 3.439,-2.073 5.375,-2.649 1.888,-0.563 3.777,-1.125 5.666,-1.688 -4.799,-1.474 -9.766,-0.418 -13.803,2.565 z"
   id="path7" />
		<path
   style="fill:#dd8c6f"
   d="m 194.704,444.148 c -0.84,0.04 -1.69,0.06 -2.54,0.06 -5.79,0 -11.37,-0.93 -16.59,-2.64 -11.64,-3.81 -21.51,-11.53 -28.06,-21.61 9.45,-0.31 18.99,1.86 27.35,6.28 2.58,1.36 5.05,2.94 7.38,4.72 4.85,3.66 9.08,8.14 12.46,13.19 z"
   id="path8" />
		<path
   style="fill:#ffffff"
   d="m 215.824,365.819 c 0,3.449 -2.796,6.245 -6.245,6.245 -3.449,0 -6.245,-2.796 -6.245,-6.245 0,-3.449 2.796,-6.245 6.245,-6.245 3.449,0 6.245,2.796 6.245,6.245 z"
   id="path9" />
		<g
   id="g15">
			<g
   id="g14">
				<path
   style="fill:#d19176"
   d="m 199.4,425.641 c -0.486,-0.686 -0.971,-1.372 -1.457,-2.058 0.784,0.388 1.495,0.924 2.084,1.572 0.053,-0.824 0.105,-1.648 0.158,-2.472 0.376,0.737 0.753,1.474 1.129,2.211 0.424,-0.833 1.223,-1.466 2.131,-1.688 -0.21,0.596 -0.421,1.193 -0.631,1.79 0.569,-0.558 1.406,-0.83 2.195,-0.712 -0.458,0.441 -0.916,0.883 -1.374,1.325 -1.539,0.109 -2.696,-0.079 -4.235,0.032 z"
   id="path10" />
				<path
   style="fill:#d19176"
   d="m 212.925,414.176 c -0.422,-0.756 -1.103,-1.365 -1.902,-1.699 0.764,0.358 1.528,0.715 2.292,1.073 -0.23,-0.747 -0.459,-1.494 -0.689,-2.241 0.813,0.396 1.474,1.095 1.822,1.93 0.239,-0.635 0.477,-1.27 0.716,-1.906 0.212,0.563 0.3,1.173 0.256,1.774 0.439,-0.677 1.384,-0.974 2.132,-0.669 -0.778,0.172 -1.364,0.97 -1.297,1.763 -1.205,-0.059 -2.125,0.035 -3.33,-0.025 z"
   id="path11" />
				<path
   style="fill:#d19176"
   d="m 219.282,422.648 c 0.743,0.03 1.476,0.275 2.087,0.699 -0.155,-0.755 -0.563,-1.455 -1.143,-1.962 0.906,0.221 1.686,0.904 2.025,1.773 0.314,-0.742 0.882,-1.373 1.587,-1.762 -0.224,0.581 -0.448,1.163 -0.672,1.744 0.515,-0.618 1.319,-0.985 2.124,-0.969 -0.695,0.443 -1.284,1.051 -1.706,1.759 -0.087,0.142 -2.332,-0.055 -2.549,-0.159 -0.651,-0.314 -0.947,-0.946 -1.753,-1.123 z"
   id="path12" />
				<path
   style="fill:#d19176"
   d="m 203.045,438.164 c 0.68,0.077 1.34,0.329 1.899,0.726 0.162,-0.632 0.043,-1.33 -0.318,-1.873 0.599,0.362 1.041,0.976 1.192,1.66 0.433,-0.509 1.031,-0.875 1.682,-1.028 -0.273,0.396 -0.546,0.793 -0.818,1.189 0.431,-0.45 1.093,-0.665 1.706,-0.553 -0.347,0.408 -0.694,0.816 -1.041,1.224 -0.121,0.142 -2.418,0.015 -2.642,-0.084 -0.606,-0.269 -0.936,-1.009 -1.66,-1.261 z"
   id="path13" />
				<path
   style="fill:#d19176"
   d="m 230.652,410.93 c -0.347,-0.789 -1.012,-1.433 -1.812,-1.754 0.856,0.1 1.682,0.449 2.35,0.995 0.093,-0.635 0.392,-1.238 0.841,-1.697 -0.022,0.507 -0.045,1.014 -0.067,1.521 0.412,-0.512 1.088,-0.799 1.742,-0.739 -0.422,0.391 -0.701,0.934 -0.771,1.505 -0.762,0.099 -1.521,0.07 -2.283,0.169 z"
   id="path14" />
			</g>
		</g>
		<g
   id="g29">
			<path
   style="fill:#cc6b52"
   d="m 160.733,388.798 c -0.021,-0.227 -0.023,-0.463 0.058,-0.676 0.081,-0.213 0.262,-0.401 0.488,-0.433 0.25,-0.036 0.486,0.117 0.676,0.283 0.831,0.723 1.309,1.835 1.259,2.936 0.585,-1.135 1.856,-1.88 3.132,-1.837 0.103,0.004 -0.905,1.66 -1.036,1.792 -0.511,0.514 -1.194,0.948 -1.91,1.103 -1.563,0.338 -2.545,-1.85 -2.667,-3.168 z"
   id="path15" />
			<path
   style="fill:#cc6b52"
   d="m 159.962,395.236 c 0.551,0.615 1.34,1.012 2.163,1.088 0.72,0.066 2.672,-0.473 1.579,-1.484 -0.843,-0.781 -2.95,-0.129 -3.742,0.396 z"
   id="path16" />
			<path
   style="fill:#cc6b52"
   d="m 168.11,372.269 c -0.005,-0.743 0.317,-1.483 0.866,-1.986 0.673,0.48 1.091,1.298 1.087,2.124 -0.003,0.5 -0.248,1.712 -0.909,1.745 -0.736,0.038 -1.04,-1.385 -1.044,-1.883 z"
   id="path17" />
			<path
   style="fill:#cc6b52"
   d="m 171.66,377.581 c -0.245,-0.767 -0.166,-1.632 0.215,-2.34 0.381,-0.709 1.059,-1.252 1.834,-1.47 0.403,0.677 0.349,1.53 -0.044,2.212 -0.395,0.682 -1.217,1.608 -2.005,1.598 z"
   id="path18" />
			<path
   style="fill:#cc6b52"
   d="m 165.834,378.262 c 0.394,-0.723 1.089,-1.277 1.882,-1.499 0.793,-0.222 1.674,-0.11 2.387,0.304 -0.236,0.781 -0.934,1.405 -1.664,1.768 -0.73,0.365 -1.839,-0.292 -2.605,-0.573 z"
   id="path19" />
			<path
   style="fill:#cc6b52"
   d="m 180.683,372.454 c 0.088,-0.184 0.21,-0.373 0.403,-0.438 0.336,-0.113 0.681,0.238 0.704,0.591 0.023,0.353 -0.166,0.682 -0.35,0.985 0.464,-0.36 1.026,-0.592 1.609,-0.666 0.325,-0.041 0.707,-0.008 0.897,0.259 0.226,0.318 0.041,0.764 -0.206,1.066 -0.52,0.635 -1.785,1.399 -2.643,1.023 -0.981,-0.429 -0.783,-2.045 -0.414,-2.82 z"
   id="path20" />
			<path
   style="fill:#cc6b52"
   d="m 183.722,387.423 c -0.625,-0.399 -1.084,-1.049 -1.251,-1.772 -0.166,-0.722 -0.038,-1.508 0.35,-2.14 1.025,0.121 1.634,1.136 1.564,2.166 0.26,-1.314 1.356,-2.252 2.688,-2.393 0.041,0.862 -0.412,1.729 -1.007,2.355 -0.594,0.626 -1.481,1.782 -2.344,1.784 z"
   id="path21" />
			<path
   style="fill:#cc6b52"
   d="m 187.582,386.567 c 1.167,-1.031 3.121,-1.004 4.26,0.058 -0.542,0.576 -1.323,1.033 -2.114,1.015 -0.791,-0.018 -1.631,-0.473 -2.146,-1.073 z"
   id="path22" />
			<path
   style="fill:#cc6b52"
   d="m 188.599,384.984 c -0.217,-1.463 0.814,-3.005 2.249,-3.363 0.333,0.801 0.314,1.855 -0.172,2.574 -0.485,0.719 -1.209,0.798 -2.077,0.789 z"
   id="path23" />
			<path
   style="fill:#cc6b52"
   d="m 181.83,390.475 c 0.626,-0.534 1.524,-0.73 2.315,-0.504 0.791,0.226 1.451,0.866 1.701,1.65 -0.609,0.522 -1.682,0.675 -2.448,0.436 -0.764,-0.239 -1.363,-0.807 -1.568,-1.582 z"
   id="path24" />
			<path
   style="fill:#cc6b52"
   d="m 187.33,399.514 c 0.134,-0.746 0.294,-1.512 0.722,-2.137 0.428,-0.625 1.194,-1.079 1.935,-0.921 0.543,0.511 0.083,1.33 -0.417,1.882 -0.501,0.553 -1.532,0.943 -2.24,1.176 z"
   id="path25" />
			<path
   style="fill:#cc6b52"
   d="m 184.144,400.223 c 0.747,-0.143 1.55,0.032 2.171,0.472 0.621,0.44 1.05,1.141 1.162,1.893 -0.699,0.453 -1.827,0.473 -2.539,0.041 -0.713,-0.433 -0.874,-1.577 -0.794,-2.406 z"
   id="path26" />
			<path
   style="fill:#cc6b52"
   d="m 162.135,406.198 c 0.685,-1.753 2.595,-2.942 4.47,-2.783 -0.299,1.697 -2.752,2.921 -4.47,2.783 z"
   id="path27" />
			<path
   style="fill:#cc6b52"
   d="m 161.158,401.901 c -1.381,-0.494 -2.399,-1.871 -2.464,-3.337 1.392,-0.135 2.522,0.842 2.939,2.177 0.298,-0.842 1.13,-1.466 2.021,-1.517 0.137,0.75 0.053,1.423 -0.479,1.968 -0.532,0.546 -1.299,0.966 -2.017,0.709 z"
   id="path28" />
			<path
   style="fill:#cc6b52"
   d="m 159.934,404.164 c 0.744,-1.009 2.136,-1.49 3.345,-1.156 -0.07,0.751 -0.358,1.18 -0.969,1.623 -0.611,0.444 -1.639,-0.301 -2.376,-0.467 z"
   id="path29" />
		</g>
	</g>
	
</g>
</svg>
