<?xml version="1.0" encoding="UTF-8" standalone="no"?>
<!-- Generator: Adobe Illustrator 27.5.0, SVG Export Plug-In . SVG Version: 6.00 Build 0)  -->

<svg
   version="1.1"
   x="0px"
   y="0px"
   viewBox="0 0 106.462 106.46"
   xml:space="preserve"
   id="svg47"
   sodipodi:docname="september.svg"
   width="106.462"
   height="106.46"
   inkscape:version="1.3.2 (091e20e, 2023-11-25, custom)"
   xmlns:inkscape="http://www.inkscape.org/namespaces/inkscape"
   xmlns:sodipodi="http://sodipodi.sourceforge.net/DTD/sodipodi-0.dtd"
   xmlns="http://www.w3.org/2000/svg"
   xmlns:svg="http://www.w3.org/2000/svg"><defs
   id="defs47" /><sodipodi:namedview
   id="namedview47"
   pagecolor="#ffffff"
   bordercolor="#000000"
   borderopacity="0.25"
   inkscape:showpageshadow="2"
   inkscape:pageopacity="0.0"
   inkscape:pagecheckerboard="0"
   inkscape:deskcolor="#d1d1d1"
   inkscape:zoom="1.554"
   inkscape:cx="226.83398"
   inkscape:cy="-87.837838"
   inkscape:window-width="1920"
   inkscape:window-height="991"
   inkscape:window-x="2391"
   inkscape:window-y="435"
   inkscape:window-maximized="1"
   inkscape:current-layer="svg47" />

<g
   id="OBJECTS"
   transform="translate(-23.26,-337.748)">
	
	<g
   id="g47">
		<path
   style="fill:#fff7af"
   d="m 129.722,390.978 c 0,0.77 -0.02,1.53 -0.05,2.29 -0.11,2.73 -0.44,5.41 -0.95,8.02 -0.09,0.45 -0.18,0.89 -0.28,1.33 -3.1,13.9 -11.63,25.75 -23.26,33.2 -7.61,4.88 -16.55,7.88 -26.15,8.33 -0.84,0.04 -1.69,0.06 -2.54,0.06 -5.79,0 -11.37,-0.93 -16.59,-2.64 -11.64,-3.81 -21.51,-11.53 -28.06,-21.61 -1.68,-2.57 -3.14,-5.3 -4.36,-8.16 -2.71,-6.39 -4.22,-13.43 -4.22,-20.82 0,-29.4 23.83,-53.23 53.23,-53.23 29.4,0 53.23,23.83 53.23,53.23 z"
   id="path1" />
		<path
   style="fill:#99b94a"
   d="m 105.182,435.818 c -7.61,4.88 -16.55,7.88 -26.15,8.33 -0.84,0.04 -1.69,0.06 -2.54,0.06 -5.79,0 -11.37,-0.93 -16.59,-2.64 -11.64,-3.81 -21.51,-11.53 -28.06,-21.61 -1.68,-2.57 -3.14,-5.3 -4.36,-8.16 14.18,-3.88 29.51,-3.57 43.5,1 3.29,1.08 6.51,2.39 9.62,3.92 0.51,0.24 1.02,0.5 1.52,0.76 0.51,0.26 1.02,0.54 1.53,0.82 8.16,4.46 15.51,10.43 21.53,17.52 z"
   id="path2" />
		<g
   id="g5">
			<g
   id="g4">
				<path
   style="fill:#a08d84"
   d="m 114.159,406.268 c -2.339,-6.341 -5.999,-12.191 -10.68,-17.067 -1.344,-1.4 -2.941,-2.798 -4.878,-2.916 -2.406,-0.146 -4.446,1.721 -5.894,3.648 -3.204,4.26 -5.064,9.368 -6.582,14.478 -1.518,5.109 -2.748,10.33 -4.886,15.212 5.452,-3.027 10.871,-5.836 16.648,-8.184 5.232,-2.127 10.703,-4.231 16.272,-5.171 z"
   id="path3" />
				<path
   style="fill:#a08d84"
   d="m 129.672,393.268 c -0.11,2.73 -0.44,5.41 -0.95,8.02 -0.09,0.45 -0.18,0.89 -0.28,1.33 -7.21,1.91 -14.4,3.92 -21.61,5.78 0.16,-0.04 0.3,-0.19 0.41,-0.42 0.52,-1.03 0.58,-3.63 0.67,-4.47 0.01,-0.06 0.01,-0.11 0.02,-0.15 0.32,-2.09 0.84,-4.31 1.58,-6.47 0.41,-1.24 0.9,-2.46 1.46,-3.62 0.8,-1.68 1.74,-3.23 2.81,-4.56 2.42,-2.98 5.77,-3.54 9.01,-1.81 2.65,1.42 4.96,3.72 6.88,6.37 z"
   id="path4" />
			</g>
		</g>
		<path
   style="fill:#b6dc62"
   d="m 128.722,401.288 c -0.09,0.45 -0.18,0.89 -0.28,1.33 -3.1,13.9 -11.63,25.75 -23.26,33.2 -7.61,4.88 -16.55,7.88 -26.15,8.33 -0.84,0.04 -1.69,0.06 -2.54,0.06 -5.79,0 -11.37,-0.93 -16.59,-2.64 1.91,-3.71 4.15,-7.27 6.67,-10.61 4.02,-5.34 8.75,-10.14 14.03,-14.24 0.8,-0.61 1.61,-1.21 2.43,-1.79 1.49,-1.06 3.01,-2.07 4.58,-3.01 6.3,-3.79 13.17,-6.62 20.3,-8.41 1.54,-0.39 3.1,-0.73 4.67,-1.01 h 0.01 c 5.31,-0.99 10.72,-1.4 16.13,-1.21 z"
   id="path5" />
		<g
   id="g10">
			<path
   style="opacity:0.45;fill:#ffffff"
   d="m 82.44,361.8 c -3.52,0.96 -7.22,-0.5 -10.44,-2.21 -6.22,-3.3 -12.07,-7.75 -19.01,-8.93 -4.78,-0.81 -9.76,0.19 -13.99,2.53 1.61,-1.59 3.32,-3.09 5.12,-4.46 l 0.01,-0.01 c 1.98,-0.49 4.02,-0.72 6.05,-0.72 5.5,0.01 10.88,1.64 15.88,3.92 1.57,0.71 3.12,1.49 4.8,1.89 1.67,0.4 3.52,0.37 5.02,-0.48 1.49,-0.85 2.51,-2.67 2.07,-4.33 -0.43,-1.67 -2.56,-2.77 -4.03,-1.88 0.87,-2.46 3.59,-3.64 6.17,-3.28 4.18,0.59 7.88,4.01 8.52,8.18 0.63,4.17 -2.1,8.67 -6.17,9.78 z"
   id="path6" />
			<path
   style="opacity:0.45;fill:#ffffff"
   d="m 128.9,381.6 c -0.59,-0.2 -1.21,-0.36 -1.84,-0.49 -3.09,-0.65 -6.55,-0.57 -9.55,0.23 -2.15,0.57 -4.03,1.47 -6.05,2.21 -2.02,0.73 -4.32,1.3 -6.63,1.1 -2.82,-0.24 -5.23,-1.7 -5.84,-3.45 -0.6,-1.75 0.57,-3.68 2.8,-4.79 3.16,-1.59 7.26,-1.61 9.6,0.5 -1.68,-0.53 -3.68,-0.62 -5.15,0.13 -1.47,0.74 -1.74,2.36 -0.26,3.09 3.18,1.58 6.69,-1.59 9.03,-2.53 3.69,-1.47 8.46,-0.95 11.88,0.6 0.52,0.24 1.01,0.5 1.47,0.78 0.2,0.86 0.38,1.74 0.54,2.62 z"
   id="path7" />
			<path
   style="opacity:0.45;fill:#ffffff"
   d="m 51.02,400.6 c -3.17,0.24 -6.16,-1.42 -8.78,-3.22 -2.62,-1.8 -5.21,-3.85 -8.3,-4.58 -3.15,-0.74 -6.62,0.04 -9.14,2.06 -0.47,0.37 -0.9,0.79 -1.29,1.24 -0.16,-1.61 -0.24,-3.25 -0.25,-4.91 4.66,-2 10.18,-2.09 14.78,0.1 1.49,0.71 2.87,1.63 4.35,2.37 1.47,0.73 3.08,1.3 4.73,1.24 1.64,-0.07 3.33,-0.86 4.14,-2.3 0.8,-1.44 0.45,-3.52 -0.97,-4.36 -1.42,-0.84 -3.64,0.15 -3.7,1.8 -1.21,-0.56 -1.45,-2.02 -0.79,-3.18 0.67,-1.16 2,-1.79 3.32,-2.01 4.22,-0.69 8.66,2.64 9.17,6.88 0.52,4.24 -3.01,8.54 -7.27,8.87 z"
   id="path8" />
			<path
   style="opacity:0.45;fill:#ffffff"
   d="m 41.84,388.82 c -3,-2.5 -6.81,-3.99 -10.71,-4.21 -2.59,-0.14 -5.2,0.29 -7.62,1.23 0.07,-0.75 0.15,-1.5 0.26,-2.24 2.55,-0.82 5.29,-1.04 7.93,-0.61 3.96,0.65 7.57,2.75 10.14,5.83 z"
   id="path9" />
			<path
   style="opacity:0.45;fill:#ffffff"
   d="m 42.319,355.235 c 4.418,-2.439 9.967,-1.397 14.59,0.627 4.623,2.024 8.868,4.958 13.72,6.346 -10.071,0 -19.032,-7.646 -28.31,-6.973 z"
   id="path10" />
		</g>
		<path
   style="fill:#555c3b"
   d="m 74.893,438.849 c 0.79,-0.761 1.123,-1.964 0.837,-3.023 -0.286,-1.059 -1.178,-1.932 -2.244,-2.193 0.968,-0.519 1.427,-1.819 1.001,-2.831 -0.427,-1.012 -1.679,-1.59 -2.726,-1.259 1.641,-0.23 2.761,-2.134 2.317,-3.73 -0.443,-1.596 -2.21,-2.643 -3.854,-2.439 -1.644,0.204 -3.044,1.517 -3.539,3.099 0.962,-1.635 0.285,-4.012 -1.395,-4.894 -1.679,-0.882 -4.021,-0.09 -4.821,1.63 0.965,-0.904 0.873,-2.681 -0.18,-3.481 -1.053,-0.8 -2.789,-0.414 -3.403,0.758 1.263,-1.026 1.606,-3.018 0.759,-4.408 -0.847,-1.389 -2.775,-1.997 -4.265,-1.346 -1.491,0.652 -2.353,2.48 -1.907,4.045 -0.589,-1.99 -3.388,-2.902 -5.037,-1.642 -1.649,1.26 -1.503,4.201 0.262,5.292 9.112,5.627 18.966,10.99 28.195,16.422 z"
   id="path11" />
		<path
   style="fill:#77383d"
   d="m 61.105,402.108 c 0.025,-3.942 2.093,-7.649 4.854,-10.462 2.761,-2.813 6.186,-4.866 9.57,-6.887 -5.736,0.966 -10.952,3.954 -14.343,8.681 -1.14,-6.846 1.302,-14.189 6.316,-18.989 -3.712,0.738 -6.799,3.54 -7.706,7.215 -2.354,-4.594 -6.655,-8.151 -11.609,-9.601 2.197,1.684 4.409,3.382 6.245,5.453 1.836,2.071 3.295,4.564 3.713,7.3 0.334,2.187 -0.006,4.413 -0.346,6.599 -0.592,3.808 -1.075,7.449 -1.667,11.257 -2.503,-3.492 -5.327,-6.754 -8.424,-9.732 -1.267,-1.218 -2.804,-2.469 -4.554,-2.302 2.265,1.086 4.109,2.915 5.561,4.966 1.411,1.995 2.48,4.206 3.526,6.415 -3.445,-0.334 -6.891,-0.668 -10.336,-1.002 1.792,0.835 3.663,1.484 5.581,1.962 2.689,0.67 5.287,0.656 6.839,3.283 1.841,3.119 1.86,7.099 1.526,10.597 -0.163,1.708 -0.479,3.412 -0.71,5.101 -0.145,1.063 -0.673,5.189 -1.923,5.602 -1.032,0.34 -1.573,2.322 -0.813,3.098 0.653,0.667 1.711,0.643 2.644,0.616 4.181,-0.118 8.385,0.654 12.251,2.249 -4.357,-6.774 -6.425,-14.992 -5.793,-23.021 0.188,-2.387 0.685,-4.915 2.36,-6.626 1.414,-1.444 3.439,-2.073 5.375,-2.649 1.888,-0.563 3.777,-1.125 5.665,-1.688 -4.798,-1.474 -9.764,-0.418 -13.802,2.565 z"
   id="path12" />
		<path
   style="fill:#7ca642"
   d="m 79.032,444.148 c -0.84,0.04 -1.69,0.06 -2.54,0.06 -5.79,0 -11.37,-0.93 -16.59,-2.64 -11.64,-3.81 -21.51,-11.53 -28.06,-21.61 9.45,-0.31 18.99,1.86 27.35,6.28 2.58,1.36 5.05,2.94 7.38,4.72 4.85,3.66 9.08,8.14 12.46,13.19 z"
   id="path13" />
		<path
   style="fill:#ffffff"
   d="m 100.153,365.819 c 0,3.449 -2.796,6.245 -6.245,6.245 -3.449,0 -6.245,-2.796 -6.245,-6.245 0,-3.449 2.796,-6.245 6.245,-6.245 3.448,-0.001 6.245,2.796 6.245,6.245 z"
   id="path14" />
		<path
   style="fill:#767f3e"
   d="m 48.814,401.191 c 0.012,-1.004 -0.492,-1.997 -1.279,-2.524 -0.788,-0.527 -1.832,-0.569 -2.654,-0.106 0.237,-1.251 -0.298,-2.631 -1.287,-3.323 -0.989,-0.691 -2.369,-0.649 -3.321,0.102 -0.952,0.751 -1.414,2.162 -1.111,3.396 -0.814,-1.055 -2.438,-1.327 -3.474,-0.533 -1.036,0.794 -1.37,2.489 -0.725,3.673 0.645,1.184 2.175,1.684 3.316,1.083 -0.612,0.687 -0.626,1.932 0.078,2.506 0.705,0.574 1.852,0.317 2.29,-0.512 0.186,0.989 0.834,2.053 1.666,2.503 0.832,0.451 1.917,0.367 2.616,-0.298 0.699,-0.666 0.899,-1.909 0.367,-2.736 0.643,0.402 0.97,0.578 1.71,0.512 0.74,-0.066 1.477,-0.526 1.769,-1.267 0.291,-0.74 0.72,-2.154 0.039,-2.476 z"
   id="path15" />
		<path
   style="fill:#767f3e"
   d="m 58.56,377.832 c 1.287,0.06 2.486,-1.154 2.409,-2.44 -0.077,-1.286 -1.411,-2.349 -2.682,-2.137 1.029,-0.911 0.94,-2.782 -0.172,-3.591 -1.111,-0.809 -2.919,-0.318 -3.469,0.942 0.854,-1.824 -0.244,-4.282 -2.172,-4.865 -1.928,-0.583 -4.203,0.858 -4.501,2.849 -0.677,-0.331 -1.46,-0.819 -2.213,-0.788 -0.753,0.031 -1.512,0.331 -2.006,0.9 -0.494,0.569 -0.679,1.421 -0.372,2.108 0.422,0.945 1.557,1.318 2.579,1.485 -0.981,0.302 -1.837,1.26 -1.871,2.286 -0.034,1.026 0.639,2.037 1.599,2.402 0.959,0.365 2.134,0.057 2.792,-0.731 -0.448,0.355 -0.322,1.197 0.027,1.651 0.348,0.453 0.953,0.649 1.524,0.639 0.572,-0.009 1.124,-0.195 1.665,-0.379 -0.118,1.188 0.377,2.373 1.407,2.977 1.03,0.604 2.409,0.55 3.388,-0.133 0.979,-0.681 2.279,-1.999 2.068,-3.175 z"
   id="path16" />
		<path
   style="fill:#767f3e"
   d="m 67.53,386.267 c -0.925,-0.092 -1.752,-0.821 -1.959,-1.727 -0.207,-0.906 0.221,-1.922 1.014,-2.407 0.793,-0.485 1.892,-0.403 2.605,0.195 -0.739,-0.784 -1.193,-2.161 -0.987,-3.219 0.207,-1.058 0.98,-1.995 1.992,-2.366 1.012,-0.371 2.227,-0.143 3.012,0.595 0.785,0.738 1.085,1.961 0.698,2.966 0.169,-0.547 0.681,-0.841 1.253,-0.851 0.572,-0.01 1.118,0.25 1.585,0.58 0.501,0.354 0.953,0.817 1.146,1.399 0.193,0.582 0.07,1.296 -0.409,1.679 0.868,-0.993 2.63,-1.028 3.626,-0.164 0.996,0.864 1.119,2.554 0.259,3.554 -0.86,1 -2.55,1.13 -3.553,0.274 0.618,0.607 0.417,1.512 0.041,2.293 -0.376,0.781 -1.278,1.272 -2.138,1.167 -0.86,-0.106 -1.615,-0.801 -1.791,-1.65 -0.122,0.613 -0.695,1.032 -1.15,1.461 -0.455,0.429 -1.093,0.679 -1.712,0.597 -0.619,-0.082 -1.196,-0.523 -1.37,-1.123 -0.174,-0.6 0.112,-1.32 0.681,-1.579 -0.551,0.255 -1.169,0.365 -1.774,0.315 -0.418,-0.034 -0.864,-0.165 -1.109,-0.505 -0.246,-0.34 -0.359,-1.354 0.04,-1.484 z"
   id="path17" />
		<path
   style="fill:#767f3e"
   d="m 45.233,389.357 c 0.051,-0.826 0.471,-1.623 1.123,-2.133 0.928,0.976 1.209,2.514 0.688,3.756 0.714,-1.245 2.456,-1.77 3.739,-1.127 -0.725,1.374 -2.305,2.247 -3.854,2.13 0.792,-0.11 1.624,0.107 2.262,0.589 0.637,0.483 1.072,1.225 1.18,2.017 -0.946,0.276 -2.008,0.125 -2.84,-0.403 -0.802,-0.508 -1.313,-1.31 -1.541,-2.219 -0.228,-0.902 -0.818,-1.629 -0.757,-2.61 z"
   id="path18" />
		<path
   style="fill:#767f3e"
   d="m 45.309,395.801 c 0.757,1 2.127,1.493 3.347,1.205 -0.866,0.693 -1.193,1.983 -0.762,3.005 0.173,0.41 1.785,-1.221 1.885,-1.412 0.303,-0.576 0.531,-1.55 0.06,-2.104 -0.375,-0.441 -1.255,-0.725 -1.784,-0.89 -0.895,-0.278 -1.902,-0.228 -2.746,0.196 z"
   id="path19" />
		<path
   style="fill:#767f3e"
   d="m 54.31,382.761 c 0.159,1.247 1.294,2.297 2.549,2.359 -0.835,0.155 -1.579,0.738 -1.928,1.513 -0.188,0.417 -0.212,1.008 0.186,1.234 0.332,0.188 0.743,0.004 1.075,-0.184 0.657,-0.373 1.322,-0.784 1.759,-1.4 0.298,-0.42 0.566,-1.112 0.382,-1.631 -0.13,-0.368 -0.491,-0.534 -0.788,-0.75 -0.484,-0.354 -0.939,-0.688 -1.511,-0.893 -0.135,-0.05 -1.739,-0.362 -1.724,-0.248 z"
   id="path20" />
		<path
   style="fill:#767f3e"
   d="m 64.826,375.906 c -0.902,0.071 -1.823,-0.428 -2.337,-1.266 -0.514,-0.838 -0.604,-1.985 -0.228,-2.911 0.8,0.215 1.696,0.584 2.195,1.321 0.5,0.737 0.397,1.929 0.37,2.856 z"
   id="path21" />
		<path
   style="fill:#767f3e"
   d="m 66.106,372.376 c 0.195,-0.823 0.771,-1.547 1.528,-1.924 0.432,0.985 0.394,2.165 -0.101,3.121 0.627,-0.27 1.253,-0.54 1.88,-0.81 0.328,-0.141 0.764,-0.26 0.995,0.012 0.186,0.22 0.103,0.556 -0.027,0.813 -0.348,0.687 -0.969,1.232 -1.696,1.486 -0.627,0.219 -1.727,0.364 -2.174,-0.255 -0.453,-0.626 -0.576,-1.72 -0.405,-2.443 z"
   id="path22" />
		<path
   style="fill:#767f3e"
   d="m 69.927,399.332 c -0.879,-0.265 -1.619,-0.957 -1.942,-1.817 -0.323,-0.859 -0.223,-1.867 0.264,-2.646 0.709,0.08 1.323,0.579 1.76,1.143 0.437,0.564 0.634,1.308 0.534,2.015 0.713,-1.427 2.266,-2.441 3.862,-2.446 -0.019,1.087 -0.486,2.111 -1.298,2.834 -0.813,0.723 -2.139,1.231 -3.18,0.917 z"
   id="path23" />
		<path
   style="fill:#767f3e"
   d="m 66.879,401.468 c 0.828,-0.019 1.681,-0.019 2.452,0.286 0.77,0.306 1.447,0.99 1.496,1.817 -0.775,0.466 -1.763,0.543 -2.579,0.153 -0.816,-0.39 -1.244,-1.36 -1.369,-2.256 z"
   id="path24" />
		<path
   style="fill:#767f3e"
   d="m 73.729,399.215 c 0.925,-0.652 2.082,-0.967 3.21,-0.874 0.597,0.049 1.259,0.27 1.501,0.817 -0.545,0.75 -1.636,1.286 -2.56,1.361 -0.924,0.074 -1.494,-0.651 -2.151,-1.304 z"
   id="path25" />
		<g
   id="g31">
			<g
   id="g30">
				<path
   style="fill:#99b94a"
   d="m 83.946,425.684 c -0.486,-0.686 -0.971,-1.372 -1.457,-2.058 0.784,0.388 1.495,0.924 2.084,1.572 0.053,-0.824 0.105,-1.648 0.158,-2.472 0.376,0.737 0.753,1.474 1.129,2.211 0.424,-0.833 1.223,-1.466 2.131,-1.688 -0.21,0.596 -0.421,1.193 -0.631,1.79 0.569,-0.558 1.407,-0.83 2.195,-0.712 -0.458,0.441 -0.916,0.883 -1.374,1.325 -1.539,0.109 -2.695,-0.079 -4.235,0.032 z"
   id="path26" />
				<path
   style="fill:#99b94a"
   d="m 97.472,414.219 c -0.422,-0.756 -1.103,-1.365 -1.902,-1.699 0.764,0.358 1.528,0.715 2.292,1.073 -0.23,-0.747 -0.459,-1.494 -0.689,-2.241 0.813,0.396 1.474,1.095 1.822,1.93 0.239,-0.635 0.477,-1.27 0.716,-1.906 0.212,0.563 0.3,1.173 0.256,1.774 0.44,-0.677 1.384,-0.974 2.132,-0.669 -0.778,0.172 -1.364,0.97 -1.297,1.763 -1.206,-0.059 -2.126,0.035 -3.33,-0.025 z"
   id="path27" />
				<path
   style="fill:#99b94a"
   d="m 103.828,422.691 c 0.743,0.03 1.476,0.275 2.087,0.699 -0.155,-0.755 -0.563,-1.455 -1.143,-1.962 0.906,0.221 1.686,0.904 2.025,1.773 0.314,-0.742 0.882,-1.373 1.587,-1.762 -0.224,0.581 -0.448,1.163 -0.672,1.744 0.515,-0.618 1.319,-0.985 2.124,-0.969 -0.695,0.443 -1.284,1.051 -1.706,1.759 -0.087,0.142 -2.332,-0.055 -2.549,-0.159 -0.651,-0.314 -0.947,-0.946 -1.753,-1.123 z"
   id="path28" />
				<path
   style="fill:#99b94a"
   d="m 87.591,438.207 c 0.68,0.077 1.34,0.329 1.899,0.726 0.162,-0.632 0.043,-1.33 -0.318,-1.873 0.6,0.362 1.041,0.976 1.192,1.66 0.433,-0.509 1.031,-0.875 1.682,-1.028 -0.273,0.396 -0.546,0.793 -0.818,1.189 0.431,-0.45 1.093,-0.665 1.706,-0.553 -0.347,0.408 -0.694,0.816 -1.041,1.224 -0.121,0.142 -2.418,0.015 -2.642,-0.084 -0.606,-0.269 -0.936,-1.009 -1.66,-1.261 z"
   id="path29" />
				<path
   style="fill:#99b94a"
   d="m 115.199,410.973 c -0.347,-0.789 -1.012,-1.433 -1.812,-1.754 0.856,0.1 1.682,0.449 2.35,0.995 0.093,-0.635 0.392,-1.238 0.841,-1.697 -0.022,0.507 -0.045,1.014 -0.067,1.521 0.412,-0.512 1.088,-0.799 1.743,-0.739 -0.422,0.391 -0.701,0.934 -0.771,1.505 -0.764,0.099 -1.523,0.07 -2.284,0.169 z"
   id="path30" />
			</g>
		</g>
		<g
   id="g37">
			<path
   style="fill:#767f3e"
   d="m 83.768,434.659 c -0.009,-1.271 0.539,-2.536 1.472,-3.398 0.933,-0.863 2.237,-1.31 3.503,-1.203 -0.576,1.919 -3.003,4.251 -4.975,4.601 z"
   id="path31" />
			<path
   style="fill:#767f3e"
   d="m 90.681,433.121 c 1.361,-1.596 3.835,-2.116 5.723,-1.203 -1.13,1.381 -4.034,1.777 -5.723,1.203 z"
   id="path32" />
			<path
   style="fill:#767f3e"
   d="m 93.739,423.838 c -0.146,-0.936 0.185,-1.935 0.862,-2.598 0.677,-0.663 1.682,-0.974 2.615,-0.809 -0.376,1.575 -1.864,3.257 -3.477,3.407 z"
   id="path33" />
			<path
   style="fill:#767f3e"
   d="m 87.023,418.472 c 0.337,-0.943 1.054,-1.743 1.954,-2.183 0.9,-0.44 1.972,-0.513 2.923,-0.199 -0.665,1.446 -3.333,2.771 -4.877,2.382 z"
   id="path34" />
			<path
   style="fill:#767f3e"
   d="m 75.27,428.427 c 0.136,-0.376 0.543,-0.599 0.941,-0.637 0.398,-0.038 0.793,0.073 1.177,0.184 1.045,0.3 2.09,0.6 3.134,0.9 -0.615,0.625 -1.513,1.182 -2.384,1.088 -0.872,-0.096 -2.402,-0.792 -2.868,-1.535 z"
   id="path35" />
			<path
   style="fill:#767f3e"
   d="m 112.2,414.97 c 1.082,-1.259 3.08,-1.614 4.529,-0.803 -1.221,1.143 -3.145,1.741 -4.529,0.803 z"
   id="path36" />
			<path
   style="fill:#767f3e"
   d="m 104.002,408.322 c 1.941,-0.988 4.407,-0.85 6.226,0.348 -1.531,1.329 -4.647,0.925 -6.226,-0.348 z"
   id="path37" />
		</g>
		<g
   id="g41">
			<path
   style="fill:#767f3e"
   d="m 65.686,435.147 c 1.121,0.453 1.981,1.498 2.211,2.684 0.082,0.425 -4.332,-0.737 -4.776,-1.188 -1.656,-1.678 1.411,-1.962 2.565,-1.496 z"
   id="path38" />
			<path
   style="fill:#767f3e"
   d="m 43.898,427.738 c 1.338,-1.022 3.398,-0.947 4.659,0.169 -1.447,1.149 -3.223,0.995 -4.659,-0.169 z"
   id="path39" />
			<path
   style="fill:#767f3e"
   d="m 53.23,435.238 c 1.339,-1.071 3.455,-1.006 4.725,0.145 -0.912,1.312 -3.349,0.665 -4.725,-0.145 z"
   id="path40" />
			<path
   style="fill:#767f3e"
   d="m 54.369,427.576 c 0.905,-0.422 1.99,-0.439 2.908,-0.047 0.918,0.392 1.656,1.188 1.977,2.133 -1.682,0.478 -4.143,-0.503 -4.885,-2.086 z"
   id="path41" />
		</g>
		<g
   id="g46">
			<path
   style="fill:#767f3e"
   d="m 84.634,391.527 c 1.749,-0.379 3.688,0.331 4.779,1.75 -0.812,0.509 -1.949,0.864 -2.863,0.577 -0.915,-0.287 -1.542,-1.445 -1.916,-2.327 z"
   id="path42" />
			<path
   style="fill:#767f3e"
   d="m 107.568,391.115 c 1.025,-1.333 3.022,-1.806 4.536,-1.075 -0.875,1.669 -2.891,1.996 -4.536,1.075 z"
   id="path43" />
			<path
   style="fill:#767f3e"
   d="m 87.54,377.098 c 1.811,-1.288 4.407,-1.354 6.282,-0.16 -0.586,0.906 -1.824,1.581 -2.894,1.719 -1.071,0.137 -2.592,-0.831 -3.388,-1.559 z"
   id="path44" />
			<path
   style="fill:#767f3e"
   d="m 63.475,355.262 c 1.915,-1.43 4.552,-1.835 6.809,-1.047 -1.201,1.844 -4.984,2.276 -6.809,1.047 z"
   id="path45" />
			<path
   style="fill:#767f3e"
   d="m 114.955,377.64 c 1.761,-1.573 4.55,-1.86 6.594,-0.678 -1.422,1.625 -5.043,2.181 -6.594,0.678 z"
   id="path46" />
		</g>
	</g>

</g>
</svg>
